<?xml version="1.0" encoding="UTF-8"?>
<svg width="110px" height="177px" viewBox="0 0 110 177" version="1.1" xmlns="http://www.w3.org/2000/svg" xmlns:xlink="http://www.w3.org/1999/xlink">
    <!-- Generator: Sketch 55.1 (78136) - https://sketchapp.com -->
    <title>card-23copy</title>
    <desc>Created with Sketch.</desc>
    <g id="Page-1" stroke="none" stroke-width="1" fill="none" fill-rule="evenodd">
        <g id="card-23copy" fill-rule="nonzero">
            <path d="M96.02,0.26 L12.98,0.26 C5.84,0.26 0,6.1 0,13.24 L0,163.76 C0,170.9 5.84,176.74 12.98,176.74 L96.03,176.74 C103.17,176.74 109.01,170.9 109.01,163.76 L109.01,13.24 C109,6.1 103.16,0.26 96.02,0.26 Z" id="路徑" fill="#EBEBEB"></path>
            <path d="M41.93,137.45 L22.04,137.45 L22.04,136.53 C31.42,136.53 31.53,113.01 31.53,112.77 L32.45,112.77 C32.45,136.26 41.84,136.53 41.94,136.53 L41.94,137.45 L41.93,137.45 Z M25.28,136.53 L39.15,136.53 C36.61,135.02 33.1,131.05 31.93,120.54 C31.2,126.45 29.45,133.95 25.28,136.53 Z" id="形狀" fill="#E37F45"></path>
            <path d="M32.44,112.77 L31.52,112.77 C31.52,100.49 28.91,94.67 26.72,91.96 C24.4,89.08 22.05,89.02 22.03,89.02 L22.03,88.1 L41.92,88.1 L41.92,89.02 C32.55,89.02 32.44,112.54 32.44,112.77 Z M24.82,89.02 C27.36,90.53 30.87,94.5 32.04,105.01 C32.77,99.11 34.51,91.6 38.68,89.02 L24.82,89.02 Z" id="形狀" fill="#E37F45"></path>
            <path d="M53.19,125.34 L33.3,125.34 L33.3,124.42 C42.68,124.42 42.79,100.9 42.79,100.66 L43.71,100.66 C43.71,112.94 46.32,118.76 48.51,121.47 C50.83,124.35 53.18,124.41 53.2,124.41 L53.19,125.34 Z M36.53,124.42 L50.4,124.42 C47.86,122.91 44.35,118.94 43.18,108.43 C42.45,114.34 40.71,121.85 36.53,124.42 Z" id="形狀" fill="#E37F45"></path>
            <path d="M43.7,100.67 L42.78,100.67 C42.78,88.39 40.17,82.57 37.98,79.86 C35.66,76.98 33.31,76.92 33.29,76.92 L33.29,76 L53.18,76 L53.18,76.92 C43.81,76.91 43.7,100.43 43.7,100.67 Z M36.08,76.91 C38.62,78.42 42.13,82.39 43.3,92.9 C44.03,87 45.77,79.49 49.95,76.91 L36.08,76.91 Z" id="形狀" fill="#E37F45"></path>
            <path d="M64.44,113.23 L44.56,113.23 L44.56,112.31 C53.93,112.31 54.05,88.79 54.05,88.55 L54.05,88.55 L54.97,88.55 C54.97,100.83 57.58,106.65 59.77,109.36 C62.09,112.24 64.44,112.3 64.46,112.3 L64.44,113.23 Z M47.79,112.32 L61.66,112.32 C59.12,110.81 55.61,106.84 54.44,96.33 C53.71,102.23 51.97,109.74 47.79,112.32 Z" id="形狀" fill="#E37F45"></path>
            <path d="M54.96,88.56 L54.04,88.56 C54.04,65.07 44.65,64.8 44.55,64.8 L44.55,63.88 L64.44,63.88 L64.44,64.8 C55.07,64.8 54.96,88.32 54.96,88.56 Z M47.34,64.8 C49.88,66.31 53.39,70.28 54.56,80.79 C55.29,74.89 57.03,67.38 61.21,64.8 L47.34,64.8 Z" id="形狀" fill="#E37F45"></path>
            <path d="M75.7,101.12 L55.81,101.12 L55.81,100.2 C65.19,100.2 65.3,76.68 65.3,76.44 L66.22,76.44 C66.22,99.93 75.61,100.2 75.71,100.2 L75.71,101.12 L75.7,101.12 Z M59.05,100.21 L72.92,100.21 C70.38,98.7 66.87,94.73 65.7,84.22 C64.97,90.12 63.23,97.63 59.05,100.21 Z" id="形狀" fill="#E37F45"></path>
            <path d="M66.22,76.45 L65.3,76.45 C65.3,64.17 62.69,58.35 60.5,55.64 C58.18,52.76 55.83,52.7 55.81,52.7 L55.81,51.78 L75.7,51.78 L75.7,52.7 C66.33,52.69 66.22,76.21 66.22,76.45 Z M58.6,52.69 C61.14,54.2 64.65,58.17 65.82,68.68 C66.55,62.78 68.29,55.27 72.46,52.69 L58.6,52.69 L58.6,52.69 Z" id="形狀" fill="#E37F45"></path>
            <path d="M86.96,89.02 L67.07,89.02 L67.07,88.1 C76.45,88.1 76.56,64.58 76.56,64.34 L77.48,64.34 C77.48,87.83 86.87,88.1 86.97,88.1 L86.97,89.02 L86.96,89.02 Z M70.31,88.1 L84.18,88.1 C81.64,86.59 78.13,82.62 76.96,72.11 C76.23,78.01 74.49,85.52 70.31,88.1 Z" id="形狀" fill="#E37F45"></path>
            <path d="M77.48,64.34 L76.56,64.34 C76.56,52.06 73.95,46.24 71.76,43.53 C69.44,40.65 67.09,40.59 67.07,40.59 L67.07,39.67 L86.96,39.67 L86.96,40.59 C77.59,40.58 77.48,64.1 77.48,64.34 Z M69.86,40.58 C72.4,42.09 75.91,46.06 77.08,56.57 C77.81,50.67 79.55,43.16 83.72,40.58 L69.86,40.58 Z" id="形狀" fill="#E37F45"></path>
            <g id="群組" transform="translate(7.000000, 10.000000)" fill="#E37F45">
                <path d="M4.4,19.49 L0.83,19.49 L0.83,18.99 L1.51,18.99 L1.51,0.75 L0.83,0.75 L0.83,0.25 L3.71,0.25 L3.71,18.99 L4.39,18.99 L4.39,19.49 L4.4,19.49 Z M2.61,18.99 L2.61,0.75 L2.07,0.75 L2.07,18.99 L2.61,18.99 Z" id="形狀"></path>
                <path d="M12.2,16.82 C12.2,17.59 11.88,18.25 11.23,18.8 C10.58,19.35 9.81,19.62 8.9,19.62 C8,19.62 7.22,19.35 6.57,18.8 C5.92,18.25 5.6,17.59 5.6,16.82 L5.6,2.92 C5.6,2.15 5.92,1.49 6.57,0.94 C7.22,0.39 7.99,0.12 8.9,0.12 C9.81,0.12 10.59,0.39 11.23,0.94 C11.87,1.49 12.2,2.15 12.2,2.92 L12.2,16.82 Z M7.07,18.67 C6.83,18.32 6.71,17.88 6.71,17.34 L6.71,2.4 C6.71,1.87 6.83,1.43 7.07,1.09 C6.46,1.5 6.16,2.05 6.16,2.74 L6.16,17.02 C6.16,17.7 6.46,18.25 7.07,18.67 Z M10,18.02 L10,1.72 C10,1.42 9.89,1.16 9.68,0.94 C9.47,0.73 9.21,0.62 8.9,0.62 C8.6,0.62 8.34,0.73 8.12,0.94 C7.91,1.15 7.8,1.41 7.8,1.72 L7.8,18.03 C7.8,18.33 7.91,18.59 8.12,18.81 C8.33,19.02 8.59,19.13 8.9,19.13 C9.2,19.13 9.46,19.02 9.68,18.81 C9.9,18.6 10,18.33 10,18.02 Z M11.1,17.26 L11.1,2.48 C11.1,1.75 10.77,1.17 10.11,0.75 C10.41,1.09 10.55,1.54 10.55,2.1 L10.55,17.64 C10.55,18.19 10.4,18.64 10.11,18.98 C10.77,18.57 11.1,17.99 11.1,17.26 Z" id="形狀"></path>
            </g>
            <g id="群組" transform="translate(89.000000, 147.000000)" fill="#E37F45">
                <path d="M8.6,0.52 L12.17,0.52 L12.17,1.02 L11.49,1.02 L11.49,19.26 L12.17,19.26 L12.17,19.76 L9.29,19.76 L9.29,1.02 L8.6,1.02 L8.6,0.52 Z M10.38,1.01 L10.38,19.25 L10.93,19.25 L10.93,1.01 L10.38,1.01 Z" id="形狀"></path>
                <path d="M0.8,3.18 C0.8,2.41 1.12,1.75 1.77,1.2 C2.41,0.65 3.19,0.38 4.1,0.38 C5,0.38 5.78,0.65 6.43,1.2 C7.08,1.75 7.4,2.41 7.4,3.18 L7.4,17.07 C7.4,17.84 7.08,18.5 6.43,19.05 C5.78,19.6 5.01,19.87 4.1,19.87 C3.19,19.87 2.41,19.6 1.77,19.05 C1.13,18.5 0.8,17.84 0.8,17.07 L0.8,3.18 Z M1.9,2.74 L1.9,17.52 C1.9,18.25 2.23,18.83 2.89,19.25 C2.59,18.91 2.45,18.46 2.45,17.9 L2.45,2.36 C2.45,1.81 2.6,1.36 2.89,1.02 C2.23,1.43 1.9,2.01 1.9,2.74 Z M2.99,1.98 L2.99,18.29 C2.99,18.59 3.1,18.85 3.31,19.07 C3.52,19.28 3.78,19.39 4.09,19.39 C4.39,19.39 4.65,19.28 4.87,19.07 C5.08,18.86 5.19,18.6 5.19,18.29 L5.19,1.98 C5.19,1.68 5.08,1.42 4.87,1.2 C4.66,0.99 4.4,0.88 4.09,0.88 C3.79,0.88 3.53,0.99 3.31,1.2 C3.1,1.41 2.99,1.67 2.99,1.98 Z M5.93,1.33 C6.17,1.68 6.29,2.12 6.29,2.66 L6.29,17.6 C6.29,18.13 6.17,18.57 5.93,18.91 C6.54,18.5 6.84,17.95 6.84,17.26 L6.84,2.98 C6.84,2.3 6.54,1.75 5.93,1.33 Z" id="形狀"></path>
            </g>
            <path d="M11.86,46.15 C11.86,46.15 11.86,34.78 16.53,34.78 L7.19,34.78 C7.19,34.78 11.86,34.78 11.86,46.15 Z" id="路徑" fill="#E37F45"></path>
            <path d="M97.14,130.85 C97.14,130.85 97.14,142.22 92.47,142.22 L101.81,142.22 C101.81,142.22 97.14,142.22 97.14,130.85 Z" id="路徑" fill="#E37F45"></path>
        </g>
    </g>
</svg>