<?xml version="1.0" encoding="UTF-8"?>
<svg width="110px" height="177px" viewBox="0 0 110 177" version="1.1" xmlns="http://www.w3.org/2000/svg" xmlns:xlink="http://www.w3.org/1999/xlink">
    <!-- Generator: Sketch 55.1 (78136) - https://sketchapp.com -->
    <title>card-34copy</title>
    <desc>Created with Sketch.</desc>
    <g id="Page-1" stroke="none" stroke-width="1" fill="none" fill-rule="evenodd">
        <g id="card-34copy" fill-rule="nonzero">
            <path d="M96.02,0.26 L12.98,0.26 C5.84,0.26 0,6.1 0,13.24 L0,163.76 C0,170.9 5.84,176.74 12.98,176.74 L96.03,176.74 C103.17,176.74 109.01,170.9 109.01,163.76 L109.01,13.24 C109,6.1 103.16,0.26 96.02,0.26 Z" id="路徑" fill="#EBEBEB"></path>
            <path d="M44.14,106.07 L43.22,106.07 C43.22,89.21 33.28,88.96 32.86,88.96 L32.86,88.04 C43.1,88.04 43.22,71.1 43.22,70.93 L44.14,70.93 C44.14,87.84 54.4,88.04 54.5,88.04 L54.5,88.96 C44.26,88.96 44.14,105.89 44.14,106.07 Z M35.44,88.6 C38.24,89.63 42.48,92.54 43.76,100.78 C44.58,96.15 46.66,89.94 51.92,88.4 C49.12,87.37 44.88,84.46 43.6,76.22 C42.78,80.85 40.7,87.06 35.44,88.6 Z" id="形狀" fill="#E37F45"></path>
            <path d="M44.14,141.2 L43.22,141.2 C43.22,124.29 32.96,124.09 32.86,124.09 L32.86,123.17 C43.1,123.17 43.22,106.23 43.22,106.06 L44.14,106.06 C44.14,122.97 54.4,123.17 54.5,123.17 L54.5,124.09 C44.26,124.09 44.14,141.03 44.14,141.2 Z M35.44,123.73 C38.24,124.76 42.48,127.67 43.76,135.91 C44.58,131.28 46.66,125.07 51.92,123.53 C49.12,122.5 44.88,119.59 43.6,111.35 C42.78,115.98 40.7,122.19 35.44,123.73 Z" id="形狀" fill="#E37F45"></path>
            <path d="M44.14,70.93 L43.22,70.93 C43.22,54.02 32.96,53.82 32.86,53.82 L32.86,52.9 C43.1,52.9 43.22,35.96 43.22,35.79 L44.14,35.79 C44.14,52.7 54.4,52.9 54.5,52.9 L54.5,53.82 C44.26,53.83 44.14,70.76 44.14,70.93 Z M35.44,53.47 C38.24,54.5 42.48,57.41 43.76,65.65 C44.58,61.02 46.66,54.81 51.92,53.27 C49.12,52.24 44.88,49.33 43.6,41.09 C42.78,45.71 40.7,51.93 35.44,53.47 Z" id="形狀" fill="#E37F45"></path>
            <path d="M65.78,106.07 L64.86,106.07 C64.86,89.16 54.6,88.96 54.5,88.96 L54.5,88.04 C64.74,88.04 64.86,71.1 64.86,70.93 L65.78,70.93 C65.78,87.84 76.04,88.04 76.14,88.04 L76.14,88.96 C65.9,88.96 65.78,105.89 65.78,106.07 Z M57.08,88.6 C59.88,89.63 64.12,92.54 65.4,100.78 C66.22,96.15 68.3,89.94 73.56,88.4 C70.76,87.37 66.52,84.46 65.24,76.22 C64.42,80.85 62.34,87.06 57.08,88.6 Z" id="形狀" fill="#E37F45"></path>
            <path d="M54.96,88.5 L54.04,88.5 C54.04,71.59 43.78,71.39 43.68,71.39 L43.68,70.47 C53.92,70.47 54.04,53.54 54.04,53.36 L54.04,53.36 L54.96,53.36 C54.96,70.23 64.9,70.47 65.32,70.47 L65.32,71.39 C55.08,71.39 54.96,88.33 54.96,88.5 Z M46.26,71.04 C49.06,72.07 53.3,74.98 54.58,83.22 C55.4,78.59 57.48,72.38 62.74,70.84 C59.94,69.81 55.7,66.9 54.42,58.66 C53.6,63.28 51.52,69.5 46.26,71.04 Z" id="形狀" fill="#E37F45"></path>
            <path d="M54.96,123.63 L54.04,123.63 C54.04,106.72 43.78,106.52 43.68,106.52 L43.68,105.6 C53.92,105.6 54.04,88.66 54.04,88.49 L54.96,88.49 C54.96,105.4 65.22,105.6 65.32,105.6 L65.32,106.52 C55.08,106.52 54.96,123.46 54.96,123.63 Z M46.26,106.17 C49.06,107.2 53.3,110.11 54.58,118.35 C55.4,113.72 57.48,107.51 62.74,105.97 C59.94,104.94 55.7,102.03 54.42,93.79 C53.6,98.41 51.52,104.63 46.26,106.17 Z" id="形狀" fill="#E37F45"></path>
            <path d="M65.78,141.2 L64.86,141.2 C64.86,124.33 54.92,124.09 54.5,124.09 L54.5,123.17 C64.74,123.17 64.86,106.23 64.86,106.06 L65.78,106.06 C65.78,122.97 76.04,123.17 76.14,123.17 L76.14,124.09 C65.9,124.09 65.78,141.03 65.78,141.2 Z M57.08,123.73 C59.88,124.76 64.12,127.67 65.4,135.91 C66.22,131.28 68.3,125.07 73.56,123.53 C70.76,122.5 66.52,119.59 65.24,111.35 C64.42,115.98 62.34,122.19 57.08,123.73 Z" id="形狀" fill="#E37F45"></path>
            <path d="M65.78,70.93 L64.86,70.93 C64.86,54.06 54.92,53.82 54.5,53.82 L54.5,52.9 C64.74,52.9 64.86,35.96 64.86,35.79 L65.78,35.79 C65.78,52.7 76.04,52.9 76.14,52.9 L76.14,53.82 C65.9,53.83 65.78,70.76 65.78,70.93 Z M57.08,53.47 C59.88,54.5 64.12,57.41 65.4,65.65 C66.22,61.02 68.3,54.81 73.56,53.27 C70.76,52.24 66.52,49.33 65.24,41.09 C64.42,45.71 62.34,51.93 57.08,53.47 Z" id="形狀" fill="#E37F45"></path>
            <path d="M15.16,26.82 C15.16,27.59 14.84,28.25 14.19,28.8 C13.54,29.35 12.77,29.62 11.86,29.62 C10.96,29.62 10.18,29.35 9.53,28.8 C8.88,28.25 8.56,27.59 8.56,26.82 L8.56,21.88 C8.56,20.71 9.2,19.85 10.49,19.32 C9.2,18.82 8.56,17.97 8.56,16.77 L8.56,12.92 C8.56,12.15 8.88,11.49 9.53,10.94 C10.18,10.39 10.95,10.12 11.86,10.12 C12.77,10.12 13.55,10.39 14.19,10.94 C14.83,11.49 15.16,12.15 15.16,12.92 L15.16,16.77 C15.16,17.97 14.52,18.82 13.24,19.32 C14.52,19.86 15.16,20.71 15.16,21.88 L15.16,26.82 Z M10.1,18.61 C9.8,18.27 9.66,17.79 9.66,17.17 L9.66,12.4 C9.66,11.87 9.78,11.43 10.02,11.09 C9.41,11.5 9.11,12.05 9.11,12.74 L9.11,16.8 C9.11,17.59 9.44,18.19 10.1,18.61 Z M10.1,20.03 C9.44,20.45 9.11,21.06 9.11,21.85 L9.11,27.01 C9.11,27.69 9.41,28.24 10.02,28.66 C9.78,28.31 9.66,27.87 9.66,27.33 L9.66,21.46 C9.66,20.85 9.81,20.37 10.1,20.03 Z M12.96,17.98 L12.96,11.72 C12.96,11.42 12.85,11.16 12.64,10.94 C12.43,10.73 12.17,10.62 11.86,10.62 C11.55,10.62 11.3,10.73 11.08,10.94 C10.87,11.15 10.76,11.41 10.76,11.72 L10.76,17.98 C10.76,18.28 10.87,18.54 11.08,18.76 C11.29,18.97 11.55,19.08 11.86,19.08 C12.17,19.08 12.42,18.97 12.64,18.76 C12.85,18.54 12.96,18.28 12.96,17.98 Z M12.96,28.02 L12.96,20.67 C12.96,20.37 12.85,20.11 12.64,19.89 C12.43,19.68 12.17,19.57 11.86,19.57 C11.55,19.57 11.3,19.68 11.08,19.89 C10.87,20.1 10.76,20.36 10.76,20.67 L10.76,28.02 C10.76,28.32 10.87,28.58 11.08,28.8 C11.29,29.01 11.55,29.12 11.86,29.12 C12.17,29.12 12.42,29.01 12.64,28.8 C12.85,28.59 12.96,28.33 12.96,28.02 Z M14.06,17.21 L14.06,12.48 C14.06,11.75 13.73,11.17 13.07,10.75 C13.37,11.09 13.51,11.54 13.51,12.1 L13.51,17.59 C13.51,18.15 13.36,18.6 13.07,18.94 C13.73,18.52 14.06,17.95 14.06,17.21 Z M14.06,27.26 L14.06,21.44 C14.06,20.71 13.73,20.13 13.07,19.71 C13.37,20.05 13.51,20.5 13.51,21.05 L13.51,27.65 C13.51,28.2 13.36,28.65 13.07,28.99 C13.73,28.57 14.06,27.99 14.06,27.26 Z" id="形狀" fill="#E37F45"></path>
            <path d="M93.84,150.18 C93.84,149.41 94.16,148.75 94.81,148.2 C95.45,147.65 96.23,147.38 97.14,147.38 C98.04,147.38 98.82,147.65 99.47,148.2 C100.12,148.75 100.44,149.41 100.44,150.18 L100.44,155.12 C100.44,156.29 99.8,157.15 98.51,157.68 C99.8,158.18 100.44,159.03 100.44,160.23 L100.44,164.08 C100.44,164.85 100.12,165.51 99.47,166.06 C98.82,166.61 98.05,166.88 97.14,166.88 C96.23,166.88 95.45,166.61 94.81,166.06 C94.17,165.51 93.84,164.85 93.84,164.08 L93.84,160.23 C93.84,159.03 94.48,158.18 95.76,157.68 C94.48,157.14 93.84,156.29 93.84,155.12 L93.84,150.18 Z M94.94,149.74 L94.94,155.56 C94.94,156.29 95.27,156.87 95.93,157.29 C95.63,156.95 95.49,156.5 95.49,155.95 L95.49,149.35 C95.49,148.8 95.64,148.35 95.93,148.01 C95.27,148.43 94.94,149.01 94.94,149.74 Z M94.94,159.79 L94.94,164.52 C94.94,165.25 95.27,165.83 95.93,166.25 C95.63,165.91 95.49,165.46 95.49,164.9 L95.49,159.41 C95.49,158.85 95.64,158.4 95.93,158.06 C95.27,158.48 94.94,159.05 94.94,159.79 Z M96.04,148.98 L96.04,156.33 C96.04,156.63 96.15,156.89 96.36,157.11 C96.57,157.32 96.83,157.43 97.14,157.43 C97.45,157.43 97.7,157.32 97.92,157.11 C98.13,156.9 98.24,156.64 98.24,156.33 L98.24,148.98 C98.24,148.68 98.13,148.42 97.92,148.2 C97.71,147.99 97.45,147.88 97.14,147.88 C96.83,147.88 96.58,147.99 96.36,148.2 C96.15,148.41 96.04,148.67 96.04,148.98 Z M96.04,159.02 L96.04,165.28 C96.04,165.58 96.15,165.84 96.36,166.06 C96.57,166.27 96.83,166.38 97.14,166.38 C97.45,166.38 97.7,166.27 97.92,166.06 C98.13,165.85 98.24,165.59 98.24,165.28 L98.24,159.02 C98.24,158.72 98.13,158.46 97.92,158.24 C97.71,158.03 97.45,157.92 97.14,157.92 C96.83,157.92 96.58,158.03 96.36,158.24 C96.15,158.46 96.04,158.72 96.04,159.02 Z M98.9,156.97 C99.56,156.55 99.89,155.94 99.89,155.15 L99.89,149.99 C99.89,149.31 99.59,148.76 98.98,148.34 C99.22,148.69 99.34,149.13 99.34,149.67 L99.34,155.54 C99.34,156.15 99.19,156.63 98.9,156.97 Z M98.9,158.39 C99.2,158.73 99.34,159.21 99.34,159.82 L99.34,164.59 C99.34,165.12 99.22,165.56 98.98,165.9 C99.59,165.49 99.89,164.94 99.89,164.25 L99.89,160.19 C99.89,159.42 99.56,158.81 98.9,158.39 Z" id="形狀" fill="#E37F45"></path>
            <path d="M11.86,31.91 C11.86,31.91 11.86,39.49 7.19,39.49 C7.19,39.49 11.86,39.49 11.86,47.07 C11.86,47.07 11.86,39.49 16.53,39.49 C16.53,39.49 11.86,39.49 11.86,31.91 Z" id="路徑" fill="#E37F45"></path>
            <path d="M97.14,145.09 C97.14,145.09 97.14,137.51 101.81,137.51 C101.81,137.51 97.14,137.51 97.14,129.93 C97.14,129.93 97.14,137.51 92.47,137.51 C92.47,137.51 97.14,137.51 97.14,145.09 Z" id="路徑" fill="#E37F45"></path>
        </g>
    </g>
</svg>