<?xml version="1.0" encoding="UTF-8"?>
<svg width="110px" height="177px" viewBox="0 0 110 177" version="1.1" xmlns="http://www.w3.org/2000/svg" xmlns:xlink="http://www.w3.org/1999/xlink">
    <!-- Generator: Sketch 55.1 (78136) - https://sketchapp.com -->
    <title>card-18copy</title>
    <desc>Created with Sketch.</desc>
    <g id="Page-1" stroke="none" stroke-width="1" fill="none" fill-rule="evenodd">
        <g id="card-18copy" fill-rule="nonzero">
            <path d="M96.02,0.26 L12.98,0.26 C5.84,0.26 0,6.1 0,13.24 L0,163.76 C0,170.9 5.84,176.74 12.98,176.74 L96.03,176.74 C103.17,176.74 109.01,170.9 109.01,163.76 L109.01,13.24 C109,6.1 103.16,0.26 96.02,0.26 Z" id="路徑" fill="#EBEBEB"></path>
            <path d="M54.96,136.69 L54.04,136.69 C54.04,111.09 43.78,110.8 43.68,110.8 L43.68,109.88 L65.32,109.88 L65.32,110.8 C55.08,110.8 54.96,136.43 54.96,136.69 Z M46.56,110.8 C49.35,112.39 53.31,116.73 54.56,128.58 C55.33,122.06 57.23,113.57 61.94,110.8 L46.56,110.8 L46.56,110.8 Z" id="形狀" fill="#E37F45"></path>
            <path d="M33.32,66.66 L32.4,66.66 C32.4,41.18 22.14,40.77 22.03,40.77 L22.03,39.85 L43.67,39.85 L43.67,40.77 C33.44,40.77 33.32,66.4 33.32,66.66 Z M24.92,40.77 C27.71,42.36 31.67,46.7 32.92,58.55 C33.69,52.03 35.59,43.54 40.3,40.77 L24.92,40.77 Z" id="形狀" fill="#E37F45"></path>
            <path d="M76.6,66.66 L75.68,66.66 C75.68,41.18 65.42,40.77 65.31,40.77 L65.31,39.85 L86.95,39.85 L86.95,40.77 C76.72,40.77 76.6,66.4 76.6,66.66 Z M68.2,40.77 C70.99,42.36 74.95,46.7 76.2,58.55 C76.97,52.03 78.87,43.54 83.58,40.77 L68.2,40.77 Z" id="形狀" fill="#E37F45"></path>
            <path d="M44.14,101.67 L43.22,101.67 C43.22,76.07 32.96,75.78 32.86,75.78 L32.86,74.86 L54.5,74.86 L54.5,75.78 C44.26,75.78 44.14,101.42 44.14,101.67 Z M35.74,75.78 C38.53,77.37 42.49,81.71 43.74,93.56 C44.51,87.04 46.41,78.55 51.12,75.78 L35.74,75.78 Z" id="形狀" fill="#E37F45"></path>
            <path d="M65.78,101.67 L64.86,101.67 C64.86,76.07 54.6,75.78 54.5,75.78 L54.5,74.86 L76.14,74.86 L76.14,75.78 C65.9,75.78 65.78,101.42 65.78,101.67 Z M57.38,75.78 C60.17,77.37 64.13,81.71 65.38,93.56 C66.15,87.04 68.05,78.55 72.76,75.78 L57.38,75.78 Z" id="形狀" fill="#E37F45"></path>
            <path d="M15.16,26.82 C15.16,27.59 14.84,28.25 14.19,28.8 C13.55,29.35 12.77,29.62 11.86,29.62 C10.96,29.62 10.18,29.35 9.53,28.8 C8.88,28.25 8.56,27.59 8.56,26.82 L8.56,23.72 L10.76,23.72 L10.76,28.03 C10.76,28.33 10.87,28.59 11.08,28.81 C11.29,29.02 11.55,29.13 11.86,29.13 C12.17,29.13 12.42,29.02 12.64,28.81 C12.85,28.6 12.96,28.34 12.96,28.03 L12.96,20.68 C12.96,20.38 12.85,20.12 12.64,19.9 C12.43,19.69 12.17,19.58 11.86,19.58 L8.71,19.58 L8.71,10.26 L14.88,10.26 L14.88,16.03 L12.69,16.03 L12.69,10.76 L10.91,10.76 L10.91,19.09 L11.86,19.09 C12.77,19.09 13.55,19.36 14.19,19.91 C14.83,20.46 15.16,21.12 15.16,21.89 L15.16,26.82 L15.16,26.82 Z M10.02,28.67 C9.78,28.32 9.66,27.88 9.66,27.34 L9.66,24.22 L9.11,24.22 L9.11,27.02 C9.11,27.7 9.42,28.25 10.02,28.67 Z M9.81,19.08 L9.81,10.75 L9.26,10.75 L9.26,19.08 L9.81,19.08 Z M14.06,27.26 L14.06,21.44 C14.06,20.71 13.73,20.13 13.07,19.71 C13.37,20.05 13.51,20.5 13.51,21.05 L13.51,27.65 C13.51,28.2 13.36,28.65 13.07,28.99 C13.73,28.57 14.06,27.99 14.06,27.26 Z M13.79,15.54 L13.79,10.75 L13.24,10.75 L13.24,15.54 L13.79,15.54 Z" id="形狀" fill="#E37F45"></path>
            <path d="M93.84,150.18 C93.84,149.41 94.16,148.75 94.81,148.2 C95.45,147.65 96.23,147.38 97.14,147.38 C98.04,147.38 98.82,147.65 99.47,148.2 C100.12,148.75 100.44,149.41 100.44,150.18 L100.44,153.28 L98.24,153.28 L98.24,148.97 C98.24,148.67 98.13,148.41 97.92,148.19 C97.71,147.98 97.45,147.87 97.14,147.87 C96.83,147.87 96.58,147.98 96.36,148.19 C96.15,148.4 96.04,148.66 96.04,148.97 L96.04,156.32 C96.04,156.62 96.15,156.88 96.36,157.1 C96.57,157.31 96.83,157.42 97.14,157.42 L100.29,157.42 L100.29,166.74 L94.12,166.74 L94.12,160.97 L96.31,160.97 L96.31,166.24 L98.09,166.24 L98.09,157.91 L97.14,157.91 C96.23,157.91 95.45,157.64 94.81,157.09 C94.17,156.54 93.84,155.88 93.84,155.11 L93.84,150.18 Z M94.94,149.74 L94.94,155.56 C94.94,156.29 95.27,156.87 95.93,157.29 C95.63,156.95 95.49,156.5 95.49,155.95 L95.49,149.35 C95.49,148.8 95.64,148.35 95.93,148.01 C95.27,148.43 94.94,149.01 94.94,149.74 Z M95.21,161.46 L95.21,166.25 L95.76,166.25 L95.76,161.46 L95.21,161.46 Z M98.98,148.33 C99.22,148.68 99.34,149.12 99.34,149.66 L99.34,152.78 L99.89,152.78 L99.89,149.98 C99.89,149.3 99.58,148.75 98.98,148.33 Z M99.19,157.92 L99.19,166.25 L99.74,166.25 L99.74,157.92 L99.19,157.92 Z" id="形狀" fill="#E37F45"></path>
            <path d="M11.86,46.15 C11.86,46.15 11.86,34.78 16.53,34.78 L7.19,34.78 C7.19,34.78 11.86,34.78 11.86,46.15 Z" id="路徑" fill="#E37F45"></path>
            <path d="M97.14,130.85 C97.14,130.85 97.14,142.22 92.47,142.22 L101.81,142.22 C101.81,142.22 97.14,142.22 97.14,130.85 Z" id="路徑" fill="#E37F45"></path>
        </g>
    </g>
</svg>