<?xml version="1.0" encoding="UTF-8"?>
<svg width="110px" height="177px" viewBox="0 0 110 177" version="1.1" xmlns="http://www.w3.org/2000/svg" xmlns:xlink="http://www.w3.org/1999/xlink">
    <!-- Generator: Sketch 55.1 (78136) - https://sketchapp.com -->
    <title>card-05copy</title>
    <desc>Created with Sketch.</desc>
    <g id="Page-1" stroke="none" stroke-width="1" fill="none" fill-rule="evenodd">
        <g id="card-05copy" fill-rule="nonzero">
            <path d="M96.02,0.26 L12.98,0.26 C5.84,0.26 0,6.1 0,13.24 L0,163.76 C0,170.9 5.84,176.74 12.98,176.74 L96.03,176.74 C103.17,176.74 109.01,170.9 109.01,163.76 L109.01,13.24 C109,6.1 103.16,0.26 96.02,0.26 Z" id="路徑" fill="#EBEBEB"></path>
            <path d="M15.16,26.82 C15.16,27.59 14.84,28.25 14.19,28.8 C13.55,29.35 12.77,29.62 11.86,29.62 C10.96,29.62 10.18,29.35 9.53,28.8 C8.88,28.25 8.56,27.59 8.56,26.82 L8.56,23.72 L10.76,23.72 L10.76,28.03 C10.76,28.33 10.87,28.59 11.08,28.81 C11.29,29.02 11.55,29.13 11.86,29.13 C12.17,29.13 12.42,29.02 12.64,28.81 C12.85,28.6 12.96,28.34 12.96,28.03 L12.96,20.68 C12.96,20.38 12.85,20.12 12.64,19.9 C12.43,19.69 12.17,19.58 11.86,19.58 L8.71,19.58 L8.71,10.26 L14.88,10.26 L14.88,16.03 L12.69,16.03 L12.69,10.76 L10.91,10.76 L10.91,19.09 L11.86,19.09 C12.77,19.09 13.55,19.36 14.19,19.91 C14.83,20.46 15.16,21.12 15.16,21.89 L15.16,26.82 L15.16,26.82 Z M10.02,28.67 C9.78,28.32 9.66,27.88 9.66,27.34 L9.66,24.22 L9.11,24.22 L9.11,27.02 C9.11,27.7 9.42,28.25 10.02,28.67 Z M9.81,19.08 L9.81,10.75 L9.26,10.75 L9.26,19.08 L9.81,19.08 Z M14.06,27.26 L14.06,21.44 C14.06,20.71 13.73,20.13 13.07,19.71 C13.37,20.05 13.51,20.5 13.51,21.05 L13.51,27.65 C13.51,28.2 13.36,28.65 13.07,28.99 C13.73,28.57 14.06,27.99 14.06,27.26 Z M13.79,15.54 L13.79,10.75 L13.24,10.75 L13.24,15.54 L13.79,15.54 Z" id="形狀" fill="#1D4764"></path>
            <path d="M93.84,150.18 C93.84,149.41 94.16,148.75 94.81,148.2 C95.45,147.65 96.23,147.38 97.14,147.38 C98.04,147.38 98.82,147.65 99.47,148.2 C100.12,148.75 100.44,149.41 100.44,150.18 L100.44,153.28 L98.24,153.28 L98.24,148.97 C98.24,148.67 98.13,148.41 97.92,148.19 C97.71,147.98 97.45,147.87 97.14,147.87 C96.84,147.87 96.58,147.98 96.36,148.19 C96.15,148.4 96.04,148.66 96.04,148.97 L96.04,156.32 C96.04,156.62 96.15,156.88 96.36,157.1 C96.57,157.31 96.83,157.42 97.14,157.42 L100.29,157.42 L100.29,166.74 L94.12,166.74 L94.12,160.97 L96.31,160.97 L96.31,166.24 L98.09,166.24 L98.09,157.91 L97.14,157.91 C96.23,157.91 95.45,157.64 94.81,157.09 C94.17,156.54 93.84,155.88 93.84,155.11 L93.84,150.18 Z M94.94,149.74 L94.94,155.56 C94.94,156.29 95.27,156.87 95.93,157.29 C95.63,156.95 95.49,156.5 95.49,155.95 L95.49,149.35 C95.49,148.8 95.64,148.35 95.93,148.01 C95.27,148.43 94.94,149.01 94.94,149.74 Z M95.21,161.46 L95.21,166.25 L95.76,166.25 L95.76,161.46 L95.21,161.46 Z M98.98,148.33 C99.22,148.68 99.34,149.12 99.34,149.66 L99.34,152.78 L99.89,152.78 L99.89,149.98 C99.89,149.3 99.58,148.75 98.98,148.33 Z M99.19,157.92 L99.19,166.25 L99.74,166.25 L99.74,157.92 L99.19,157.92 Z" id="形狀" fill="#1D4764"></path>
            <path d="M16.07,40.4 C16.07,38.08 14.18,36.19 11.86,36.19 C9.54,36.19 7.65,38.08 7.65,40.4 C7.65,42.72 9.54,44.61 11.86,44.61 C14.18,44.61 16.07,42.72 16.07,40.4 Z" id="路徑" fill="#1D4764"></path>
            <path d="M97.14,132.39 C94.82,132.39 92.93,134.28 92.93,136.6 C92.93,138.92 94.82,140.81 97.14,140.81 C99.46,140.81 101.35,138.92 101.35,136.6 C101.35,134.27 99.46,132.39 97.14,132.39 Z" id="路徑" fill="#1D4764"></path>
            <path d="M71.47,44.38 C68.59,37.86 62.08,33.29 54.5,33.29 C44.28,33.29 35.96,41.61 35.96,51.83 C35.96,57.69 38.7,62.92 42.96,66.32 C38.7,69.72 35.96,74.95 35.96,80.81 C35.96,80.82 35.96,80.83 35.96,80.84 C27.74,82.74 21.58,90.1 21.58,98.89 C21.58,108.23 28.53,115.96 37.53,117.23 C40.41,123.75 46.92,128.32 54.5,128.32 C64.72,128.32 73.04,120 73.04,109.78 C73.04,103.92 70.3,98.69 66.04,95.29 C70.3,91.89 73.04,86.66 73.04,80.8 C73.04,80.79 73.04,80.78 73.04,80.77 C81.26,78.87 87.42,71.51 87.42,62.72 C87.42,53.37 80.47,45.64 71.47,44.38 Z M72.13,80.8 C72.13,90.52 64.22,98.43 54.5,98.43 C44.78,98.43 36.87,90.52 36.87,80.8 C36.87,71.08 44.78,63.17 54.5,63.17 C64.22,63.17 72.13,71.08 72.13,80.8 Z M54.5,127.4 C47.49,127.4 41.45,123.28 38.61,117.35 C39.11,117.39 39.61,117.43 40.13,117.43 C50.35,117.43 58.67,109.11 58.67,98.89 C58.67,98.88 58.67,98.87 58.67,98.86 C61.09,98.3 63.33,97.27 65.28,95.86 C69.44,99.09 72.13,104.12 72.13,109.78 C72.13,119.5 64.22,127.4 54.5,127.4 Z M54.5,99.34 C55.61,99.34 56.69,99.22 57.74,99.04 C57.66,108.69 49.79,116.51 40.12,116.51 C30.4,116.51 22.49,108.6 22.49,98.88 C22.49,90.58 28.26,83.62 36,81.76 C36.51,91.54 44.6,99.34 54.5,99.34 Z M70.39,44.25 C69.89,44.21 69.39,44.17 68.87,44.17 C58.65,44.17 50.33,52.49 50.33,62.71 C50.33,62.72 50.33,62.73 50.33,62.74 C47.91,63.3 45.67,64.33 43.72,65.73 C39.56,62.5 36.87,57.47 36.87,51.81 C36.87,42.09 44.78,34.18 54.5,34.18 C61.51,34.2 67.55,38.32 70.39,44.25 Z M54.5,62.26 C53.39,62.26 52.31,62.38 51.26,62.56 C51.34,52.91 59.21,45.09 68.88,45.09 C78.6,45.09 86.51,53 86.51,62.72 C86.51,71.02 80.74,77.98 73,79.84 C72.49,70.06 64.4,62.26 54.5,62.26 Z" id="形狀" fill="#1D4764"></path>
            <path d="M54.96,131.21 L54.04,131.21 C54.04,131.29 53.98,139.69 48.99,139.69 L48.99,140.61 L60.01,140.61 L60.01,139.69 C59.8,139.69 54.96,139.55 54.96,131.21 Z M57.41,139.69 L51.84,139.69 C53.27,138.62 54.04,136.77 54.46,135.07 C55.08,137.57 56.29,138.94 57.41,139.69 Z" id="形狀" fill="#1D4764"></path>
        </g>
    </g>
</svg>