<?xml version="1.0" encoding="UTF-8"?>
<svg width="110px" height="177px" viewBox="0 0 110 177" version="1.1" xmlns="http://www.w3.org/2000/svg" xmlns:xlink="http://www.w3.org/1999/xlink">
    <!-- Generator: Sketch 55.1 (78136) - https://sketchapp.com -->
    <title>card-46copy</title>
    <desc>Created with Sketch.</desc>
    <g id="Page-1" stroke="none" stroke-width="1" fill="none" fill-rule="evenodd">
        <g id="card-46copy" fill-rule="nonzero">
            <path d="M96.02,0.26 L12.98,0.26 C5.84,0.26 0,6.1 0,13.24 L0,163.76 C0,170.9 5.84,176.74 12.98,176.74 L96.03,176.74 C103.17,176.74 109.01,170.9 109.01,163.76 L109.01,13.24 C109,6.1 103.16,0.26 96.02,0.26 Z" id="路徑" fill="#EBEBEB"></path>
            <g id="群組" transform="translate(21.000000, 61.000000)" fill="#1D4764">
                <path d="M6.64,68.95 C3.46,68.95 0.87,66.36 0.87,63.18 C0.87,60 3.46,57.41 6.64,57.41 C9.82,57.41 12.41,60 12.41,63.18 C12.41,66.36 9.82,68.95 6.64,68.95 Z M6.64,58.32 C3.96,58.32 1.79,60.5 1.79,63.17 C1.79,65.85 3.97,68.02 6.64,68.02 C9.31,68.02 11.49,65.84 11.49,63.17 C11.49,60.5 9.32,58.32 6.64,58.32 Z" id="形狀"></path>
                <path d="M17.26,68.95 C14.08,68.95 11.49,66.36 11.49,63.18 C11.49,60 14.08,57.41 17.26,57.41 C20.44,57.41 23.03,60 23.03,63.18 C23.03,66.36 20.45,68.95 17.26,68.95 Z M17.26,58.32 C14.58,58.32 12.41,60.5 12.41,63.17 C12.41,65.85 14.59,68.02 17.26,68.02 C19.94,68.02 22.1100343,65.84 22.1100343,63.17 C22.12,60.5 19.94,58.32 17.26,58.32 Z" id="形狀"></path>
                <path d="M11.95,59.74 C8.77,59.74 6.18,57.15 6.18,53.97 C6.18,50.79 8.77,48.2 11.95,48.2 C15.13,48.2 17.72,50.79 17.72,53.97 C17.72,57.15 15.13,59.74 11.95,59.74 Z M11.95,49.11 C9.27,49.11 7.1,51.29 7.1,53.96 C7.1,56.63 9.28,58.81 11.95,58.81 C14.63,58.81 16.8,56.63 16.8,53.96 C16.8,51.29 14.63,49.11 11.95,49.11 Z" id="形狀"></path>
                <path d="M6.64,45.15 C3.46,45.15 0.87,42.56 0.87,39.38 C0.87,36.2 3.46,33.61 6.64,33.61 C9.82,33.61 12.41,36.2 12.41,39.38 C12.41,42.56 9.82,45.15 6.64,45.15 Z M6.64,34.52 C3.96,34.52 1.79,36.7 1.79,39.37 C1.79,42.04 3.97,44.22 6.64,44.22 C9.31,44.22 11.49,42.04 11.49,39.37 C11.49,36.7 9.32,34.52 6.64,34.52 Z" id="形狀"></path>
                <path d="M17.26,45.15 C14.08,45.15 11.49,42.56 11.49,39.38 C11.49,36.2 14.08,33.61 17.26,33.61 C20.44,33.61 23.03,36.2 23.03,39.38 C23.03,42.56 20.45,45.15 17.26,45.15 Z M17.26,34.52 C14.58,34.52 12.41,36.7 12.41,39.37 C12.41,42.04 14.59,44.22 17.26,44.22 C19.94,44.22 22.11,42.04 22.11,39.37 C22.11,36.7 19.94,34.52 17.26,34.52 Z" id="形狀"></path>
                <path d="M11.95,35.94 C8.77,35.94 6.18,33.35 6.18,30.17 C6.18,26.99 8.77,24.4 11.95,24.4 C15.13,24.4 17.72,26.99 17.72,30.17 C17.72,33.35 15.13,35.94 11.95,35.94 Z M11.95,25.31 C9.27,25.31 7.1,27.49 7.1,30.16 C7.1,32.83 9.28,35.01 11.95,35.01 C14.63,35.01 16.8,32.83 16.8,30.16 C16.8,27.49 14.63,25.31 11.95,25.31 Z" id="形狀"></path>
                <path d="M19.16,80.66 L4.74,80.66 L4.74,79.74 C11.42,79.74 11.5,68.6 11.5,68.49 L12.42,68.49 C12.42,79.57 18.9,79.74 19.18,79.74 L19.16,80.66 Z M8.02,79.74 L16.21,79.74 C15.9,79.56 15.59,79.35 15.27,79.09 C14.02,78.08 12.6,76.23 11.91,72.92 C11.38,75.41 10.28,78.3 8.02,79.74 Z" id="形狀"></path>
                <path d="M6.64,21.35 C3.46,21.35 0.87,18.76 0.87,15.58 C0.87,12.4 3.46,9.81 6.64,9.81 C9.82,9.81 12.41,12.4 12.41,15.58 C12.41,18.76 9.82,21.35 6.64,21.35 Z M6.64,10.72 C3.96,10.72 1.79,12.9 1.79,15.57 C1.79,18.24 3.97,20.42 6.64,20.42 C9.31,20.42 11.49,18.24 11.49,15.57 C11.49,12.9 9.32,10.72 6.64,10.72 Z" id="形狀"></path>
                <path d="M17.26,21.35 C14.08,21.35 11.49,18.76 11.49,15.58 C11.49,12.4 14.08,9.81 17.26,9.81 C20.44,9.81 23.03,12.4 23.03,15.58 C23.03,18.76 20.45,21.35 17.26,21.35 Z M17.26,10.72 C14.58,10.72 12.41,12.9 12.41,15.57 C12.41,18.24 14.59,20.42 17.26,20.42 C19.94,20.42 22.11,18.24 22.11,15.57 C22.11,12.9 19.94,10.72 17.26,10.72 Z" id="形狀"></path>
                <path d="M11.95,12.14 C8.77,12.14 6.18,9.55 6.18,6.37 C6.18,3.19 8.77,0.6 11.95,0.6 C15.13,0.6 17.72,3.19 17.72,6.37 C17.72,9.55 15.13,12.14 11.95,12.14 Z M11.95,1.51 C9.27,1.51 7.1,3.69 7.1,6.36 C7.1,9.03 9.28,11.21 11.95,11.21 C14.63,11.21 16.8,9.03 16.8,6.36 C16.8,3.69 14.63,1.51 11.95,1.51 Z" id="形狀"></path>
            </g>
            <g id="群組" transform="translate(43.000000, 35.000000)" fill="#1D4764">
                <path d="M6.33,21.09 C3.15,21.09 0.56,18.5 0.56,15.32 C0.56,12.14 3.15,9.55 6.33,9.55 C9.51,9.55 12.1,12.14 12.1,15.32 C12.1,18.5 9.51,21.09 6.33,21.09 Z M6.33,10.47 C3.65,10.47 1.48,12.65 1.48,15.32 C1.48,17.99 3.66,20.17 6.33,20.17 C9,20.17 11.18,17.99 11.18,15.32 C11.18,12.65 9.01,10.47 6.33,10.47 Z" id="形狀"></path>
                <path d="M16.96,21.09 C13.78,21.09 11.19,18.5 11.19,15.32 C11.19,12.14 13.78,9.55 16.96,9.55 C20.14,9.55 22.73,12.14 22.73,15.32 C22.73,18.5 20.14,21.09 16.96,21.09 Z M16.96,10.47 C14.28,10.47 12.11,12.65 12.11,15.32 C12.11,17.99 14.29,20.17 16.96,20.17 C19.64,20.17 21.81,17.99 21.81,15.32 C21.81,12.65 19.63,10.47 16.96,10.47 Z" id="形狀"></path>
                <path d="M11.64,11.88 C8.46,11.88 5.87,9.29 5.87,6.11 C5.87,2.93 8.46,0.34 11.64,0.34 C14.82,0.34 17.41,2.93 17.41,6.11 C17.41,9.29 14.83,11.88 11.64,11.88 Z M11.64,1.26 C8.96,1.26 6.79,3.44 6.79,6.11 C6.79,8.78 8.97,10.96 11.64,10.96 C14.31,10.96 16.49,8.78 16.49,6.11 C16.49,3.44 14.32,1.26 11.64,1.26 Z" id="形狀"></path>
                <path d="M18.86,32.8 L4.43,32.8 L4.43,31.88 C11.1,31.88 11.18,20.74 11.18,20.63 L12.1,20.63 C12.1,31.75 18.79,31.88 18.86,31.88 L18.86,32.8 Z M7.71,31.89 L15.9,31.89 C15.59,31.71 15.28,31.5 14.96,31.24 C13.71,30.23 12.29,28.38 11.6,25.07 C11.07,27.55 9.97,30.44 7.71,31.89 Z" id="形狀"></path>
            </g>
            <g id="群組" transform="translate(65.000000, 61.000000)" fill="#1D4764">
                <path d="M6.03,68.95 C2.85,68.95 0.26,66.36 0.26,63.18 C0.26,60 2.85,57.41 6.03,57.41 C9.21,57.41 11.8,60 11.8,63.18 C11.8,66.36 9.21,68.95 6.03,68.95 Z M6.03,58.32 C3.35,58.32 1.18,60.5 1.18,63.17 C1.18,65.85 3.36,68.02 6.03,68.02 C8.7,68.02 10.88,65.84 10.88,63.17 C10.88,60.5 8.7,58.32 6.03,58.32 Z" id="形狀"></path>
                <path d="M16.65,68.95 C13.47,68.95 10.88,66.36 10.88,63.18 C10.88,60 13.47,57.41 16.65,57.41 C19.83,57.41 22.42,60 22.42,63.18 C22.42,66.36 19.83,68.95 16.65,68.95 Z M16.65,58.32 C13.97,58.32 11.8,60.5 11.8,63.17 C11.8,65.85 13.98,68.02 16.65,68.02 C19.33,68.02 21.5,65.84 21.5,63.17 C21.5,60.5 19.33,58.32 16.65,58.32 Z" id="形狀"></path>
                <path d="M11.34,59.74 C8.16,59.74 5.57,57.15 5.57,53.97 C5.57,50.79 8.16,48.2 11.34,48.2 C14.52,48.2 17.11,50.79 17.11,53.97 C17.11,57.15 14.52,59.74 11.34,59.74 Z M11.34,49.11 C8.66,49.11 6.49,51.29 6.49,53.96 C6.49,56.63 8.67,58.81 11.34,58.81 C14.02,58.81 16.19,56.63 16.19,53.96 C16.19,51.29 14.01,49.11 11.34,49.11 Z" id="形狀"></path>
                <path d="M6.03,45.15 C2.85,45.15 0.26,42.56 0.26,39.38 C0.26,36.2 2.85,33.61 6.03,33.61 C9.21,33.61 11.8,36.2 11.8,39.38 C11.8,42.56 9.21,45.15 6.03,45.15 Z M6.03,34.52 C3.35,34.52 1.18,36.7 1.18,39.37 C1.18,42.04 3.36,44.22 6.03,44.22 C8.7,44.22 10.88,42.04 10.88,39.37 C10.88,36.7 8.7,34.52 6.03,34.52 Z" id="形狀"></path>
                <path d="M16.65,45.15 C13.47,45.15 10.88,42.56 10.88,39.38 C10.88,36.2 13.47,33.61 16.65,33.61 C19.83,33.61 22.42,36.2 22.42,39.38 C22.42,42.56 19.83,45.15 16.65,45.15 Z M16.65,34.52 C13.97,34.52 11.8,36.7 11.8,39.37 C11.8,42.04 13.98,44.22 16.65,44.22 C19.33,44.22 21.5,42.04 21.5,39.37 C21.5,36.7 19.33,34.52 16.65,34.52 Z" id="形狀"></path>
                <path d="M11.34,35.94 C8.16,35.94 5.57,33.35 5.57,30.17 C5.57,26.99 8.16,24.4 11.34,24.4 C14.52,24.4 17.11,26.99 17.11,30.17 C17.11,33.35 14.52,35.94 11.34,35.94 Z M11.34,25.31 C8.66,25.31 6.49,27.49 6.49,30.16 C6.49,32.83 8.67,35.01 11.34,35.01 C14.02,35.01 16.19,32.83 16.19,30.16 C16.19,27.49 14.01,25.31 11.34,25.31 Z" id="形狀"></path>
                <path d="M18.55,80.66 L4.12,80.66 L4.12,79.74 C10.8,79.74 10.88,68.6 10.88,68.49 L11.8,68.49 C11.8,79.57 18.28,79.74 18.56,79.74 L18.55,80.66 Z M7.4,79.74 L15.59,79.74 C15.28,79.56 14.97,79.35 14.65,79.09 C13.4,78.08 11.98,76.23 11.29,72.92 C10.76,75.41 9.66,78.3 7.4,79.74 Z" id="形狀"></path>
                <path d="M6.03,21.35 C2.85,21.35 0.26,18.76 0.26,15.58 C0.26,12.4 2.85,9.81 6.03,9.81 C9.21,9.81 11.8,12.4 11.8,15.58 C11.8,18.76 9.21,21.35 6.03,21.35 Z M6.03,10.72 C3.35,10.72 1.18,12.9 1.18,15.57 C1.18,18.24 3.36,20.42 6.03,20.42 C8.7,20.42 10.88,18.24 10.88,15.57 C10.88,12.9 8.7,10.72 6.03,10.72 Z" id="形狀"></path>
                <path d="M16.65,21.35 C13.47,21.35 10.88,18.76 10.88,15.58 C10.88,12.4 13.47,9.81 16.65,9.81 C19.83,9.81 22.42,12.4 22.42,15.58 C22.42,18.76 19.83,21.35 16.65,21.35 Z M16.65,10.72 C13.97,10.72 11.8,12.9 11.8,15.57 C11.8,18.24 13.98,20.42 16.65,20.42 C19.33,20.42 21.5,18.24 21.5,15.57 C21.5,12.9 19.33,10.72 16.65,10.72 Z" id="形狀"></path>
                <path d="M11.34,12.14 C8.16,12.14 5.57,9.55 5.57,6.37 C5.57,3.19 8.16,0.6 11.34,0.6 C14.52,0.6 17.11,3.19 17.11,6.37 C17.11,9.55 14.52,12.14 11.34,12.14 Z M11.34,1.51 C8.66,1.51 6.49,3.69 6.49,6.36 C6.49,9.03 8.67,11.21 11.34,11.21 C14.02,11.21 16.19,9.03 16.19,6.36 C16.19,3.69 14.01,1.51 11.34,1.51 Z" id="形狀"></path>
            </g>
            <g id="群組" transform="translate(7.000000, 33.000000)" fill="#1D4764">
                <circle id="橢圓形" cx="2.53" cy="7.12" r="2.33"></circle>
                <circle id="橢圓形" cx="7.2" cy="7.12" r="2.33"></circle>
                <circle id="橢圓形" cx="4.86" cy="3.07" r="2.33"></circle>
                <circle id="橢圓形" cx="92.47" cy="103.88" r="2.33"></circle>
                <circle id="橢圓形" cx="87.81" cy="103.88" r="2.33"></circle>
                <circle id="橢圓形" cx="90.14" cy="107.93" r="2.33"></circle>
            </g>
            <path d="M15.26,10.75 L12.01,29.49 L9.84,29.49 L13.09,10.75 L10.68,10.75 L10.68,16.02 L8.53,16.02 L8.53,10.25 L15.26,10.25 L15.26,10.75 Z M9.63,15.54 L9.63,10.75 L9.08,10.75 L9.08,15.54 L9.63,15.54 Z M14.21,10.75 L13.66,10.75 L10.5,28.99 L11.05,28.99 L14.21,10.75 Z" id="形狀" fill="#1D4764"></path>
            <path d="M93.74,166.25 L96.99,147.51 L99.16,147.51 L95.91,166.25 L98.32,166.25 L98.32,160.98 L100.47,160.98 L100.47,166.75 L93.74,166.75 L93.74,166.25 Z M94.78,166.25 L95.33,166.25 L98.5,148.01 L97.95,148.01 L94.78,166.25 Z M99.37,161.46 L99.37,166.25 L99.92,166.25 L99.92,161.46 L99.37,161.46 Z" id="形狀" fill="#1D4764"></path>
        </g>
    </g>
</svg>