<?xml version="1.0" encoding="UTF-8"?>
<svg width="110px" height="177px" viewBox="0 0 110 177" version="1.1" xmlns="http://www.w3.org/2000/svg" xmlns:xlink="http://www.w3.org/1999/xlink">
    <!-- Generator: Sketch 55.1 (78136) - https://sketchapp.com -->
    <title>card-15copy</title>
    <desc>Created with Sketch.</desc>
    <g id="Page-1" stroke="none" stroke-width="1" fill="none" fill-rule="evenodd">
        <g id="card-15copy" fill-rule="nonzero">
            <path d="M96.02,0.26 L12.98,0.26 C5.84,0.26 0,6.1 0,13.24 L0,163.76 C0,170.9 5.84,176.74 12.98,176.74 L96.03,176.74 C103.17,176.74 109.01,170.9 109.01,163.76 L109.01,13.24 C109,6.1 103.16,0.26 96.02,0.26 Z" id="路徑" fill="#EBEBEB"></path>
            <path d="M76.14,141.66 L32.86,141.66 L32.86,140.74 C53.8,140.74 54.04,89.02 54.04,88.5 L54.04,88.5 L54.04,88.5 L54.96,88.5 C54.96,140.03 75.93,140.74 76.14,140.74 L76.14,141.66 Z M37.59,140.74 L72.42,140.74 C70.35,139.87 67.66,138.19 64.96,134.9 C60.7,129.72 55.75,119.49 54.39,99.56 C54,104.09 53.35,109.53 52.23,114.94 C49.31,129.23 44.29,138.01 37.59,140.74 Z" id="形狀" fill="#E37F45"></path>
            <path d="M54.96,88.5 L54.04,88.5 C54.04,36.97 33.07,36.26 32.86,36.26 L32.86,35.34 L76.14,35.34 L76.14,36.26 C55.2,36.26 54.96,87.98 54.96,88.5 Z M36.58,36.26 C38.65,37.13 41.34,38.81 44.04,42.1 C48.3,47.28 53.25,57.51 54.61,77.44 C55,72.91 55.65,67.47 56.77,62.06 C59.7,47.77 64.72,38.99 71.42,36.26 L36.58,36.26 Z" id="形狀" fill="#E37F45"></path>
            <path d="M15.01,29.49 L8.7,29.49 L8.7,24.22 C8.7,23.32 8.94,22.49 9.42,21.74 L12.16,17.46 C12.61,16.77 12.83,15.98 12.83,15.07 L12.83,11.72 C12.83,10.99 12.51,10.62 11.86,10.62 C11.22,10.62 10.89,10.99 10.89,11.72 L10.89,16.03 L8.7,16.03 L8.7,12.93 C8.7,12.15 9,11.49 9.61,10.95 C10.22,10.41 10.97,10.13 11.86,10.13 C12.75,10.13 13.5,10.4 14.11,10.95 C14.71,11.5 15.02,12.16 15.02,12.93 L15.02,15.68 C15.02,16.58 14.78,17.41 14.31,18.15 L11.56,22.44 C11.12,23.12 10.9,23.92 10.9,24.83 L10.9,29 L12.83,29 L12.83,23.73 L15.02,23.73 L15.02,29.49 L15.01,29.49 Z M13.93,15.36 L13.93,12.48 C13.93,11.75 13.6,11.17 12.94,10.75 C13.24,11.09 13.38,11.54 13.38,12.1 L13.38,15.22 C13.38,16.14 13.15,16.95 12.68,17.66 L9.94,21.92 C9.48,22.63 9.24,23.44 9.24,24.36 L9.24,28.97 L9.8,28.97 L9.8,24.49 C9.8,23.57 10.03,22.76 10.5,22.05 L13.24,17.8 C13.69,17.1 13.93,16.28 13.93,15.36 Z M10.16,11.08 C9.55,11.49 9.25,12.04 9.25,12.73 L9.25,15.53 L9.8,15.53 L9.8,12.4 C9.8,11.87 9.92,11.43 10.16,11.08 Z M13.93,28.99 L13.93,24.22 L13.38,24.22 L13.38,28.99 L13.93,28.99 Z" id="形狀" fill="#E37F45"></path>
            <path d="M93.99,147.52 L100.31,147.52 L100.31,152.79 C100.31,153.69 100.07,154.52 99.59,155.27 L96.85,159.55 C96.4,160.24 96.18,161.03 96.18,161.94 L96.18,165.29 C96.18,166.02 96.5,166.39 97.15,166.39 C97.8,166.39 98.12,166.02 98.12,165.29 L98.12,160.98 L100.32,160.98 L100.32,164.08 C100.32,164.86 100.02,165.52 99.41,166.06 C98.8,166.61 98.05,166.88 97.16,166.88 C96.27,166.88 95.52,166.61 94.91,166.06 C94.31,165.51 94,164.85 94,164.08 L94,161.33 C94,160.43 94.24,159.6 94.71,158.86 L97.46,154.57 C97.9,153.89 98.12,153.09 98.12,152.18 L98.12,148.01 L96.19,148.01 L96.19,153.28 L94,153.28 L94,147.52 L93.99,147.52 Z M95.07,161.64 L95.07,164.52 C95.07,165.25 95.4,165.83 96.06,166.25 C95.76,165.91 95.62,165.46 95.62,164.9 L95.62,161.78 C95.62,160.86 95.85,160.05 96.32,159.34 L99.06,155.08 C99.52,154.37 99.76,153.56 99.76,152.64 L99.76,148.03 L99.2,148.03 L99.2,152.51 C99.2,153.43 98.97,154.24 98.5,154.95 L95.76,159.2 C95.31,159.9 95.07,160.72 95.07,161.64 Z M95.07,148.01 L95.07,152.78 L95.62,152.78 L95.62,148.01 L95.07,148.01 Z M98.84,165.92 C99.45,165.51 99.75,164.96 99.75,164.27 L99.75,161.47 L99.2,161.47 L99.2,164.61 C99.2,165.13 99.08,165.57 98.84,165.92 Z" id="形狀" fill="#E37F45"></path>
            <path d="M11.86,46.15 C11.86,46.15 11.86,34.78 16.53,34.78 L7.19,34.78 C7.19,34.78 11.86,34.78 11.86,46.15 Z" id="路徑" fill="#E37F45"></path>
            <path d="M97.14,130.85 C97.14,130.85 97.14,142.22 92.47,142.22 L101.81,142.22 C101.81,142.22 97.14,142.22 97.14,130.85 Z" id="路徑" fill="#E37F45"></path>
        </g>
    </g>
</svg>