<?xml version="1.0" encoding="UTF-8"?>
<svg width="110px" height="177px" viewBox="0 0 110 177" version="1.1" xmlns="http://www.w3.org/2000/svg" xmlns:xlink="http://www.w3.org/1999/xlink">
    <!-- Generator: Sketch 55.1 (78136) - https://sketchapp.com -->
    <title>card-14copy</title>
    <desc>Created with Sketch.</desc>
    <g id="Page-1" stroke="none" stroke-width="1" fill="none" fill-rule="evenodd">
        <g id="card-14copy" fill-rule="nonzero">
            <path d="M96.02,0.26 L12.98,0.26 C5.84,0.26 0,6.1 0,13.24 L0,163.76 C0,170.9 5.84,176.74 12.98,176.74 L96.03,176.74 C103.17,176.74 109.01,170.9 109.01,163.76 L109.01,13.24 C109,6.1 103.16,0.26 96.02,0.26 Z" id="路徑" fill="#EBEBEB"></path>
            <path d="M54.96,136.69 L54.04,136.69 C54.04,114.28 51.25,84.15 37.98,67.9 C30.09,58.24 22.11,58.1 22.03,58.1 L22.03,57.18 L86.95,57.18 L86.95,58.1 C55.33,58.1 54.96,135.9 54.96,136.69 Z M26.4,58.1 C29.57,59.22 34.09,61.71 38.63,67.23 C45.23,75.26 52.94,91.39 54.63,123.39 C55.16,116.05 56.17,106.53 58.12,97.07 C62.68,74.87 70.58,61.57 81.16,58.1 L26.4,58.1 Z" id="形狀" fill="#E37F45"></path>
            <path d="M15.5,29.49 L11.93,29.49 L11.93,28.99 L12.61,28.99 L12.11,23.41 L10.14,23.41 L9.6,28.99 L10.28,28.99 L10.28,29.49 L8.22,29.49 L8.22,28.99 L8.9,28.99 L10.83,10.25 L13.03,10.25 L14.81,28.99 L15.49,28.99 L15.49,29.49 L15.5,29.49 Z M12.1,22.93 L11.19,12.54 L10.18,22.93 L12.1,22.93 Z M13.72,28.99 L11.99,10.75 L11.44,10.75 L13.17,28.99 L13.72,28.99 Z" id="形狀" fill="#E37F45"></path>
            <path d="M93.5,147.52 L97.07,147.52 L97.07,148.02 L96.39,148.02 L96.89,153.6 L98.86,153.6 L99.41,148.02 L98.73,148.02 L98.73,147.52 L100.8,147.52 L100.8,148.02 L100.12,148.02 L98.19,166.76 L95.99,166.76 L94.21,148.02 L93.5,148.02 L93.5,147.52 Z M95.28,148.01 L97.01,166.25 L97.56,166.25 L95.83,148.01 L95.28,148.01 Z M96.9,154.07 L97.81,164.46 L98.82,154.07 L96.9,154.07 Z" id="形狀" fill="#E37F45"></path>
            <path d="M11.86,46.15 C11.86,46.15 11.86,34.78 16.53,34.78 L7.19,34.78 C7.19,34.78 11.86,34.78 11.86,46.15 Z" id="路徑" fill="#E37F45"></path>
            <path d="M97.14,130.85 C97.14,130.85 97.14,142.22 92.47,142.22 L101.81,142.22 C101.81,142.22 97.14,142.22 97.14,130.85 Z" id="路徑" fill="#E37F45"></path>
        </g>
    </g>
</svg>