<?xml version="1.0" encoding="UTF-8"?>
<svg width="110px" height="177px" viewBox="0 0 110 177" version="1.1" xmlns="http://www.w3.org/2000/svg" xmlns:xlink="http://www.w3.org/1999/xlink">
    <!-- Generator: Sketch 55.1 (78136) - https://sketchapp.com -->
    <title>card-03copy</title>
    <desc>Created with Sketch.</desc>
    <g id="Page-1" stroke="none" stroke-width="1" fill="none" fill-rule="evenodd">
        <g id="card-03copy" fill-rule="nonzero">
            <path d="M96.02,0.26 L12.98,0.26 C5.84,0.26 0,6.1 0,13.24 L0,163.76 C0,170.9 5.84,176.74 12.98,176.74 L96.03,176.74 C103.17,176.74 109.01,170.9 109.01,163.76 L109.01,13.24 C109,6.1 103.16,0.26 96.02,0.26 Z" id="路徑" fill="#EBEBEB"></path>
            <path d="M15.01,26.82 C15.01,27.63 14.71,28.3 14.1,28.83 C13.5,29.36 12.74,29.62 11.83,29.62 C10.92,29.62 10.16,29.36 9.55,28.83 C8.94,28.3 8.64,27.63 8.64,26.82 L8.64,23.72 L10.84,23.72 L10.84,28.03 C10.84,28.76 11.17,29.13 11.83,29.13 C12.49,29.13 12.82,28.76 12.82,28.03 L12.82,20.68 C12.82,20.38 12.71,20.12 12.5,19.9 C12.29,19.68 12.03,19.58 11.72,19.58 L10.04,19.58 L10.04,19.08 L11.72,19.08 C12.02,19.08 12.28,18.97 12.5,18.76 C12.71,18.55 12.82,18.29 12.82,17.98 L12.82,11.72 C12.82,10.99 12.49,10.62 11.83,10.62 C11.17,10.62 10.84,10.99 10.84,11.72 L10.84,16.03 L8.64,16.03 L8.64,12.93 C8.64,12.13 8.94,11.46 9.55,10.93 C10.16,10.4 10.92,10.13 11.83,10.13 C12.74,10.13 13.5,10.4 14.1,10.93 C14.7,11.46 15.01,12.13 15.01,12.93 L15.01,16.78 C15.01,17.98 14.37,18.83 13.09,19.33 C14.37,19.87 15.01,20.72 15.01,21.89 L15.01,26.82 Z M10.1,11 C9.49,11.41 9.19,11.98 9.19,12.7 L9.19,15.53 L9.74,15.53 L9.74,12.36 C9.74,11.8 9.86,11.34 10.1,11 Z M10.1,28.75 C9.86,28.4 9.74,27.94 9.74,27.37 L9.74,24.22 L9.19,24.22 L9.19,27.05 C9.19,27.76 9.5,28.33 10.1,28.75 Z M13.93,17.21 L13.93,12.45 C13.93,11.72 13.6,11.14 12.94,10.72 C13.24,11.06 13.38,11.51 13.38,12.07 L13.38,17.58 C13.38,18.14 13.23,18.59 12.94,18.93 C13.6,18.52 13.93,17.95 13.93,17.21 Z M13.93,27.29 L13.93,21.44 C13.93,20.71 13.6,20.13 12.94,19.71 C13.24,20.05 13.38,20.5 13.38,21.05 L13.38,27.68 C13.38,28.23 13.23,28.68 12.94,29.02 C13.6,28.6 13.93,28.02 13.93,27.29 Z" id="形狀" fill="#1D4764"></path>
            <path d="M93.99,150.18 C93.99,149.37 94.29,148.7 94.9,148.17 C95.5,147.64 96.26,147.38 97.17,147.38 C98.08,147.38 98.84,147.64 99.45,148.17 C100.06,148.7 100.36,149.37 100.36,150.18 L100.36,153.28 L98.16,153.28 L98.16,148.97 C98.16,148.24 97.83,147.87 97.17,147.87 C96.51,147.87 96.18,148.24 96.18,148.97 L96.18,156.32 C96.18,156.62 96.29,156.88 96.5,157.1 C96.71,157.31 96.97,157.42 97.28,157.42 L98.96,157.42 L98.96,157.92 L97.28,157.92 C96.98,157.92 96.72,158.03 96.5,158.24 C96.29,158.45 96.18,158.71 96.18,159.02 L96.18,165.28 C96.18,166.01 96.51,166.38 97.17,166.38 C97.83,166.38 98.16,166.01 98.16,165.28 L98.16,160.97 L100.36,160.97 L100.36,164.07 C100.36,164.87 100.06,165.54 99.45,166.07 C98.84,166.6 98.08,166.87 97.17,166.87 C96.26,166.87 95.5,166.6 94.9,166.07 C94.3,165.54 93.99,164.87 93.99,164.07 L93.99,160.22 C93.99,159.02 94.63,158.17 95.91,157.67 C94.63,157.13 93.99,156.28 93.99,155.11 L93.99,150.18 Z M95.07,149.72 L95.07,155.57 C95.07,156.3 95.4,156.88 96.06,157.3 C95.76,156.96 95.62,156.51 95.62,155.96 L95.62,149.33 C95.62,148.78 95.77,148.33 96.06,147.99 C95.4,148.41 95.07,148.98 95.07,149.72 Z M95.07,159.79 L95.07,164.55 C95.07,165.28 95.4,165.86 96.06,166.28 C95.76,165.94 95.62,165.49 95.62,164.93 L95.62,159.42 C95.62,158.86 95.77,158.41 96.06,158.07 C95.4,158.48 95.07,159.05 95.07,159.79 Z M98.9,148.25 C99.14,148.6 99.26,149.06 99.26,149.63 L99.26,152.78 L99.81,152.78 L99.81,149.95 C99.81,149.24 99.5,148.67 98.9,148.25 Z M98.9,166 C99.51,165.59 99.81,165.02 99.81,164.3 L99.81,161.47 L99.26,161.47 L99.26,164.64 C99.26,165.2 99.14,165.66 98.9,166 Z" id="形狀" fill="#1D4764"></path>
            <path d="M16.07,40.4 C16.07,38.08 14.18,36.19 11.86,36.19 C9.54,36.19 7.65,38.08 7.65,40.4 C7.65,42.72 9.54,44.61 11.86,44.61 C14.18,44.61 16.07,42.72 16.07,40.4 Z" id="路徑" fill="#1D4764"></path>
            <circle id="橢圓形" fill="#1D4764" cx="97.14" cy="136.6" r="4.21"></circle>
            <path d="M72.87,51.65 C72.87,41.52 64.63,33.28 54.5,33.28 C44.37,33.28 36.13,41.52 36.13,51.65 C36.13,57.46 38.84,62.63 43.06,66 C38.84,69.37 36.13,74.54 36.13,80.35 C36.13,86.16 38.84,91.33 43.06,94.7 C38.84,98.07 36.13,103.24 36.13,109.05 C36.13,119.18 44.37,127.42 54.5,127.42 C64.63,127.42 72.87,119.18 72.87,109.05 C72.87,103.24 70.16,98.07 65.94,94.7 C70.16,91.33 72.87,86.16 72.87,80.35 C72.87,74.54 70.16,69.37 65.94,66 C70.16,62.63 72.87,57.46 72.87,51.65 Z M54.5,126.5 C44.88,126.5 37.05,118.67 37.05,109.05 C37.05,103.45 39.71,98.47 43.83,95.27 C46.84,97.43 50.52,98.72 54.5,98.72 C58.48,98.72 62.16,97.43 65.17,95.27 C69.29,98.47 71.95,103.45 71.95,109.05 C71.95,118.67 64.12,126.5 54.5,126.5 Z M54.5,97.81 C44.88,97.81 37.05,89.98 37.05,80.36 C37.05,70.74 44.88,62.9 54.5,62.9 C64.12,62.9 71.95,70.73 71.95,80.35 C71.95,89.97 64.12,97.81 54.5,97.81 Z M54.5,61.98 C50.52,61.98 46.84,63.27 43.83,65.43 C39.71,62.23 37.05,57.25 37.05,51.65 C37.05,42.03 44.88,34.2 54.5,34.2 C64.12,34.2 71.95,42.03 71.95,51.65 C71.95,57.25 69.29,62.23 65.17,65.43 C62.16,63.27 58.48,61.98 54.5,61.98 Z" id="形狀" fill="#1D4764"></path>
            <path d="M59.96,138.68 C59.76,138.68 54.96,138.54 54.96,130.28 L54.5,130.28 L54.5,130.28 L54.04,130.28 C54.04,130.36 53.98,138.68 49.04,138.68 L49.04,139.6 L59.95,139.6 L59.96,138.68 Z M51.88,138.68 C53.29,137.62 54.05,135.8 54.46,134.13 C55.07,136.58 56.25,137.94 57.36,138.68 L51.88,138.68 Z" id="形狀" fill="#1D4764"></path>
        </g>
    </g>
</svg>