<?xml version="1.0" encoding="UTF-8"?>
<svg width="110px" height="177px" viewBox="0 0 110 177" version="1.1" xmlns="http://www.w3.org/2000/svg" xmlns:xlink="http://www.w3.org/1999/xlink">
    <!-- Generator: Sketch 55.1 (78136) - https://sketchapp.com -->
    <title>card-48copy</title>
    <desc>Created with Sketch.</desc>
    <g id="Page-1" stroke="none" stroke-width="1" fill="none" fill-rule="evenodd">
        <g id="card-48copy" fill-rule="nonzero">
            <path d="M96.02,0.26 L12.98,0.26 C5.84,0.26 0,6.1 0,13.24 L0,163.76 C0,170.9 5.84,176.74 12.98,176.74 L96.03,176.74 C103.17,176.74 109.01,170.9 109.01,163.76 L109.01,13.24 C109,6.1 103.16,0.26 96.02,0.26 Z" id="路徑" fill="#EBEBEB"></path>
            <g id="群組" transform="translate(21.000000, 61.000000)" fill="#1D4764">
                <path d="M6.35,68.95 C3.17,68.95 0.58,66.36 0.58,63.18 C0.58,60 3.17,57.41 6.35,57.41 C9.53,57.41 12.12,60 12.12,63.18 C12.12,66.36 9.53,68.95 6.35,68.95 Z M6.35,58.32 C3.67,58.32 1.5,60.5 1.5,63.17 C1.5,65.85 3.68,68.02 6.35,68.02 C9.02,68.02 11.2,65.84 11.2,63.17 C11.2,60.5 9.03,58.32 6.35,58.32 Z" id="形狀"></path>
                <path d="M16.98,68.95 C13.8,68.95 11.21,66.36 11.21,63.18 C11.21,60 13.8,57.41 16.98,57.41 C20.16,57.41 22.75,60 22.75,63.18 C22.74,66.36 20.16,68.95 16.98,68.95 Z M16.98,58.32 C14.3,58.32 12.13,60.5 12.13,63.17 C12.13,65.85 14.31,68.02 16.98,68.02 C19.65,68.02 21.83,65.84 21.83,63.17 C21.83,60.5 19.65,58.32 16.98,58.32 Z" id="形狀"></path>
                <path d="M11.66,59.74 C8.48,59.74 5.89,57.15 5.89,53.97 C5.89,50.79 8.48,48.2 11.66,48.2 C14.84,48.2 17.43,50.79 17.43,53.97 C17.43,57.15 14.84,59.74 11.66,59.74 Z M11.66,49.11 C8.98,49.11 6.81,51.29 6.81,53.96 C6.81,56.63 8.99,58.81 11.66,58.81 C14.33,58.81 16.51,56.63 16.51,53.96 C16.51,51.29 14.34,49.11 11.66,49.11 Z" id="形狀"></path>
                <path d="M6.35,45.15 C3.17,45.15 0.58,42.56 0.58,39.38 C0.58,36.2 3.17,33.61 6.35,33.61 C9.53,33.61 12.12,36.2 12.12,39.38 C12.12,42.56 9.53,45.15 6.35,45.15 Z M6.35,34.52 C3.67,34.52 1.5,36.7 1.5,39.37 C1.5,42.04 3.68,44.22 6.35,44.22 C9.02,44.22 11.2,42.04 11.2,39.37 C11.2,36.7 9.03,34.52 6.35,34.52 Z" id="形狀"></path>
                <path d="M16.98,45.15 C13.8,45.15 11.21,42.56 11.21,39.38 C11.21,36.2 13.8,33.61 16.98,33.61 C20.16,33.61 22.75,36.2 22.75,39.38 C22.74,42.56 20.16,45.15 16.98,45.15 Z M16.98,34.52 C14.3,34.52 12.13,36.7 12.13,39.37 C12.13,42.04 14.31,44.22 16.98,44.22 C19.65,44.22 21.83,42.04 21.83,39.37 C21.83,36.7 19.65,34.52 16.98,34.52 Z" id="形狀"></path>
                <path d="M11.66,35.94 C8.48,35.94 5.89,33.35 5.89,30.17 C5.89,26.99 8.48,24.4 11.66,24.4 C14.84,24.4 17.43,26.99 17.43,30.17 C17.43,33.35 14.84,35.94 11.66,35.94 Z M11.66,25.31 C8.98,25.31 6.81,27.49 6.81,30.16 C6.81,32.83 8.99,35.01 11.66,35.01 C14.33,35.01 16.51,32.83 16.51,30.16 C16.51,27.49 14.34,25.31 11.66,25.31 Z" id="形狀"></path>
                <path d="M18.88,80.66 L4.45,80.66 L4.45,79.74 C11.12,79.74 11.2,68.6 11.2,68.49 L12.12,68.49 C12.12,79.57 18.6,79.74 18.88,79.74 L18.88,80.66 Z M7.73,79.74 L15.92,79.74 C15.61,79.56 15.3,79.35 14.98,79.09 C13.73,78.08 12.31,76.23 11.62,72.92 C11.09,75.41 9.99,78.3 7.73,79.74 Z" id="形狀"></path>
                <path d="M6.35,21.35 C3.17,21.35 0.58,18.76 0.58,15.58 C0.58,12.4 3.17,9.81 6.35,9.81 C9.53,9.81 12.12,12.4 12.12,15.58 C12.12,18.76 9.53,21.35 6.35,21.35 Z M6.35,10.72 C3.67,10.72 1.5,12.9 1.5,15.57 C1.5,18.24 3.68,20.42 6.35,20.42 C9.02,20.42 11.2,18.24 11.2,15.57 C11.2,12.9 9.03,10.72 6.35,10.72 Z" id="形狀"></path>
                <path d="M16.98,21.35 C13.8,21.35 11.21,18.76 11.21,15.58 C11.21,12.4 13.8,9.81 16.98,9.81 C20.16,9.81 22.75,12.4 22.75,15.58 C22.74,18.76 20.16,21.35 16.98,21.35 Z M16.98,10.72 C14.3,10.72 12.13,12.9 12.13,15.57 C12.13,18.24 14.31,20.42 16.98,20.42 C19.65,20.42 21.83,18.24 21.83,15.57 C21.83,12.9 19.65,10.72 16.98,10.72 Z" id="形狀"></path>
                <path d="M11.66,12.14 C8.48,12.14 5.89,9.55 5.89,6.37 C5.89,3.19 8.48,0.6 11.66,0.6 C14.84,0.6 17.43,3.19 17.43,6.37 C17.43,9.55 14.84,12.14 11.66,12.14 Z M11.66,1.51 C8.98,1.51 6.81,3.69 6.81,6.36 C6.81,9.03 8.99,11.21 11.66,11.21 C14.33,11.21 16.51,9.03 16.51,6.36 C16.51,3.69 14.34,1.51 11.66,1.51 Z" id="形狀"></path>
            </g>
            <g id="群組" transform="translate(43.000000, 48.000000)" fill="#1D4764">
                <path d="M6.19,68.82 C3.01,68.82 0.42,66.23 0.42,63.05 C0.42,59.87 3.01,57.28 6.19,57.28 C9.37,57.28 11.96,59.87 11.96,63.05 C11.96,66.23 9.37,68.82 6.19,68.82 Z M6.19,58.19 C3.51,58.19 1.34,60.37 1.34,63.04 C1.34,65.71 3.52,67.89 6.19,67.89 C8.87,67.89 11.04,65.71 11.04,63.04 C11.04,60.37 8.86,58.19 6.19,58.19 Z" id="形狀"></path>
                <path d="M16.81,68.82 C13.63,68.82 11.04,66.23 11.04,63.05 C11.04,59.87 13.63,57.28 16.81,57.28 C19.99,57.28 22.58,59.87 22.58,63.05 C22.58,66.23 19.99,68.82 16.81,68.82 Z M16.81,58.19 C14.13,58.19 11.96,60.37 11.96,63.04 C11.96,65.71 14.14,67.89 16.81,67.89 C19.48,67.89 21.66,65.71 21.66,63.04 C21.66,60.37 19.49,58.19 16.81,58.19 Z" id="形狀"></path>
                <path d="M11.5,59.61 C8.32,59.61 5.73,57.02 5.73,53.84 C5.73,50.66 8.32,48.07 11.5,48.07 C14.68,48.07 17.27,50.66 17.27,53.84 C17.27,57.02 14.68,59.61 11.5,59.61 Z M11.5,48.99 C8.82,48.99 6.65,51.17 6.65,53.84 C6.65,56.51 8.83,58.69 11.5,58.69 C14.18,58.69 16.35,56.51 16.35,53.84 C16.35,51.17 14.18,48.99 11.5,48.99 Z" id="形狀"></path>
                <path d="M6.19,45.02 C3.01,45.02 0.42,42.43 0.42,39.25 C0.42,36.07 3.01,33.48 6.19,33.48 C9.37,33.48 11.96,36.07 11.96,39.25 C11.96,42.43 9.37,45.02 6.19,45.02 Z M6.19,34.39 C3.51,34.39 1.34,36.57 1.34,39.24 C1.34,41.91 3.52,44.09 6.19,44.09 C8.87,44.09 11.04,41.91 11.04,39.24 C11.04,36.57 8.86,34.39 6.19,34.39 Z" id="形狀"></path>
                <path d="M16.81,45.02 C13.63,45.02 11.04,42.43 11.04,39.25 C11.04,36.07 13.63,33.48 16.81,33.48 C19.99,33.48 22.58,36.07 22.58,39.25 C22.58,42.43 19.99,45.02 16.81,45.02 Z M16.81,34.39 C14.13,34.39 11.96,36.57 11.96,39.24 C11.96,41.91 14.14,44.09 16.81,44.09 C19.48,44.09 21.66,41.91 21.66,39.24 C21.66,36.57 19.49,34.39 16.81,34.39 Z" id="形狀"></path>
                <path d="M11.5,35.81 C8.32,35.81 5.73,33.22 5.73,30.04 C5.73,26.86 8.32,24.27 11.5,24.27 C14.68,24.27 17.27,26.86 17.27,30.04 C17.27,33.22 14.68,35.81 11.5,35.81 Z M11.5,25.19 C8.82,25.19 6.65,27.37 6.65,30.04 C6.65,32.71 8.83,34.89 11.5,34.89 C14.18,34.89 16.35,32.71 16.35,30.04 C16.35,27.37 14.18,25.19 11.5,25.19 Z" id="形狀"></path>
                <path d="M18.71,80.53 L4.29,80.53 L4.29,79.61 C10.96,79.61 11.04,68.47 11.04,68.36 L11.96,68.36 C11.96,79.48 18.65,79.61 18.72,79.61 L18.72,80.53 L18.71,80.53 Z M7.57,79.61 L15.76,79.61 C15.45,79.43 15.14,79.22 14.82,78.96 C13.57,77.95 12.15,76.1 11.46,72.79 C10.92,75.28 9.83,78.17 7.57,79.61 Z" id="形狀"></path>
                <path d="M6.19,21.22 C3.01,21.22 0.42,18.63 0.42,15.45 C0.42,12.27 3.01,9.68 6.19,9.68 C9.37,9.68 11.96,12.27 11.96,15.45 C11.96,18.63 9.37,21.22 6.19,21.22 Z M6.19,10.6 C3.51,10.6 1.34,12.78 1.34,15.45 C1.34,18.13 3.52,20.3 6.19,20.3 C8.87,20.3 11.04,18.12 11.04,15.45 C11.04,12.77 8.86,10.6 6.19,10.6 Z" id="形狀"></path>
                <path d="M16.81,21.22 C13.63,21.22 11.04,18.63 11.04,15.45 C11.04,12.27 13.63,9.68 16.81,9.68 C19.99,9.68 22.58,12.27 22.58,15.45 C22.58,18.63 19.99,21.22 16.81,21.22 Z M16.81,10.6 C14.13,10.6 11.96,12.78 11.96,15.45 C11.96,18.13 14.14,20.3 16.81,20.3 C19.48,20.3 21.6600343,18.12 21.6600343,15.45 C21.67,12.77 19.49,10.6 16.81,10.6 Z" id="形狀"></path>
                <path d="M11.5,12.01 C8.32,12.01 5.73,9.42 5.73,6.24 C5.73,3.06 8.32,0.47 11.5,0.47 C14.68,0.47 17.27,3.06 17.27,6.24 C17.27,9.42 14.68,12.01 11.5,12.01 Z M11.5,1.39 C8.82,1.39 6.65,3.57 6.65,6.24 C6.65,8.92 8.83,11.09 11.5,11.09 C14.18,11.09 16.35,8.91 16.35,6.24 C16.35,3.56 14.18,1.39 11.5,1.39 Z" id="形狀"></path>
            </g>
            <g id="群組" transform="translate(65.000000, 35.000000)" fill="#1D4764">
                <path d="M6.03,68.69 C2.85,68.69 0.26,66.1 0.26,62.92 C0.26,59.74 2.85,57.15 6.03,57.15 C9.21,57.15 11.8,59.74 11.8,62.92 C11.8,66.1 9.21,68.69 6.03,68.69 Z M6.03,58.07 C3.35,58.07 1.18,60.25 1.18,62.92 C1.18,65.59 3.36,67.77 6.03,67.77 C8.7,67.77 10.88,65.59 10.88,62.92 C10.88,60.25 8.7,58.07 6.03,58.07 Z" id="形狀"></path>
                <path d="M16.65,68.69 C13.47,68.69 10.88,66.1 10.88,62.92 C10.88,59.74 13.47,57.15 16.65,57.15 C19.83,57.15 22.42,59.74 22.42,62.92 C22.42,66.1 19.83,68.69 16.65,68.69 Z M16.65,58.07 C13.97,58.07 11.8,60.25 11.8,62.92 C11.8,65.59 13.98,67.77 16.65,67.77 C19.32,67.77 21.5,65.59 21.5,62.92 C21.5,60.25 19.33,58.07 16.65,58.07 Z" id="形狀"></path>
                <path d="M11.34,59.48 C8.16,59.48 5.57,56.89 5.57,53.71 C5.57,50.53 8.16,47.94 11.34,47.94 C14.52,47.94 17.11,50.53 17.11,53.71 C17.11,56.9 14.52,59.48 11.34,59.48 Z M11.34,48.86 C8.66,48.86 6.49,51.04 6.49,53.71 C6.49,56.38 8.67,58.56 11.34,58.56 C14.01,58.56 16.19,56.38 16.19,53.71 C16.19,51.04 14.01,48.86 11.34,48.86 Z" id="形狀"></path>
                <path d="M6.03,44.89 C2.85,44.89 0.26,42.3 0.26,39.12 C0.26,35.94 2.85,33.35 6.03,33.35 C9.21,33.35 11.8,35.94 11.8,39.12 C11.8,42.3 9.21,44.89 6.03,44.89 Z M6.03,34.27 C3.35,34.27 1.18,36.45 1.18,39.12 C1.18,41.79 3.36,43.97 6.03,43.97 C8.7,43.97 10.88,41.79 10.88,39.12 C10.88,36.45 8.7,34.27 6.03,34.27 Z" id="形狀"></path>
                <path d="M16.65,44.89 C13.47,44.89 10.88,42.3 10.88,39.12 C10.88,35.94 13.47,33.35 16.65,33.35 C19.83,33.35 22.42,35.94 22.42,39.12 C22.42,42.3 19.83,44.89 16.65,44.89 Z M16.65,34.27 C13.97,34.27 11.8,36.45 11.8,39.12 C11.8,41.79 13.98,43.97 16.65,43.97 C19.32,43.97 21.5,41.79 21.5,39.12 C21.5,36.45 19.33,34.27 16.65,34.27 Z" id="形狀"></path>
                <path d="M11.34,35.68 C8.16,35.68 5.57,33.09 5.57,29.91 C5.57,26.73 8.16,24.14 11.34,24.14 C14.52,24.14 17.11,26.73 17.11,29.91 C17.11,33.1 14.52,35.68 11.34,35.68 Z M11.34,25.06 C8.66,25.06 6.49,27.24 6.49,29.91 C6.49,32.59 8.67,34.76 11.34,34.76 C14.01,34.76 16.19,32.58 16.19,29.91 C16.19,27.24 14.01,25.06 11.34,25.06 Z" id="形狀"></path>
                <path d="M18.55,80.4 L4.12,80.4 L4.12,79.48 C10.8,79.48 10.88,68.34 10.88,68.23 L11.8,68.23 C11.8,79.31 18.28,79.48 18.56,79.48 L18.55,80.4 Z M7.4,79.49 L15.59,79.49 C15.28,79.31 14.97,79.1 14.65,78.84 C13.4,77.83 11.98,75.98 11.29,72.67 C10.76,75.15 9.66,78.04 7.4,79.49 Z" id="形狀"></path>
                <path d="M6.03,21.09 C2.85,21.09 0.26,18.5 0.26,15.32 C0.26,12.14 2.85,9.55 6.03,9.55 C9.21,9.55 11.8,12.14 11.8,15.32 C11.8,18.5 9.21,21.09 6.03,21.09 Z M6.03,10.47 C3.35,10.47 1.18,12.65 1.18,15.32 C1.18,17.99 3.36,20.17 6.03,20.17 C8.7,20.17 10.88,17.99 10.88,15.32 C10.88,12.65 8.7,10.47 6.03,10.47 Z" id="形狀"></path>
                <path d="M16.65,21.09 C13.47,21.09 10.88,18.5 10.88,15.32 C10.88,12.14 13.47,9.55 16.65,9.55 C19.83,9.55 22.42,12.14 22.42,15.32 C22.42,18.5 19.83,21.09 16.65,21.09 Z M16.65,10.47 C13.97,10.47 11.8,12.65 11.8,15.32 C11.8,17.99 13.98,20.17 16.65,20.17 C19.32,20.17 21.5,18 21.5,15.32 C21.5,12.64 19.33,10.47 16.65,10.47 Z" id="形狀"></path>
                <path d="M11.34,11.88 C8.16,11.88 5.57,9.29 5.57,6.11 C5.57,2.93 8.16,0.34 11.34,0.34 C14.52,0.34 17.11,2.93 17.11,6.11 C17.11,9.29 14.52,11.88 11.34,11.88 Z M11.34,1.26 C8.66,1.26 6.49,3.44 6.49,6.11 C6.49,8.78 8.67,10.96 11.34,10.96 C14.01,10.96 16.19,8.78 16.19,6.11 C16.19,3.44 14.01,1.26 11.34,1.26 Z" id="形狀"></path>
            </g>
            <g id="群組" transform="translate(7.000000, 33.000000)" fill="#1D4764">
                <circle id="橢圓形" cx="2.53" cy="7.12" r="2.33"></circle>
                <circle id="橢圓形" cx="7.2" cy="7.12" r="2.33"></circle>
                <circle id="橢圓形" cx="4.86" cy="3.07" r="2.33"></circle>
                <circle id="橢圓形" cx="92.47" cy="103.88" r="2.33"></circle>
                <circle id="橢圓形" cx="87.81" cy="103.88" r="2.33"></circle>
                <circle id="橢圓形" cx="90.14" cy="107.93" r="2.33"></circle>
            </g>
            <path d="M15.16,26.82 C15.16,27.59 14.84,28.25 14.19,28.8 C13.55,29.35 12.77,29.62 11.86,29.62 C10.96,29.62 10.18,29.35 9.53,28.8 C8.88,28.25 8.56,27.59 8.56,26.82 L8.56,23.72 L10.76,23.72 L10.76,28.03 C10.76,28.33 10.87,28.59 11.08,28.81 C11.29,29.02 11.55,29.13 11.86,29.13 C12.16,29.13 12.42,29.02 12.64,28.81 C12.85,28.6 12.96,28.34 12.96,28.03 L12.96,20.29 C12.55,20.64 11.99,20.81 11.28,20.81 C9.47,20.81 8.56,19.97 8.56,18.28 L8.56,12.93 C8.56,12.16 8.88,11.5 9.53,10.95 C10.18,10.4 10.95,10.13 11.86,10.13 C12.77,10.13 13.55,10.4 14.19,10.95 C14.83,11.5 15.16,12.16 15.16,12.93 L15.16,26.82 L15.16,26.82 Z M10.02,20.18 C9.78,19.83 9.66,19.39 9.66,18.85 L9.66,12.4 C9.66,11.87 9.78,11.43 10.02,11.09 C9.41,11.5 9.11,12.05 9.11,12.74 L9.11,18.53 C9.11,19.21 9.42,19.76 10.02,20.18 Z M10.02,28.64 C9.78,28.34 9.66,27.9 9.66,27.34 L9.66,24.22 L9.11,24.22 L9.11,27.05 C9.11,27.75 9.42,28.28 10.02,28.64 Z M12.96,19.79 L12.96,11.72 C12.96,11.42 12.85,11.16 12.64,10.94 C12.43,10.73 12.17,10.62 11.86,10.62 C11.56,10.62 11.3,10.73 11.08,10.94 C10.87,11.15 10.76,11.41 10.76,11.72 L10.76,19.22 C10.76,19.92 11.13,20.27 11.86,20.27 C12.25,20.26 12.62,20.1 12.96,19.79 Z M14.06,27.26 L14.06,12.48 C14.06,11.75 13.73,11.17 13.07,10.75 C13.37,11.09 13.51,11.54 13.51,12.1 L13.51,27.64 C13.51,28.19 13.36,28.64 13.07,28.98 C13.73,28.57 14.06,27.99 14.06,27.26 Z" id="形狀" fill="#1D4764"></path>
            <path d="M93.84,150.19 C93.84,149.42 94.16,148.76 94.81,148.21 C95.45,147.66 96.23,147.39 97.14,147.39 C98.04,147.39 98.82,147.66 99.47,148.21 C100.12,148.76 100.44,149.42 100.44,150.19 L100.44,153.29 L98.24,153.29 L98.24,148.98 C98.24,148.68 98.13,148.42 97.92,148.2 C97.71,147.99 97.45,147.88 97.14,147.88 C96.84,147.88 96.58,147.99 96.36,148.2 C96.15,148.41 96.04,148.67 96.04,148.98 L96.04,156.72 C96.45,156.37 97.01,156.2 97.72,156.2 C99.53,156.2 100.44,157.04 100.44,158.73 L100.44,164.08 C100.44,164.85 100.12,165.51 99.47,166.06 C98.82,166.61 98.05,166.88 97.14,166.88 C96.23,166.88 95.45,166.61 94.81,166.06 C94.17,165.51 93.84,164.85 93.84,164.08 L93.84,150.19 L93.84,150.19 Z M94.94,149.74 L94.94,164.52 C94.94,165.25 95.27,165.83 95.93,166.25 C95.63,165.91 95.49,165.46 95.49,164.9 L95.49,149.36 C95.49,148.81 95.64,148.36 95.93,148.02 C95.27,148.43 94.94,149.01 94.94,149.74 Z M96.04,157.21 L96.04,165.28 C96.04,165.58 96.15,165.84 96.36,166.06 C96.57,166.27 96.83,166.38 97.14,166.38 C97.44,166.38 97.7,166.27 97.92,166.06 C98.13,165.85 98.24,165.59 98.24,165.28 L98.24,157.78 C98.24,157.08 97.87,156.73 97.14,156.73 C96.75,156.74 96.38,156.9 96.04,157.21 Z M98.98,148.36 C99.22,148.66 99.34,149.1 99.34,149.66 L99.34,152.78 L99.89,152.78 L99.89,149.95 C99.89,149.25 99.58,148.72 98.98,148.36 Z M98.98,156.82 C99.22,157.17 99.34,157.61 99.34,158.15 L99.34,164.6 C99.34,165.13 99.22,165.57 98.98,165.91 C99.59,165.5 99.89,164.95 99.89,164.26 L99.89,158.47 C99.89,157.79 99.58,157.24 98.98,156.82 Z" id="形狀" fill="#1D4764"></path>
        </g>
    </g>
</svg>