<?xml version="1.0" encoding="UTF-8"?>
<svg width="110px" height="177px" viewBox="0 0 110 177" version="1.1" xmlns="http://www.w3.org/2000/svg" xmlns:xlink="http://www.w3.org/1999/xlink">
    <!-- Generator: Sketch 55.1 (78136) - https://sketchapp.com -->
    <title>card-43copy</title>
    <desc>Created with Sketch.</desc>
    <g id="Page-1" stroke="none" stroke-width="1" fill="none" fill-rule="evenodd">
        <g id="card-43copy" fill-rule="nonzero">
            <path d="M96.02,0.26 L12.98,0.26 C5.84,0.26 0,6.1 0,13.24 L0,163.76 C0,170.9 5.84,176.74 12.98,176.74 L96.03,176.74 C103.17,176.74 109.01,170.9 109.01,163.76 L109.01,13.24 C109,6.1 103.16,0.26 96.02,0.26 Z" id="路徑" fill="#EBEBEB"></path>
            <path d="M30.03,66.09 C25.37,66.09 21.58,62.3 21.58,57.64 C21.58,52.98 25.37,49.19 30.03,49.19 C34.69,49.19 38.48,52.98 38.48,57.64 C38.48,62.3 34.69,66.09 30.03,66.09 Z M30.03,50.11 C25.88,50.11 22.5,53.49 22.5,57.64 C22.5,61.79 25.88,65.17 30.03,65.17 C34.18,65.17 37.56,61.79 37.56,57.64 C37.56,53.49 34.18,50.11 30.03,50.11 Z" id="形狀" fill="#1D4764"></path>
            <path d="M46.01,66.09 C41.35,66.09 37.56,62.3 37.56,57.64 C37.56,52.98 41.35,49.19 46.01,49.19 C50.67,49.19 54.46,52.98 54.46,57.64 C54.46,62.3 50.67,66.09 46.01,66.09 Z M46.01,50.11 C41.86,50.11 38.48,53.49 38.48,57.64 C38.48,61.79 41.86,65.17 46.01,65.17 C50.16,65.17 53.54,61.79 53.54,57.64 C53.54,53.49 50.16,50.11 46.01,50.11 Z" id="形狀" fill="#1D4764"></path>
            <path d="M38.02,52.24 C33.36,52.24 29.57,48.45 29.57,43.79 C29.57,39.13 33.36,35.34 38.02,35.34 C42.68,35.34 46.47,39.13 46.47,43.79 C46.47,48.45 42.68,52.24 38.02,52.24 Z M38.02,36.26 C33.87,36.26 30.49,39.64 30.49,43.79 C30.49,47.94 33.87,51.32 38.02,51.32 C42.17,51.32 45.55,47.94 45.55,43.79 C45.55,39.64 42.17,36.26 38.02,36.26 Z" id="形狀" fill="#1D4764"></path>
            <path d="M48.87,83.7 L27.17,83.7 L27.17,82.78 C37.44,82.78 37.56,65.8 37.56,65.63 L38.48,65.63 C38.48,82.59 48.77,82.78 48.87,82.78 L48.87,83.7 L48.87,83.7 Z M31.17,82.79 L45.43,82.79 C42.68,81.5 39.1,78.4 37.94,70.93 C37.2,75.13 35.42,80.64 31.17,82.79 Z" id="形狀" fill="#1D4764"></path>
            <path d="M30.03,124.04 C25.37,124.04 21.58,120.25 21.58,115.59 C21.58,110.93 25.37,107.14 30.03,107.14 C34.69,107.14 38.48,110.93 38.48,115.59 C38.48,120.25 34.69,124.04 30.03,124.04 Z M30.03,108.06 C25.88,108.06 22.5,111.44 22.5,115.59 C22.5,119.74 25.88,123.12 30.03,123.12 C34.18,123.12 37.56,119.74 37.56,115.59 C37.56,111.44 34.18,108.06 30.03,108.06 Z" id="形狀" fill="#1D4764"></path>
            <path d="M46.01,124.04 C41.35,124.04 37.56,120.25 37.56,115.59 C37.56,110.93 41.35,107.14 46.01,107.14 C50.67,107.14 54.46,110.93 54.46,115.59 C54.46,120.25 50.67,124.04 46.01,124.04 Z M46.01,108.06 C41.86,108.06 38.48,111.44 38.48,115.59 C38.48,119.74 41.86,123.12 46.01,123.12 C50.16,123.12 53.54,119.74 53.54,115.59 C53.54,111.44 50.16,108.06 46.01,108.06 Z" id="形狀" fill="#1D4764"></path>
            <path d="M38.02,110.19 C33.36,110.19 29.57,106.4 29.57,101.74 C29.57,97.08 33.36,93.29 38.02,93.29 C42.68,93.29 46.47,97.08 46.47,101.74 C46.47,106.4 42.68,110.19 38.02,110.19 Z M38.02,94.21 C33.87,94.21 30.49,97.59 30.49,101.74 C30.49,105.89 33.87,109.27 38.02,109.27 C42.17,109.27 45.55,105.89 45.55,101.74 C45.55,97.59 42.17,94.21 38.02,94.21 Z" id="形狀" fill="#1D4764"></path>
            <path d="M48.87,141.66 L27.17,141.66 L27.17,140.74 C37.44,140.74 37.56,123.76 37.56,123.59 L38.48,123.59 C38.48,140.55 48.77,140.74 48.87,140.74 L48.87,141.66 L48.87,141.66 Z M31.17,140.74 L45.43,140.74 C42.68,139.45 39.1,136.35 37.94,128.88 C37.2,133.08 35.42,138.59 31.17,140.74 Z" id="形狀" fill="#1D4764"></path>
            <path d="M79.69,127.81 C75.03,127.81 71.24,124.02 71.24,119.36 C71.24,114.7 75.03,110.91 79.69,110.91 C84.35,110.91 88.14,114.7 88.14,119.36 C88.14,124.02 84.35,127.81 79.69,127.81 Z M79.69,111.82 C75.54,111.82 72.16,115.2 72.16,119.35 C72.16,123.5 75.54,126.88 79.69,126.88 C83.84,126.88 87.22,123.5 87.22,119.35 C87.22,115.2 83.85,111.82 79.69,111.82 Z" id="形狀" fill="#1D4764"></path>
            <path d="M63.71,127.81 C59.05,127.81 55.26,124.02 55.26,119.36 C55.26,114.7 59.05,110.91 63.71,110.91 C68.37,110.91 72.16,114.7 72.16,119.36 C72.16,124.02 68.37,127.81 63.71,127.81 Z M63.71,111.82 C59.56,111.82 56.18,115.2 56.18,119.35 C56.18,123.5 59.56,126.88 63.71,126.88 C67.86,126.88 71.24,123.5 71.24,119.35 C71.24,115.2 67.87,111.82 63.71,111.82 Z" id="形狀" fill="#1D4764"></path>
            <path d="M71.7,141.66 C67.04,141.66 63.25,137.87 63.25,133.21 C63.25,128.55 67.04,124.76 71.7,124.76 C76.36,124.76 80.15,128.55 80.15,133.21 C80.15,137.87 76.36,141.66 71.7,141.66 Z M71.7,125.67 C67.55,125.67 64.17,129.05 64.17,133.2 C64.17,137.35 67.55,140.73 71.7,140.73 C75.85,140.73 79.2300221,137.35 79.2300221,133.2 C79.24,129.05 75.86,125.67 71.7,125.67 Z" id="形狀" fill="#1D4764"></path>
            <path d="M72.16,111.37 L71.24,111.37 C71.24,94.41 60.95,94.22 60.85,94.22 L60.85,93.3 L82.55,93.3 L82.55,94.22 C72.29,94.21 72.16,111.2 72.16,111.37 Z M64.29,94.21 C67.04,95.5 70.62,98.6 71.78,106.07 C72.53,101.87 74.3,96.36 78.55,94.21 L64.29,94.21 Z" id="形狀" fill="#1D4764"></path>
            <path d="M79.69,69.85 C75.03,69.85 71.24,66.06 71.24,61.4 C71.24,56.74 75.03,52.95 79.69,52.95 C84.35,52.95 88.14,56.74 88.14,61.4 C88.14,66.06 84.35,69.85 79.69,69.85 Z M79.69,53.87 C75.54,53.87 72.16,57.25 72.16,61.4 C72.16,65.55 75.54,68.93 79.69,68.93 C83.84,68.93 87.22,65.55 87.22,61.4 C87.22,57.25 83.85,53.87 79.69,53.87 Z" id="形狀" fill="#1D4764"></path>
            <path d="M63.71,69.85 C59.05,69.85 55.26,66.06 55.26,61.4 C55.26,56.74 59.05,52.95 63.71,52.95 C68.37,52.95 72.16,56.74 72.16,61.4 C72.16,66.06 68.37,69.85 63.71,69.85 Z M63.71,53.87 C59.56,53.87 56.18,57.25 56.18,61.4 C56.18,65.55 59.56,68.93 63.71,68.93 C67.86,68.93 71.24,65.55 71.24,61.4 C71.24,57.25 67.87,53.87 63.71,53.87 Z" id="形狀" fill="#1D4764"></path>
            <path d="M71.7,83.7 C67.04,83.7 63.25,79.91 63.25,75.25 C63.25,70.59 67.04,66.8 71.7,66.8 C76.36,66.8 80.15,70.59 80.15,75.25 C80.15,79.91 76.36,83.7 71.7,83.7 Z M71.7,67.72 C67.55,67.72 64.17,71.1 64.17,75.25 C64.17,79.4 67.55,82.78 71.7,82.78 C75.85,82.78 79.2300221,79.4 79.2300221,75.25 C79.24,71.1 75.86,67.72 71.7,67.72 Z" id="形狀" fill="#1D4764"></path>
            <path d="M72.16,53.41 L71.24,53.41 C71.24,36.45 60.95,36.26 60.85,36.26 L60.85,35.34 L82.55,35.34 L82.55,36.26 C72.29,36.26 72.16,53.24 72.16,53.41 Z M64.29,36.26 C67.04,37.55 70.62,40.65 71.78,48.12 C72.53,43.92 74.3,38.41 78.55,36.26 L64.29,36.26 Z" id="形狀" fill="#1D4764"></path>
            <g id="群組" transform="translate(7.000000, 33.000000)" fill="#1D4764">
                <circle id="橢圓形" cx="2.53" cy="7.12" r="2.33"></circle>
                <circle id="橢圓形" cx="7.2" cy="7.12" r="2.33"></circle>
                <circle id="橢圓形" cx="4.86" cy="3.07" r="2.33"></circle>
                <circle id="橢圓形" cx="92.47" cy="103.88" r="2.33"></circle>
                <circle id="橢圓形" cx="87.81" cy="103.88" r="2.33"></circle>
                <circle id="橢圓形" cx="90.14" cy="107.93" r="2.33"></circle>
            </g>
            <path d="M15.11,29.49 L11.54,29.49 L11.54,28.99 L12.22,28.99 L12.22,25.06 L8.51,25.06 L8.51,24.48 L12.22,10.25 L14.42,10.25 L14.42,24.48 L15.1,24.48 L15.1,25.06 L14.42,25.06 L14.42,28.99 L15.1,28.99 L15.1,29.49 L15.11,29.49 Z M12.22,24.48 L12.22,12.56 L9.14,24.48 L12.22,24.48 Z M13.32,28.99 L13.32,10.75 L12.77,10.75 L12.77,28.99 L13.32,28.99 Z" id="形狀" fill="#1D4764"></path>
            <path d="M93.89,147.52 L97.46,147.52 L97.46,148.02 L96.78,148.02 L96.78,151.95 L100.49,151.95 L100.49,152.53 L96.78,166.76 L94.58,166.76 L94.58,152.53 L93.9,152.53 L93.9,151.95 L94.58,151.95 L94.58,148.02 L93.9,148.02 L93.9,147.52 L93.89,147.52 Z M95.68,148.01 L95.68,166.25 L96.23,166.25 L96.23,148.01 L95.68,148.01 Z M96.78,152.52 L96.78,164.44 L99.86,152.52 L96.78,152.52 Z" id="形狀" fill="#1D4764"></path>
        </g>
    </g>
</svg>