<?xml version="1.0" encoding="UTF-8"?>
<svg width="110px" height="177px" viewBox="0 0 110 177" version="1.1" xmlns="http://www.w3.org/2000/svg" xmlns:xlink="http://www.w3.org/1999/xlink">
    <!-- Generator: Sketch 55.1 (78136) - https://sketchapp.com -->
    <title>card-30copy</title>
    <desc>Created with Sketch.</desc>
    <g id="Page-1" stroke="none" stroke-width="1" fill="none" fill-rule="evenodd">
        <g id="card-30copy" fill-rule="nonzero">
            <path d="M96.02,0.26 L12.98,0.26 C5.84,0.26 0,6.1 0,13.24 L0,163.76 C0,170.9 5.84,176.74 12.98,176.74 L96.03,176.74 C103.17,176.74 109.01,170.9 109.01,163.76 L109.01,13.24 C109,6.1 103.16,0.26 96.02,0.26 Z" id="路徑" fill="#EBEBEB"></path>
            <path d="M38.73,141.2 L37.81,141.2 C37.81,115.65 22.68,115.31 22.04,115.31 L22.04,114.39 C37.63,114.39 37.81,88.76 37.81,88.5 L38.73,88.5 C38.73,114.09 54.35,114.39 54.5,114.39 L54.5,115.31 C38.91,115.31 38.73,140.94 38.73,141.2 Z M25.11,114.97 C29.35,116.29 36.66,120.62 38.36,134.81 C39.42,127.65 42.49,116.77 51.42,114.73 C47.18,113.41 39.87,109.08 38.17,94.89 C37.11,102.05 34.04,112.93 25.11,114.97 Z" id="形狀" fill="#E37F45"></path>
            <path d="M38.73,88.5 L37.81,88.5 C37.81,62.95 22.68,62.61 22.04,62.61 L22.04,61.69 C37.62,61.69 37.81,36.06 37.81,35.8 L37.81,35.8 L38.73,35.8 C38.73,61.35 53.86,61.69 54.5,61.69 L54.5,62.61 C38.91,62.61 38.73,88.24 38.73,88.5 Z M25.11,62.27 C29.35,63.59 36.66,67.92 38.36,82.11 C39.42,74.95 42.49,64.07 51.42,62.03 C47.18,60.71 39.87,56.38 38.17,42.19 C37.11,49.35 34.04,60.23 25.11,62.27 Z" id="形狀" fill="#E37F45"></path>
            <path d="M71.19,141.2 L70.27,141.2 C70.27,115.65 55.14,115.31 54.5,115.31 L54.5,114.39 C70.09,114.39 70.27,88.76 70.27,88.5 L70.27,88.5 L71.19,88.5 C71.19,114.09 86.81,114.39 86.96,114.39 L86.96,115.31 C71.38,115.31 71.19,140.94 71.19,141.2 Z M57.58,114.97 C61.82,116.29 69.14,120.62 70.83,134.81 C71.89,127.65 74.96,116.77 83.89,114.73 C79.65,113.41 72.34,109.08 70.64,94.89 C69.57,102.05 66.5,112.93 57.58,114.97 Z" id="形狀" fill="#E37F45"></path>
            <path d="M71.19,88.5 L70.27,88.5 C70.27,62.95 55.14,62.61 54.5,62.61 L54.5,61.69 C70.09,61.69 70.27,36.06 70.27,35.8 L70.27,35.8 L71.19,35.8 C71.19,61.35 86.32,61.69 86.96,61.69 L86.96,62.61 C71.38,62.61 71.19,88.24 71.19,88.5 Z M57.58,62.27 C61.82,63.59 69.14,67.92 70.83,82.11 C71.89,74.95 74.96,64.07 83.89,62.03 C79.65,60.71 72.34,56.38 70.64,42.19 C69.57,49.35 66.5,60.23 57.58,62.27 Z" id="形狀" fill="#E37F45"></path>
            <path d="M15.11,29.49 L11.54,29.49 L11.54,28.99 L12.22,28.99 L12.22,25.06 L8.51,25.06 L8.51,24.48 L12.22,10.25 L14.42,10.25 L14.42,24.48 L15.1,24.48 L15.1,25.06 L14.42,25.06 L14.42,28.99 L15.1,28.99 L15.1,29.49 L15.11,29.49 Z M12.22,24.48 L12.22,12.56 L9.14,24.48 L12.22,24.48 Z M13.32,28.99 L13.32,10.75 L12.77,10.75 L12.77,28.99 L13.32,28.99 Z" id="形狀" fill="#E37F45"></path>
            <path d="M93.89,147.52 L97.46,147.52 L97.46,148.02 L96.78,148.02 L96.78,151.95 L100.49,151.95 L100.49,152.53 L96.78,166.76 L94.58,166.76 L94.58,152.53 L93.9,152.53 L93.9,151.95 L94.58,151.95 L94.58,148.02 L93.9,148.02 L93.9,147.52 L93.89,147.52 Z M95.68,148.01 L95.68,166.25 L96.23,166.25 L96.23,148.01 L95.68,148.01 Z M96.78,152.52 L96.78,164.44 L99.86,152.52 L96.78,152.52 Z" id="形狀" fill="#E37F45"></path>
            <path d="M11.86,31.91 C11.86,31.91 11.86,39.49 7.19,39.49 C7.19,39.49 11.86,39.49 11.86,47.07 C11.86,47.07 11.86,39.49 16.53,39.49 C16.53,39.49 11.86,39.49 11.86,31.91 Z" id="路徑" fill="#E37F45"></path>
            <path d="M97.14,145.09 C97.14,145.09 97.14,137.51 101.81,137.51 C101.81,137.51 97.14,137.51 97.14,129.93 C97.14,129.93 97.14,137.51 92.47,137.51 C92.47,137.51 97.14,137.51 97.14,145.09 Z" id="路徑" fill="#E37F45"></path>
        </g>
    </g>
</svg>