<?xml version="1.0" encoding="UTF-8"?>
<svg width="110px" height="177px" viewBox="0 0 110 177" version="1.1" xmlns="http://www.w3.org/2000/svg" xmlns:xlink="http://www.w3.org/1999/xlink">
    <!-- Generator: Sketch 55.1 (78136) - https://sketchapp.com -->
    <title>card-10copy</title>
    <desc>Created with Sketch.</desc>
    <g id="Page-1" stroke="none" stroke-width="1" fill="none" fill-rule="evenodd">
        <g id="card-10copy" fill-rule="nonzero">
            <path d="M96.02,0.26 L12.98,0.26 C5.84,0.26 0,6.1 0,13.24 L0,163.76 C0,170.9 5.84,176.74 12.98,176.74 L96.03,176.74 C103.17,176.74 109.01,170.9 109.01,163.76 L109.01,13.24 C109,6.1 103.16,0.26 96.02,0.26 Z" id="路徑" fill="#EBEBEB"></path>
            <g id="群組" transform="translate(7.000000, 10.000000)" fill="#1D4764">
                <path d="M4.4,19.49 L0.83,19.49 L0.83,18.99 L1.51,18.99 L1.51,0.75 L0.83,0.75 L0.83,0.25 L3.71,0.25 L3.71,18.99 L4.39,18.99 L4.39,19.49 L4.4,19.49 Z M2.61,18.99 L2.61,0.75 L2.07,0.75 L2.07,18.99 L2.61,18.99 Z" id="形狀"></path>
                <path d="M12.2,16.82 C12.2,17.59 11.88,18.25 11.23,18.8 C10.59,19.35 9.81,19.62 8.9,19.62 C8,19.62 7.22,19.35 6.57,18.8 C5.92,18.25 5.6,17.59 5.6,16.82 L5.6,2.92 C5.6,2.15 5.92,1.49 6.57,0.94 C7.22,0.39 7.99,0.12 8.9,0.12 C9.81,0.12 10.59,0.39 11.23,0.94 C11.87,1.49 12.2,2.15 12.2,2.92 L12.2,16.82 Z M7.07,18.67 C6.83,18.32 6.71,17.88 6.71,17.34 L6.71,2.4 C6.71,1.87 6.83,1.43 7.07,1.09 C6.46,1.5 6.16,2.05 6.16,2.74 L6.16,17.02 C6.16,17.7 6.46,18.25 7.07,18.67 Z M10,18.02 L10,1.72 C10,1.42 9.89,1.16 9.68,0.94 C9.47,0.73 9.21,0.62 8.9,0.62 C8.59,0.62 8.34,0.73 8.12,0.94 C7.91,1.15 7.8,1.41 7.8,1.72 L7.8,18.03 C7.8,18.33 7.91,18.59 8.12,18.81 C8.33,19.02 8.59,19.13 8.9,19.13 C9.21,19.13 9.46,19.02 9.68,18.81 C9.9,18.59 10,18.33 10,18.02 Z M11.1,17.26 L11.1,2.48 C11.1,1.75 10.77,1.17 10.11,0.75 C10.41,1.09 10.55,1.54 10.55,2.1 L10.55,17.64 C10.55,18.19 10.4,18.64 10.11,18.98 C10.77,18.57 11.1,17.99 11.1,17.26 Z" id="形狀"></path>
            </g>
            <g id="群組" transform="translate(89.000000, 147.000000)" fill="#1D4764">
                <path d="M8.6,0.52 L12.17,0.52 L12.17,1.02 L11.49,1.02 L11.49,19.26 L12.17,19.26 L12.17,19.76 L9.29,19.76 L9.29,1.02 L8.6,1.02 L8.6,0.52 Z M10.38,1.01 L10.38,19.25 L10.93,19.25 L10.93,1.01 L10.38,1.01 Z" id="形狀"></path>
                <path d="M0.8,3.18 C0.8,2.41 1.12,1.75 1.77,1.2 C2.42,0.65 3.19,0.38 4.1,0.38 C5,0.38 5.78,0.65 6.43,1.2 C7.08,1.75 7.4,2.41 7.4,3.18 L7.4,17.07 C7.4,17.84 7.08,18.5 6.43,19.05 C5.78,19.6 5.01,19.87 4.1,19.87 C3.19,19.87 2.41,19.6 1.77,19.05 C1.13,18.5 0.8,17.84 0.8,17.07 L0.8,3.18 Z M1.9,2.74 L1.9,17.52 C1.9,18.25 2.23,18.83 2.89,19.25 C2.59,18.91 2.45,18.46 2.45,17.9 L2.45,2.36 C2.45,1.81 2.6,1.36 2.89,1.02 C2.23,1.43 1.9,2.01 1.9,2.74 Z M2.99,1.98 L2.99,18.29 C2.99,18.59 3.1,18.85 3.31,19.07 C3.52,19.28 3.78,19.39 4.09,19.39 C4.39,19.39 4.65,19.28 4.87,19.07 C5.08,18.86 5.19,18.6 5.19,18.29 L5.19,1.98 C5.19,1.68 5.08,1.42 4.87,1.2 C4.66,0.99 4.4,0.88 4.09,0.88 C3.79,0.88 3.53,0.99 3.31,1.2 C3.1,1.41 2.99,1.67 2.99,1.98 Z M5.93,1.33 C6.17,1.68 6.29,2.12 6.29,2.66 L6.29,17.6 C6.29,18.13 6.17,18.57 5.93,18.91 C6.54,18.5 6.84,17.95 6.84,17.26 L6.84,2.98 C6.84,2.3 6.54,1.75 5.93,1.33 Z" id="形狀"></path>
            </g>
            <path d="M11.86,36.19 C9.54,36.19 7.65,38.08 7.65,40.4 C7.65,42.72 9.54,44.61 11.86,44.61 C14.18,44.61 16.07,42.72 16.07,40.4 C16.07,38.08 14.18,36.19 11.86,36.19 Z" id="路徑" fill="#1D4764"></path>
            <path d="M97.14,132.39 C94.82,132.39 92.93,134.28 92.93,136.6 C92.93,138.92 94.82,140.81 97.14,140.81 C99.46,140.81 101.35,138.92 101.35,136.6 C101.35,134.27 99.46,132.39 97.14,132.39 Z" id="路徑" fill="#1D4764"></path>
            <path d="M31.68,90.82 C31.83,90.82 35.45,90.94 35.45,97.22 L36.37,97.22 C36.37,97.16 36.41,90.82 40.13,90.82 L40.13,89.9 L31.68,89.9 L31.68,90.82 Z M34,90.82 L37.64,90.82 C36.77,91.59 36.25,92.73 35.93,93.84 C35.48,92.32 34.74,91.39 34,90.82 Z" id="形狀" fill="#1D4764"></path>
            <path d="M73.1,98.54 C65.62,98.54 59.47,104.31 58.84,111.62 C57.47,111.18 56.01,110.94 54.5,110.94 C52.99,110.94 51.53,111.18 50.16,111.62 C49.53,104.3 43.38,98.54 35.9,98.54 C28,98.54 21.58,104.96 21.58,112.86 C21.58,115.08 22.1,117.18 23.01,119.06 C22.1,120.94 21.58,123.04 21.58,125.26 C21.58,133.16 28,139.58 35.9,139.58 C39.45,139.58 42.69,138.27 45.2,136.13 C47.7,138.28 50.95,139.58 54.5,139.58 C58.05,139.58 61.29,138.27 63.8,136.13 C66.3,138.28 69.55,139.58 73.1,139.58 C81,139.58 87.42,133.16 87.42,125.26 C87.42,123.04 86.9,120.94 85.99,119.06 C86.9,117.18 87.42,115.08 87.42,112.86 C87.42,104.97 81,98.54 73.1,98.54 Z M73.1,138.68 C69.82,138.68 66.81,137.49 64.48,135.53 C67.15,132.93 68.82,129.3 68.82,125.28 C68.82,121.26 67.15,117.63 64.48,115.03 C66.81,113.07 69.82,111.88 73.1,111.88 C80.49,111.88 86.5,117.89 86.5,125.29 C86.5,132.66 80.49,138.68 73.1,138.68 Z M22.5,125.27 C22.5,117.88 28.51,111.86 35.91,111.86 C39.19,111.86 42.2,113.05 44.53,115.01 C41.86,117.61 40.19,121.24 40.19,125.26 C40.19,129.28 41.86,132.91 44.53,135.51 C42.2,137.47 39.19,138.66005 35.91,138.66005 C28.51,138.68 22.5,132.66 22.5,125.27 Z M35.9,99.46 C42.99,99.46 48.79,104.99 49.26,111.96 C47.77,112.55 46.4,113.38 45.2,114.41 C42.7,112.26 39.45,110.96 35.9,110.96 C30.63,110.96 26.03,113.83 23.55,118.07 C22.87,116.47 22.5,114.71 22.5,112.87 C22.5,105.47 28.51,99.46 35.9,99.46 Z M41.09,125.27 C41.09,117.88 47.1,111.86 54.49,111.86 C61.88,111.86 67.89,117.87 67.89,125.27 C67.89,132.66 61.88,138.67 54.49,138.67 C47.1,138.67 41.09,132.66 41.09,125.27 Z M73.1,110.95 C69.55,110.95 66.31,112.26 63.8,114.4 C62.6,113.37 61.23,112.54 59.74,111.95 C60.21,104.98 66.01,99.45 73.1,99.45 C80.49,99.45 86.5,105.46 86.5,112.86 C86.5,114.7 86.13,116.46 85.45,118.06 C82.97,113.82 78.37,110.95 73.1,110.95 Z" id="形狀" fill="#1D4764"></path>
            <path d="M68.87,90.82 C69.02,90.82 72.64,90.94 72.64,97.22 L73.56,97.22 C73.56,97.16 73.61,90.82 77.32,90.82 L77.32,90.36 L77.32,90.36 L77.32,89.9 L68.88,89.9 L68.87,90.82 Z M73.12,93.84 C72.67,92.32 71.93,91.39 71.19,90.82 L74.83,90.82 C73.96,91.59 73.44,92.73 73.12,93.84 Z" id="形狀" fill="#1D4764"></path>
            <path d="M87.42,47.6 C87.42,39.7 81,33.28 73.1,33.28 C69.55,33.28 66.31,34.59 63.8,36.73 C61.3,34.58 58.05,33.28 54.5,33.28 C50.95,33.28 47.71,34.59 45.2,36.73 C42.7,34.58 39.45,33.28 35.9,33.28 C28,33.28 21.58,39.7 21.58,47.6 C21.58,49.82 22.1,51.92 23.01,53.8 C22.1,55.68 21.58,57.78 21.58,60 C21.58,67.9 28,74.32 35.9,74.32 C43.38,74.32 49.53,68.55 50.16,61.24 C51.53,61.68 52.99,61.92 54.5,61.92 C56.01,61.92 57.47,61.68 58.84,61.24 C59.47,68.56 65.62,74.32 73.1,74.32 C81,74.32 87.42,67.9 87.42,60 C87.42,57.78 86.9,55.68 85.99,53.8 C86.89,51.93 87.42,49.83 87.42,47.6 Z M73.1,73.42 C66.01,73.42 60.21,67.89 59.74,60.92 C61.23,60.33 62.6,59.5 63.8,58.47 C66.3,60.62 69.55,61.92 73.1,61.92 C78.37,61.92 82.97,59.05 85.45,54.81 C86.13,56.41 86.5,58.17 86.5,60.01 C86.5,67.4 80.49,73.42 73.1,73.42 Z M22.5,60.01 C22.5,58.17 22.87,56.41 23.55,54.81 C26.04,59.06 30.64,61.92 35.9,61.92 C39.45,61.92 42.69,60.61 45.2,58.47 C46.4,59.5 47.77,60.33 49.26,60.92 C48.79,67.89 42.99,73.42 35.9,73.42 C28.51,73.42 22.5,67.4 22.5,60.01 Z M35.9,34.2 C39.18,34.2 42.19,35.39 44.52,37.35 C41.85,39.95 40.18,43.58 40.18,47.6 C40.18,51.62 41.85,55.25 44.52,57.85 C42.19,59.81 39.18,61 35.9,61 C28.51,61 22.49,54.99 22.49,47.6 C22.5,40.21 28.51,34.2 35.9,34.2 Z M41.09,47.6 C41.09,40.21 47.1,34.19 54.49,34.19 C61.88,34.19 67.89,40.2 67.89,47.6 C67.89,54.99 61.88,61 54.49,61 C47.1,61 41.09,54.99 41.09,47.6 Z M86.5,47.6 C86.5,54.99 80.49,61 73.1,61 C69.82,61 66.81,59.81 64.48,57.85 C67.15,55.25 68.82,51.62 68.82,47.6 C68.82,43.58 67.15,39.95 64.48,37.35 C66.81,35.39 69.82,34.2 73.1,34.2 C80.49,34.2 86.5,40.21 86.5,47.6 Z" id="形狀" fill="#1D4764"></path>
            <path d="M73.56,75.66 L72.64,75.66 C72.64,75.72 72.6,82.06 68.88,82.06 L68.88,82.98 L77.32,82.98 L77.32,82.52 L77.32,82.52 L77.32,82.06 C77.28,82.06 73.56,81.98 73.56,75.66 Z M73.07,79.03 C73.52,80.55 74.26,81.48 75,82.05 L71.36,82.05 C72.23,81.29 72.76,80.15 73.07,79.03 Z" id="形狀" fill="#1D4764"></path>
            <path d="M40.13,82.06 C39.98,82.06 36.36,81.94 36.36,75.66 L35.44,75.66 C35.44,75.72 35.4,82.06 31.68,82.06 L31.68,82.98 L40.13,82.98 L40.13,82.06 Z M34.17,82.06 C35.04,81.29 35.56,80.15 35.88,79.04 C36.33,80.56 37.07,81.49 37.81,82.06 L34.17,82.06 Z" id="形狀" fill="#1D4764"></path>
        </g>
    </g>
</svg>