<?xml version="1.0" encoding="UTF-8"?>
<svg width="110px" height="177px" viewBox="0 0 110 177" version="1.1" xmlns="http://www.w3.org/2000/svg" xmlns:xlink="http://www.w3.org/1999/xlink">
    <!-- Generator: Sketch 55.1 (78136) - https://sketchapp.com -->
    <title>card-40copy</title>
    <desc>Created with Sketch.</desc>
    <g id="Page-1" stroke="none" stroke-width="1" fill="none" fill-rule="evenodd">
        <g id="card-40copy" fill-rule="nonzero">
            <path d="M96.02,0.26 L12.98,0.26 C5.84,0.26 0,6.1 0,13.24 L0,163.76 C0,170.9 5.84,176.74 12.98,176.74 L96.03,176.74 C103.17,176.74 109.01,170.9 109.01,163.76 L109.01,13.24 C109,6.1 103.16,0.26 96.02,0.26 Z" id="路徑" fill="#EBEBEB"></path>
            <path d="M38.27,101.37 C29.07,101.37 21.58,93.88 21.58,84.68 C21.58,75.48 29.07,67.99 38.27,67.99 C47.47,67.99 54.96,75.48 54.96,84.68 C54.96,93.88 47.47,101.37 38.27,101.37 Z M38.27,68.91 C29.57,68.91 22.5,75.99 22.5,84.68 C22.5,93.38 29.58,100.45 38.27,100.45 C46.96,100.45 54.04,93.37 54.04,84.68 C54.04,75.98 46.97,68.91 38.27,68.91 Z" id="形狀" fill="#1D4764"></path>
            <path d="M70.73,101.37 C61.53,101.37 54.04,93.88 54.04,84.68 C54.04,75.48 61.53,67.99 70.73,67.99 C79.93,67.99 87.42,75.48 87.42,84.68 C87.42,93.88 79.93,101.37 70.73,101.37 Z M70.73,68.91 C62.03,68.91 54.96,75.99 54.96,84.68 C54.96,93.38 62.04,100.45 70.73,100.45 C79.42,100.45 86.5,93.38 86.5,84.68 C86.5,75.98 79.43,68.91 70.73,68.91 Z" id="形狀" fill="#1D4764"></path>
            <path d="M54.5,73.23 C45.3,73.23 37.81,65.74 37.81,56.54 C37.81,47.34 45.3,39.86 54.5,39.86 C63.7,39.86 71.19,47.35 71.19,56.55 C71.19,65.75 63.7,73.23 54.5,73.23 Z M54.5,40.77 C45.8,40.77 38.73,47.85 38.73,56.54 C38.73,65.23 45.8,72.32 54.5,72.32 C63.2,72.32 70.27,65.24 70.27,56.55 C70.27,47.86 63.2,40.77 54.5,40.77 Z" id="形狀" fill="#1D4764"></path>
            <path d="M76.54,137.14 L32.46,137.14 L32.46,136.22 C53.79,136.22 54.04,101.25 54.04,100.9 L54.96,100.9 C54.96,135.81 76.32,136.22 76.54,136.22 L76.54,137.14 L76.54,137.14 Z M38.24,136.23 L71.99,136.23 C66.09,134.25 56.34,128 54.39,108.26 C53.2,117.44 49.53,132.4 38.24,136.23 Z" id="形狀" fill="#1D4764"></path>
            <path d="M15.5,29.49 L11.93,29.49 L11.93,28.99 L12.61,28.99 L12.11,23.41 L10.14,23.41 L9.6,28.99 L10.28,28.99 L10.28,29.49 L8.22,29.49 L8.22,28.99 L8.9,28.99 L10.83,10.25 L13.03,10.25 L14.81,28.99 L15.49,28.99 L15.49,29.49 L15.5,29.49 Z M12.1,22.93 L11.19,12.54 L10.18,22.93 L12.1,22.93 Z M13.72,28.99 L11.99,10.75 L11.44,10.75 L13.17,28.99 L13.72,28.99 Z" id="形狀" fill="#1D4764"></path>
            <path d="M93.5,147.52 L97.07,147.52 L97.07,148.02 L96.39,148.02 L96.89,153.6 L98.86,153.6 L99.41,148.02 L98.73,148.02 L98.73,147.52 L100.8,147.52 L100.8,148.02 L100.12,148.02 L98.19,166.76 L95.99,166.76 L94.21,148.02 L93.5,148.02 L93.5,147.52 Z M95.28,148.01 L97.01,166.25 L97.56,166.25 L95.83,148.01 L95.28,148.01 Z M96.9,154.07 L97.81,164.46 L98.82,154.07 L96.9,154.07 Z" id="形狀" fill="#1D4764"></path>
            <g id="群組" transform="translate(7.000000, 33.000000)" fill="#1D4764">
                <circle id="橢圓形" cx="2.53" cy="7.12" r="2.33"></circle>
                <circle id="橢圓形" cx="7.2" cy="7.12" r="2.33"></circle>
                <circle id="橢圓形" cx="4.86" cy="3.07" r="2.33"></circle>
                <circle id="橢圓形" cx="92.47" cy="103.88" r="2.33"></circle>
                <circle id="橢圓形" cx="87.8" cy="103.88" r="2.33"></circle>
                <circle id="橢圓形" cx="90.14" cy="107.93" r="2.33"></circle>
            </g>
        </g>
    </g>
</svg>