<?xml version="1.0" encoding="UTF-8"?>
<svg width="110px" height="177px" viewBox="0 0 110 177" version="1.1" xmlns="http://www.w3.org/2000/svg" xmlns:xlink="http://www.w3.org/1999/xlink">
    <!-- Generator: Sketch 55.1 (78136) - https://sketchapp.com -->
    <title>card-20copy</title>
    <desc>Created with Sketch.</desc>
    <g id="Page-1" stroke="none" stroke-width="1" fill="none" fill-rule="evenodd">
        <g id="card-20copy" fill-rule="nonzero">
            <path d="M96.02,0.26 L12.98,0.26 C5.84,0.26 0,6.1 0,13.24 L0,163.76 C0,170.9 5.84,176.74 12.98,176.74 L96.03,176.74 C103.17,176.74 109.01,170.9 109.01,163.76 L109.01,13.24 C109,6.1 103.16,0.26 96.02,0.26 Z" id="路徑" fill="#EBEBEB"></path>
            <path d="M54.96,137.88 L54.04,137.88 C54.04,127.9 51.93,123.17 50.16,120.96 C48.29,118.63 46.46,118.57 46.38,118.57 L46.38,117.65 L62.61,117.65 L62.61,118.57 C55.05,118.57 54.96,137.69 54.96,137.88 Z M48.95,118.57 C50.96,119.88 53.57,123.08 54.56,130.86 C55.19,126.26 56.59,120.72 59.7,118.57 L48.95,118.57 Z" id="形狀" fill="#E37F45"></path>
            <path d="M38.73,85.36 L37.81,85.36 C37.81,75.38 35.7,70.65 33.93,68.44 C32.06,66.11 30.23,66.05 30.15,66.05 L30.15,65.13 L46.38,65.13 L46.38,66.05 C38.82,66.06 38.73,85.17 38.73,85.36 Z M32.72,66.06 C34.73,67.37 37.34,70.57 38.33,78.35 C38.96,73.75 40.36,68.21 43.47,66.06 L32.72,66.06 Z" id="形狀" fill="#E37F45"></path>
            <path d="M71.19,85.36 L70.27,85.36 C70.27,75.38 68.16,70.65 66.39,68.44 C64.52,66.11 62.69,66.05 62.61,66.05 L62.61,65.13 L78.84,65.13 L78.84,66.05 C71.28,66.06 71.19,85.17 71.19,85.36 Z M65.18,66.06 C67.19,67.37 69.8,70.57 70.79,78.35 C71.42,73.75 72.82,68.21 75.93,66.06 L65.18,66.06 Z" id="形狀" fill="#E37F45"></path>
            <path d="M46.84,111.62 L45.92,111.62 C45.92,101.64 43.81,96.91 42.04,94.7 C40.17,92.37 38.34,92.31 38.26,92.31 L38.26,91.39 L54.5,91.39 L54.5,92.31 C46.93,92.32 46.84,111.43 46.84,111.62 Z M40.83,92.32 C42.84,93.63 45.45,96.83 46.44,104.61 C47.07,100.01 48.47,94.47 51.58,92.32 L40.83,92.32 Z" id="形狀" fill="#E37F45"></path>
            <path d="M63.07,111.62 L62.15,111.62 C62.15,101.64 60.04,96.91 58.27,94.7 C56.4,92.37 54.57,92.31 54.49,92.31 L54.49,91.39 L70.72,91.39 L70.72,92.31 C63.16,92.32 63.07,111.43 63.07,111.62 Z M57.06,92.32 C59.07,93.63 61.68,96.83 62.67,104.61 C63.3,100.01 64.7,94.47 67.81,92.32 L57.06,92.32 Z" id="形狀" fill="#E37F45"></path>
            <path d="M30.61,59.1 L29.7,59.1 C29.7,49.12 27.59,44.39 25.82,42.18 C23.95,39.85 22.12,39.79 22.04,39.79 L22.04,38.87 L38.27,38.87 L38.27,39.79 C30.7,39.8 30.61,58.91 30.61,59.1 Z M24.6,39.8 C26.61,41.11 29.22,44.31 30.21,52.09 C30.84,47.49 32.24,41.95 35.35,39.8 L24.6,39.8 Z" id="形狀" fill="#E37F45"></path>
            <path d="M79.3,59.1 L78.38,59.1 C78.38,49.12 76.27,44.39 74.5,42.18 C72.63,39.85 70.8,39.79 70.72,39.79 L70.72,38.87 L86.95,38.87 L86.95,39.79 C79.39,39.8 79.3,58.91 79.3,59.1 Z M73.29,39.8 C75.3,41.11 77.91,44.31 78.9,52.09 C79.53,47.49 80.93,41.95 84.04,39.8 L73.29,39.8 Z" id="形狀" fill="#E37F45"></path>
            <path d="M15.26,10.75 L12.01,29.49 L9.84,29.49 L13.09,10.75 L10.68,10.75 L10.68,16.02 L8.53,16.02 L8.53,10.25 L15.26,10.25 L15.26,10.75 Z M9.63,15.54 L9.63,10.75 L9.08,10.75 L9.08,15.54 L9.63,15.54 Z M14.21,10.75 L13.66,10.75 L10.5,28.99 L11.05,28.99 L14.21,10.75 Z" id="形狀" fill="#E37F45"></path>
            <path d="M93.74,166.25 L96.99,147.51 L99.16,147.51 L95.91,166.25 L98.32,166.25 L98.32,160.98 L100.47,160.98 L100.47,166.75 L93.74,166.75 L93.74,166.25 Z M94.78,166.25 L95.33,166.25 L98.5,148.01 L97.95,148.01 L94.78,166.25 Z M99.37,161.46 L99.37,166.25 L99.92,166.25 L99.92,161.46 L99.37,161.46 Z" id="形狀" fill="#E37F45"></path>
            <path d="M11.86,46.15 C11.86,46.15 11.86,34.78 16.53,34.78 L7.19,34.78 C7.19,34.78 11.86,34.78 11.86,46.15 Z" id="路徑" fill="#E37F45"></path>
            <path d="M97.14,130.85 C97.14,130.85 97.14,142.22 92.47,142.22 L101.81,142.22 C101.81,142.22 97.14,142.22 97.14,130.85 Z" id="路徑" fill="#E37F45"></path>
        </g>
    </g>
</svg>