<?xml version="1.0" encoding="UTF-8"?>
<svg width="110px" height="177px" viewBox="0 0 110 177" version="1.1" xmlns="http://www.w3.org/2000/svg" xmlns:xlink="http://www.w3.org/1999/xlink">
    <!-- Generator: Sketch 55.1 (78136) - https://sketchapp.com -->
    <title>card-32copy</title>
    <desc>Created with Sketch.</desc>
    <g id="Page-1" stroke="none" stroke-width="1" fill="none" fill-rule="evenodd">
        <g id="card-32copy" fill-rule="nonzero">
            <path d="M96.02,0.26 L12.98,0.26 C5.84,0.26 0,6.1 0,13.24 L0,163.76 C0,170.9 5.84,176.74 12.98,176.74 L96.03,176.74 C103.17,176.74 109.01,170.9 109.01,163.76 L109.01,13.24 C109,6.1 103.16,0.26 96.02,0.26 Z" id="路徑" fill="#EBEBEB"></path>
            <path d="M44.38,106.07 L43.46,106.07 C43.46,89.21 33.52,88.96 33.1,88.96 L33.1,88.04 C43.34,88.04 43.46,71.1 43.46,70.93 L44.38,70.93 C44.38,87.8 54.32,88.04 54.74,88.04 L54.74,88.96 C44.5,88.96 44.38,105.89 44.38,106.07 Z M35.68,88.6 C38.48,89.63 42.72,92.54 44,100.78 C44.82,96.15 46.9,89.94 52.16,88.4 C49.36,87.37 45.12,84.46 43.84,76.22 C43.02,80.85 40.94,87.06 35.68,88.6 Z" id="形狀" fill="#E37F45"></path>
            <path d="M44.38,141.2 L43.46,141.2 C43.46,124.29 33.2,124.09 33.1,124.09 L33.1,123.17 C43.34,123.17 43.46,106.23 43.46,106.06 L44.38,106.06 C44.38,122.93 54.32,123.17 54.74,123.17 L54.74,124.09 C44.5,124.09 44.38,141.03 44.38,141.2 Z M35.68,123.73 C38.48,124.76 42.72,127.67 44,135.91 C44.82,131.28 46.9,125.07 52.16,123.53 C49.36,122.5 45.12,119.59 43.84,111.35 C43.02,115.98 40.94,122.19 35.68,123.73 Z" id="形狀" fill="#E37F45"></path>
            <path d="M44.38,70.93 L43.46,70.93 C43.46,54.02 33.2,53.82 33.1,53.82 L33.1,52.9 C43.34,52.9 43.46,35.96 43.46,35.79 L44.38,35.79 C44.38,52.66 54.32,52.9 54.74,52.9 L54.74,53.82 C44.5,53.83 44.38,70.76 44.38,70.93 Z M35.68,53.47 C38.48,54.5 42.72,57.41 44,65.65 C44.82,61.02 46.9,54.81 52.16,53.27 C49.36,52.24 45.12,49.33 43.84,41.09 C43.02,45.71 40.94,51.93 35.68,53.47 Z" id="形狀" fill="#E37F45"></path>
            <path d="M66.02,106.07 L65.1,106.07 C65.1,89.21 55.16,88.96 54.74,88.96 L54.74,88.04 C64.98,88.04 65.1,71.1 65.1,70.93 L66.02,70.93 C66.02,87.84 76.28,88.04 76.38,88.04 L76.38,88.96 C66.14,88.96 66.02,105.89 66.02,106.07 Z M57.32,88.6 C60.12,89.63 64.36,92.54 65.64,100.78 C66.46,96.15 68.54,89.94 73.8,88.4 C71,87.37 66.76,84.46 65.48,76.22 C64.66,80.85 62.58,87.06 57.32,88.6 Z" id="形狀" fill="#E37F45"></path>
            <path d="M66.02,141.2 L65.1,141.2 C65.1,124.29 54.84,124.09 54.74,124.09 L54.74,123.17 C64.98,123.17 65.1,106.23 65.1,106.06 L66.02,106.06 C66.02,122.97 76.28,123.17 76.38,123.17 L76.38,124.09 C66.15,124.09 66.02,141.03 66.02,141.2 Z M57.32,123.73 C60.12,124.76 64.36,127.67 65.64,135.91 C66.46,131.28 68.54,125.07 73.8,123.53 C71,122.5 66.76,119.59 65.48,111.35 C64.66,115.98 62.58,122.19 57.32,123.73 Z" id="形狀" fill="#E37F45"></path>
            <path d="M66.02,70.93 L65.1,70.93 C65.1,54.02 54.84,53.82 54.74,53.82 L54.74,52.9 C64.98,52.9 65.1,35.96 65.1,35.79 L66.02,35.79 C66.02,52.7 76.28,52.9 76.38,52.9 L76.38,53.82 C66.15,53.83 66.02,70.76 66.02,70.93 Z M57.32,53.47 C60.12,54.5 64.36,57.41 65.64,65.65 C66.46,61.02 68.54,54.81 73.8,53.27 C71,52.24 66.76,49.33 65.48,41.09 C64.66,45.71 62.58,51.93 57.32,53.47 Z" id="形狀" fill="#E37F45"></path>
            <path d="M15.16,26.82 C15.16,27.59 14.84,28.25 14.19,28.8 C13.54,29.35 12.77,29.62 11.86,29.62 C10.96,29.62 10.18,29.35 9.53,28.8 C8.88,28.25 8.56,27.59 8.56,26.82 L8.56,12.92 C8.56,12.15 8.88,11.49 9.53,10.94 C10.18,10.39 10.95,10.12 11.86,10.12 C12.77,10.12 13.55,10.39 14.19,10.94 C14.83,11.49 15.16,12.15 15.16,12.92 L15.16,16.02 L12.96,16.02 L12.96,11.71 C12.96,11.41 12.85,11.15 12.64,10.93 C12.43,10.72 12.17,10.61 11.86,10.61 C11.55,10.61 11.3,10.72 11.08,10.93 C10.87,11.14 10.76,11.4 10.76,11.71 L10.76,19.45 C11.17,19.11 11.73,18.94 12.44,18.94 C14.25,18.94 15.16,19.78 15.16,21.46 L15.16,26.82 L15.16,26.82 Z M10.02,28.67 C9.78,28.32 9.66,27.88 9.66,27.34 L9.66,12.4 C9.66,11.87 9.78,11.43 10.02,11.09 C9.41,11.5 9.11,12.05 9.11,12.74 L9.11,27.02 C9.11,27.7 9.42,28.25 10.02,28.67 Z M12.96,28.02 L12.96,20.52 C12.96,19.83 12.59,19.49 11.86,19.49 C11.47,19.49 11.1,19.64 10.76,19.95 L10.76,28.02 C10.76,28.32 10.87,28.58 11.08,28.8 C11.29,29.01 11.55,29.12 11.86,29.12 C12.17,29.12 12.42,29.01 12.64,28.8 C12.85,28.59 12.96,28.33 12.96,28.02 Z M14.06,15.54 L14.06,12.48 C14.06,11.75 13.73,11.17 13.07,10.75 C13.37,11.09 13.51,11.54 13.51,12.1 L13.51,15.53 L14.06,15.53 L14.06,15.54 Z M14.06,27.26 L14.06,21.02 C14.06,20.3 13.73,19.8 13.07,19.54 C13.37,19.83 13.51,20.23 13.51,20.75 L13.51,27.64 C13.51,28.19 13.36,28.64 13.07,28.98 C13.73,28.57 14.06,27.99 14.06,27.26 Z" id="形狀" fill="#E37F45"></path>
            <path d="M93.84,150.18 C93.84,149.41 94.16,148.75 94.81,148.2 C95.45,147.65 96.23,147.38 97.14,147.38 C98.04,147.38 98.82,147.65 99.47,148.2 C100.12,148.75 100.44,149.41 100.44,150.18 L100.44,164.07 C100.44,164.84 100.12,165.5 99.47,166.05 C98.82,166.6 98.05,166.87 97.14,166.87 C96.23,166.87 95.45,166.6 94.81,166.05 C94.17,165.5 93.84,164.84 93.84,164.07 L93.84,160.97 L96.04,160.97 L96.04,165.28 C96.04,165.58 96.15,165.84 96.36,166.06 C96.57,166.27 96.83,166.38 97.14,166.38 C97.45,166.38 97.7,166.27 97.92,166.06 C98.13,165.85 98.24,165.59 98.24,165.28 L98.24,157.54 C97.83,157.88 97.27,158.05 96.56,158.05 C94.75,158.05 93.84,157.21 93.84,155.53 L93.84,150.18 L93.84,150.18 Z M94.94,149.74 L94.94,155.98 C94.94,156.7 95.27,157.2 95.93,157.46 C95.63,157.17 95.49,156.77 95.49,156.25 L95.49,149.36 C95.49,148.81 95.64,148.36 95.93,148.02 C95.27,148.43 94.94,149.01 94.94,149.74 Z M94.94,161.46 L94.94,164.52 C94.94,165.25 95.27,165.83 95.93,166.25 C95.63,165.91 95.49,165.46 95.49,164.9 L95.49,161.47 L94.94,161.47 L94.94,161.46 Z M96.04,148.98 L96.04,156.48 C96.04,157.17 96.41,157.51 97.14,157.51 C97.53,157.51 97.9,157.36 98.24,157.05 L98.24,148.98 C98.24,148.68 98.13,148.42 97.92,148.2 C97.71,147.99 97.45,147.88 97.14,147.88 C96.83,147.88 96.58,147.99 96.36,148.2 C96.15,148.41 96.04,148.67 96.04,148.98 Z M98.98,148.33 C99.22,148.68 99.34,149.12 99.34,149.66 L99.34,164.6 C99.34,165.13 99.22,165.57 98.98,165.91 C99.59,165.5 99.89,164.95 99.89,164.26 L99.89,149.98 C99.89,149.3 99.58,148.75 98.98,148.33 Z" id="形狀" fill="#E37F45"></path>
            <path d="M11.86,31.91 C11.86,31.91 11.86,39.49 7.19,39.49 C7.19,39.49 11.86,39.49 11.86,47.07 C11.86,47.07 11.86,39.49 16.53,39.49 C16.53,39.49 11.86,39.49 11.86,31.91 Z" id="路徑" fill="#E37F45"></path>
            <path d="M97.14,145.09 C97.14,145.09 97.14,137.51 101.81,137.51 C101.81,137.51 97.14,137.51 97.14,129.93 C97.14,129.93 97.14,137.51 92.47,137.51 C92.47,137.51 97.14,137.51 97.14,145.09 Z" id="路徑" fill="#E37F45"></path>
        </g>
    </g>
</svg>