<?xml version="1.0" encoding="UTF-8"?>
<svg width="110px" height="177px" viewBox="0 0 110 177" version="1.1" xmlns="http://www.w3.org/2000/svg" xmlns:xlink="http://www.w3.org/1999/xlink">
    <!-- Generator: Sketch 55.1 (78136) - https://sketchapp.com -->
    <title>card-08copy</title>
    <desc>Created with Sketch.</desc>
    <g id="Page-1" stroke="none" stroke-width="1" fill="none" fill-rule="evenodd">
        <g id="card-08copy" fill-rule="nonzero">
            <path d="M96.02,0.26 L12.98,0.26 C5.84,0.26 0,6.1 0,13.24 L0,163.76 C0,170.9 5.84,176.74 12.98,176.74 L96.03,176.74 C103.17,176.74 109.01,170.9 109.01,163.76 L109.01,13.24 C109,6.1 103.16,0.26 96.02,0.26 Z" id="路徑" fill="#EBEBEB"></path>
            <path d="M15.16,26.82 C15.16,27.59 14.84,28.25 14.19,28.8 C13.55,29.35 12.77,29.62 11.86,29.62 C10.96,29.62 10.18,29.35 9.53,28.8 C8.88,28.25 8.56,27.59 8.56,26.82 L8.56,21.88 C8.56,20.71 9.2,19.85 10.49,19.32 C9.2,18.82 8.56,17.97 8.56,16.77 L8.56,12.92 C8.56,12.15 8.88,11.49 9.53,10.94 C10.18,10.39 10.95,10.12 11.86,10.12 C12.77,10.12 13.55,10.39 14.19,10.94 C14.83,11.49 15.16,12.15 15.16,12.92 L15.16,16.77 C15.16,17.97 14.52,18.82 13.24,19.32 C14.52,19.86 15.16,20.71 15.16,21.88 L15.16,26.82 Z M10.1,18.61 C9.8,18.27 9.66,17.79 9.66,17.17 L9.66,12.4 C9.66,11.87 9.78,11.43 10.02,11.09 C9.41,11.5 9.11,12.05 9.11,12.74 L9.11,16.8 C9.11,17.58 9.44,18.19 10.1,18.61 Z M10.1,20.03 C9.44,20.45 9.11,21.06 9.11,21.85 L9.11,27.01 C9.11,27.69 9.41,28.24 10.02,28.66 C9.78,28.31 9.66,27.87 9.66,27.33 L9.66,21.46 C9.66,20.85 9.81,20.37 10.1,20.03 Z M12.96,17.98 L12.96,11.72 C12.96,11.42 12.85,11.16 12.64,10.94 C12.43,10.72 12.17,10.62 11.86,10.62 C11.55,10.62 11.3,10.73 11.08,10.94 C10.87,11.15 10.76,11.41 10.76,11.72 L10.76,17.98 C10.76,18.28 10.87,18.54 11.08,18.76 C11.29,18.97 11.55,19.08 11.86,19.08 C12.17,19.08 12.42,18.97 12.64,18.76 C12.85,18.54 12.96,18.28 12.96,17.98 Z M12.96,28.02 L12.96,20.67 C12.96,20.37 12.85,20.11 12.64,19.89 C12.43,19.67 12.17,19.57 11.86,19.57 C11.55,19.57 11.3,19.68 11.08,19.89 C10.87,20.1 10.76,20.36 10.76,20.67 L10.76,28.02 C10.76,28.32 10.87,28.58 11.08,28.8 C11.29,29.01 11.55,29.12 11.86,29.12 C12.17,29.12 12.42,29.01 12.64,28.8 C12.86,28.59 12.96,28.33 12.96,28.02 Z M14.06,17.21 L14.06,12.48 C14.06,11.75 13.73,11.17 13.07,10.75 C13.37,11.09 13.51,11.54 13.51,12.1 L13.51,17.59 C13.51,18.15 13.36,18.6 13.07,18.94 C13.73,18.52 14.06,17.95 14.06,17.21 Z M14.06,27.26 L14.06,21.44 C14.06,20.71 13.73,20.13 13.07,19.71 C13.37,20.05 13.51,20.5 13.51,21.05 L13.51,27.65 C13.51,28.2 13.36,28.65 13.07,28.99 C13.73,28.57 14.06,27.99 14.06,27.26 Z" id="形狀" fill="#1D4764"></path>
            <path d="M93.84,150.18 C93.84,149.41 94.16,148.75 94.81,148.2 C95.45,147.65 96.23,147.38 97.14,147.38 C98.04,147.38 98.82,147.65 99.47,148.2 C100.12,148.75 100.44,149.41 100.44,150.18 L100.44,155.12 C100.44,156.29 99.8,157.15 98.51,157.68 C99.8,158.18 100.44,159.03 100.44,160.23 L100.44,164.08 C100.44,164.85 100.12,165.51 99.47,166.06 C98.82,166.61 98.05,166.88 97.14,166.88 C96.23,166.88 95.45,166.61 94.81,166.06 C94.17,165.51 93.84,164.85 93.84,164.08 L93.84,160.23 C93.84,159.03 94.48,158.18 95.76,157.68 C94.48,157.14 93.84,156.29 93.84,155.12 L93.84,150.18 Z M94.94,149.74 L94.94,155.56 C94.94,156.29 95.27,156.87 95.93,157.29 C95.63,156.95 95.49,156.5 95.49,155.95 L95.49,149.35 C95.49,148.8 95.64,148.35 95.93,148.01 C95.27,148.43 94.94,149.01 94.94,149.74 Z M94.94,159.79 L94.94,164.52 C94.94,165.25 95.27,165.83 95.93,166.25 C95.63,165.91 95.49,165.46 95.49,164.9 L95.49,159.41 C95.49,158.85 95.64,158.4 95.93,158.06 C95.27,158.48 94.94,159.05 94.94,159.79 Z M96.04,148.98 L96.04,156.33 C96.04,156.63 96.15,156.89 96.36,157.11 C96.57,157.32 96.83,157.43 97.14,157.43 C97.45,157.43 97.7,157.32 97.92,157.11 C98.13,156.9 98.24,156.64 98.24,156.33 L98.24,148.98 C98.24,148.68 98.13,148.42 97.92,148.2 C97.71,147.99 97.45,147.88 97.14,147.88 C96.83,147.88 96.58,147.99 96.36,148.2 C96.15,148.41 96.04,148.67 96.04,148.98 Z M96.04,159.02 L96.04,165.28 C96.04,165.58 96.15,165.84 96.36,166.06 C96.57,166.27 96.83,166.38 97.14,166.38 C97.45,166.38 97.7,166.27 97.92,166.06 C98.13,165.85 98.24,165.59 98.24,165.28 L98.24,159.02 C98.24,158.72 98.13,158.46 97.92,158.24 C97.71,158.03 97.45,157.92 97.14,157.92 C96.83,157.92 96.58,158.03 96.36,158.24 C96.15,158.46 96.04,158.72 96.04,159.02 Z M98.9,156.97 C99.56,156.55 99.89,155.94 99.89,155.15 L99.89,149.99 C99.89,149.31 99.59,148.76 98.98,148.34 C99.22,148.69 99.34,149.13 99.34,149.67 L99.34,155.54 C99.34,156.15 99.19,156.63 98.9,156.97 Z M98.9,158.39 C99.2,158.73 99.34,159.21 99.34,159.82 L99.34,164.59 C99.34,165.12 99.22,165.56 98.98,165.9 C99.59,165.49 99.89,164.94 99.89,164.25 L99.89,160.19 C99.89,159.42 99.56,158.81 98.9,158.39 Z" id="形狀" fill="#1D4764"></path>
            <path d="M16.07,40.4 C16.07,38.08 14.18,36.19 11.86,36.19 C9.54,36.19 7.65,38.08 7.65,40.4 C7.65,42.72 9.54,44.61 11.86,44.61 C14.18,44.61 16.07,42.72 16.07,40.4 Z" id="路徑" fill="#1D4764"></path>
            <path d="M97.14,132.39 C94.82,132.39 92.93,134.28 92.93,136.6 C92.93,138.92 94.82,140.81 97.14,140.81 C99.46,140.81 101.35,138.92 101.35,136.6 C101.35,134.27 99.46,132.39 97.14,132.39 Z" id="路徑" fill="#1D4764"></path>
            <path d="M35.9,98.54 C28,98.54 21.58,104.96 21.58,112.86 C21.58,115.08 22.1,117.18 23.01,119.06 C22.1,120.94 21.58,123.04 21.58,125.26 C21.58,133.16 28,139.58 35.9,139.58 C43.8,139.58 50.22,133.16 50.22,125.26 C50.22,123.04 49.7,120.94 48.79,119.06 C49.7,117.18 50.22,115.08 50.22,112.86 C50.22,104.97 43.8,98.54 35.9,98.54 Z M22.5,125.27 C22.5,117.88 28.51,111.86 35.91,111.86 C43.3,111.86 49.32,117.87 49.32,125.27 C49.32,132.66 43.31,138.670012 35.91,138.670012 C28.51,138.68 22.5,132.66 22.5,125.27 Z M35.9,110.95 C30.63,110.95 26.03,113.82 23.55,118.06 C22.87,116.46 22.5,114.7 22.5,112.86 C22.5,105.47 28.51,99.45 35.91,99.45 C43.3,99.45 49.32,105.46 49.32,112.86 C49.32,114.7 48.95,116.46 48.27,118.06 C45.77,113.82 41.17,110.95 35.9,110.95 Z" id="形狀" fill="#1D4764"></path>
            <path d="M31.68,90.82 C31.72,90.82 35.44,90.89 35.44,97.22 L36.36,97.22 C36.36,97.16 36.4,90.82 40.12,90.82 L40.12,89.9 L31.68,89.9 L31.68,90.36 L31.68,90.36 L31.68,90.82 Z M34,90.82 L37.64,90.82 C36.77,91.59 36.25,92.73 35.93,93.84 C35.48,92.32 34.74,91.39 34,90.82 Z" id="形狀" fill="#1D4764"></path>
            <path d="M73.1,98.54 C65.2,98.54 58.78,104.96 58.78,112.86 C58.78,115.08 59.3,117.18 60.21,119.06 C59.3,120.94 58.78,123.04 58.78,125.26 C58.78,133.16 65.2,139.58 73.1,139.58 C81,139.58 87.42,133.16 87.42,125.26 C87.42,123.04 86.9,120.94 85.99,119.06 C86.9,117.18 87.42,115.08 87.42,112.86 C87.42,104.97 80.99,98.54 73.1,98.54 Z M59.69,125.27 C59.69,117.88 65.7,111.86 73.09,111.86 C80.48,111.86 86.5,117.87 86.5,125.27 C86.5,132.66 80.49,138.670012 73.09,138.670012 C65.71,138.68 59.69,132.66 59.69,125.27 Z M73.1,110.95 C67.83,110.95 63.23,113.82 60.75,118.06 C60.07,116.46 59.7,114.7 59.7,112.86 C59.7,105.47 65.71,99.45 73.1,99.45 C80.49,99.45 86.51,105.46 86.51,112.86 C86.51,114.7 86.14,116.46 85.46,118.06 C82.97,113.82 78.37,110.95 73.1,110.95 Z" id="形狀" fill="#1D4764"></path>
            <path d="M68.87,90.82 C69.02,90.82 72.64,90.94 72.64,97.22 L73.56,97.22 C73.56,97.16 73.6,90.82 77.32,90.82 L77.32,89.9 L68.87,89.9 L68.87,90.82 Z M71.2,90.82 L74.84,90.82 C73.97,91.59 73.45,92.73 73.13,93.84 C72.67,92.32 71.93,91.39 71.2,90.82 Z" id="形狀" fill="#1D4764"></path>
            <path d="M73.1,33.28 C65.2,33.28 58.78,39.7 58.78,47.6 C58.78,49.82 59.3,51.92 60.21,53.8 C59.3,55.68 58.78,57.78 58.78,60 C58.78,67.9 65.2,74.32 73.1,74.32 C81,74.32 87.42,67.9 87.42,60 C87.42,57.78 86.9,55.68 85.99,53.8 C86.9,51.92 87.42,49.82 87.42,47.6 C87.42,39.71 80.99,33.28 73.1,33.28 Z M59.69,60.01 C59.69,58.17 60.06,56.41 60.74,54.81 C63.23,59.06 67.83,61.92 73.09,61.92 C78.36,61.92 82.96,59.05 85.44,54.81 C86.12,56.41 86.49,58.17 86.49,60.01 C86.49,67.4 80.48,73.42 73.08,73.42 C65.71,73.42 59.69,67.4 59.69,60.01 Z M73.1,61.01 C65.71,61.01 59.7,55 59.7,47.61 C59.7,40.22 65.71,34.2 73.1,34.2 C80.49,34.2 86.51,40.21 86.51,47.61 C86.5,54.99 80.49,61.01 73.1,61.01 Z" id="形狀" fill="#1D4764"></path>
            <path d="M77.32,82.06 C77.17,82.06 73.55,81.94 73.55,75.66 L72.63,75.66 C72.63,75.72 72.59,82.06 68.87,82.06 L68.87,82.98 L77.32,82.98 L77.32,82.06 Z M71.36,82.06 C72.23,81.29 72.75,80.15 73.07,79.04 C73.52,80.56 74.26,81.49 75,82.06 L71.36,82.06 Z" id="形狀" fill="#1D4764"></path>
            <path d="M35.9,33.28 C28,33.28 21.58,39.7 21.58,47.6 C21.58,49.82 22.1,51.92 23.01,53.8 C22.1,55.68 21.58,57.78 21.58,60 C21.58,67.9 28,74.32 35.9,74.32 C43.8,74.32 50.22,67.9 50.22,60 C50.22,57.78 49.7,55.68 48.79,53.8 C49.7,51.92 50.22,49.82 50.22,47.6 C50.22,39.71 43.8,33.28 35.9,33.28 Z M22.5,60.01 C22.5,58.17 22.87,56.41 23.55,54.81 C26.04,59.06 30.64,61.92 35.9,61.92 C41.17,61.92 45.77,59.05 48.26,54.81 C48.94,56.41 49.31,58.17 49.31,60.01 C49.31,67.4 43.3,73.42 35.9,73.42 C28.51,73.42 22.5,67.4 22.5,60.01 Z M35.9,61.01 C28.51,61.01 22.49,55 22.49,47.61 C22.49,40.22 28.5,34.2 35.9,34.2 C43.29,34.2 49.31,40.21 49.31,47.61 C49.31,54.99 43.29,61.01 35.9,61.01 Z" id="形狀" fill="#1D4764"></path>
            <path d="M40.12,82.97 L40.12,82.05 C39.97,82.05 36.35,81.93 36.35,75.65 L35.43,75.65 C35.43,75.71 35.38,82.05 31.67,82.05 L31.67,82.51 L31.67,82.51 L31.67,82.97 L40.12,82.97 L40.12,82.97 Z M35.87,79.03 C36.32,80.55 37.06,81.48 37.8,82.05 L34.16,82.05 C35.03,81.29 35.56,80.15 35.87,79.03 Z" id="形狀" fill="#1D4764"></path>
        </g>
    </g>
</svg>