<?xml version="1.0" encoding="UTF-8"?>
<svg width="110px" height="177px" viewBox="0 0 110 177" version="1.1" xmlns="http://www.w3.org/2000/svg" xmlns:xlink="http://www.w3.org/1999/xlink">
    <!-- Generator: Sketch 55.1 (78136) - https://sketchapp.com -->
    <title>card-27copy</title>
    <desc>Created with Sketch.</desc>
    <g id="Page-1" stroke="none" stroke-width="1" fill="none" fill-rule="evenodd">
        <g id="card-27copy" fill-rule="nonzero">
            <path d="M96.02,0.26 L12.98,0.26 C5.84,0.26 0,6.1 0,13.24 L0,163.76 C0,170.9 5.84,176.74 12.98,176.74 L96.03,176.74 C103.17,176.74 109.01,170.9 109.01,163.76 L109.01,13.24 C109,6.1 103.16,0.26 96.02,0.26 Z" id="路徑" fill="#EBEBEB"></path>
            <path d="M54.96,141.2 L54.04,141.2 C54.04,126.27 51.25,106.22 37.98,95.44 C30.08,89.03 22.12,88.96 22.04,88.96 L22.04,88.04 C53.68,88.04 54.04,36.32 54.04,35.8 L54.96,35.8 C54.96,50.73 57.75,70.78 71.02,81.56 C78.92,87.97 86.88,88.04 86.96,88.04 L86.96,88.96 C55.32,88.96 54.96,140.68 54.96,141.2 Z M26.31,88.64 C29.47,89.38 34,91.03 38.56,94.73 C49.65,103.73 53.57,118.97 54.63,132.5 C56.19,118.35 61.88,91.58 82.69,88.36 C79.53,87.62 75,85.97 70.44,82.27 C59.35,73.27 55.43,58.03 54.37,44.5 C52.82,58.65 47.12,85.41 26.31,88.64 Z" id="形狀" fill="#E37F45"></path>
            <path d="M15.5,29.49 L11.93,29.49 L11.93,28.99 L12.61,28.99 L12.11,23.41 L10.14,23.41 L9.6,28.99 L10.28,28.99 L10.28,29.49 L8.22,29.49 L8.22,28.99 L8.9,28.99 L10.83,10.25 L13.03,10.25 L14.81,28.99 L15.49,28.99 L15.49,29.49 L15.5,29.49 Z M12.1,22.93 L11.19,12.54 L10.18,22.93 L12.1,22.93 Z M13.72,28.99 L11.99,10.75 L11.44,10.75 L13.17,28.99 L13.72,28.99 Z" id="形狀" fill="#E37F45"></path>
            <path d="M93.5,147.52 L97.07,147.52 L97.07,148.02 L96.39,148.02 L96.89,153.6 L98.86,153.6 L99.41,148.02 L98.73,148.02 L98.73,147.52 L100.8,147.52 L100.8,148.02 L100.12,148.02 L98.19,166.76 L95.99,166.76 L94.21,148.02 L93.5,148.02 L93.5,147.52 Z M95.28,148.01 L97.01,166.25 L97.56,166.25 L95.83,148.01 L95.28,148.01 Z M96.9,154.07 L97.81,164.46 L98.82,154.07 L96.9,154.07 Z" id="形狀" fill="#E37F45"></path>
            <path d="M11.86,31.91 C11.86,31.91 11.86,39.49 7.19,39.49 C7.19,39.49 11.86,39.49 11.86,47.07 C11.86,47.07 11.86,39.49 16.53,39.49 C16.53,39.49 11.86,39.49 11.86,31.91 Z" id="路徑" fill="#E37F45"></path>
            <path d="M97.14,145.09 C97.14,145.09 97.14,137.51 101.81,137.51 C101.81,137.51 97.14,137.51 97.14,129.93 C97.14,129.93 97.14,137.51 92.47,137.51 C92.47,137.51 97.14,137.51 97.14,145.09 Z" id="路徑" fill="#E37F45"></path>
        </g>
    </g>
</svg>