<?xml version="1.0" encoding="UTF-8"?>
<svg width="110px" height="177px" viewBox="0 0 110 177" version="1.1" xmlns="http://www.w3.org/2000/svg" xmlns:xlink="http://www.w3.org/1999/xlink">
    <!-- Generator: Sketch 55.1 (78136) - https://sketchapp.com -->
    <title>card-47copy</title>
    <desc>Created with Sketch.</desc>
    <g id="Page-1" stroke="none" stroke-width="1" fill="none" fill-rule="evenodd">
        <g id="card-47copy" fill-rule="nonzero">
            <path d="M96.02,0.26 L12.98,0.26 C5.84,0.26 0,6.1 0,13.24 L0,163.76 C0,170.9 5.84,176.74 12.98,176.74 L96.03,176.74 C103.17,176.74 109.01,170.9 109.01,163.76 L109.01,13.24 C109,6.1 103.16,0.26 96.02,0.26 Z" id="路徑" fill="#EBEBEB"></path>
            <g id="群組" transform="translate(21.000000, 85.000000)" fill="#1D4764">
                <path d="M6.35,44.95 C3.17,44.95 0.58,42.36 0.58,39.18 C0.58,36 3.17,33.41 6.35,33.41 C9.53,33.41 12.12,36 12.12,39.18 C12.12,42.36 9.53,44.95 6.35,44.95 Z M6.35,34.32 C3.67,34.32 1.5,36.5 1.5,39.17 C1.5,41.85 3.68,44.02 6.35,44.02 C9.02,44.02 11.2,41.84 11.2,39.17 C11.2,36.5 9.03,34.32 6.35,34.32 Z" id="形狀"></path>
                <path d="M16.98,44.95 C13.8,44.95 11.21,42.36 11.21,39.18 C11.21,36 13.8,33.41 16.98,33.41 C20.16,33.41 22.75,36 22.75,39.18 C22.74,42.36 20.16,44.95 16.98,44.95 Z M16.98,34.32 C14.3,34.32 12.13,36.5 12.13,39.17 C12.13,41.85 14.31,44.02 16.98,44.02 C19.65,44.02 21.83,41.84 21.83,39.17 C21.83,36.5 19.65,34.32 16.98,34.32 Z" id="形狀"></path>
                <path d="M11.66,35.74 C8.48,35.74 5.89,33.15 5.89,29.97 C5.89,26.79 8.48,24.2 11.66,24.2 C14.84,24.2 17.43,26.79 17.43,29.97 C17.43,33.15 14.84,35.74 11.66,35.74 Z M11.66,25.11 C8.98,25.11 6.81,27.29 6.81,29.96 C6.81,32.63 8.99,34.81 11.66,34.81 C14.33,34.81 16.51,32.63 16.51,29.96 C16.51,27.29 14.34,25.11 11.66,25.11 Z" id="形狀"></path>
                <path d="M6.35,21.15 C3.17,21.15 0.58,18.56 0.58,15.38 C0.58,12.2 3.17,9.61 6.35,9.61 C9.53,9.61 12.12,12.2 12.12,15.38 C12.12,18.56 9.53,21.15 6.35,21.15 Z M6.35,10.52 C3.67,10.52 1.5,12.7 1.5,15.37 C1.5,18.04 3.68,20.22 6.35,20.22 C9.02,20.22 11.2,18.04 11.2,15.37 C11.2,12.7 9.03,10.52 6.35,10.52 Z" id="形狀"></path>
                <path d="M16.98,21.15 C13.8,21.15 11.21,18.56 11.21,15.38 C11.21,12.2 13.8,9.61 16.98,9.61 C20.16,9.61 22.75,12.2 22.75,15.38 C22.74,18.56 20.16,21.15 16.98,21.15 Z M16.98,10.52 C14.3,10.52 12.13,12.7 12.13,15.37 C12.13,18.04 14.31,20.22 16.98,20.22 C19.65,20.22 21.83,18.04 21.83,15.37 C21.83,12.7 19.65,10.52 16.98,10.52 Z" id="形狀"></path>
                <path d="M11.66,11.94 C8.48,11.94 5.89,9.35 5.89,6.17 C5.89,2.99 8.48,0.4 11.66,0.4 C14.84,0.4 17.43,2.99 17.43,6.17 C17.43,9.35 14.84,11.94 11.66,11.94 Z M11.66,1.31 C8.98,1.31 6.81,3.49 6.81,6.16 C6.81,8.83 8.99,11.01 11.66,11.01 C14.33,11.01 16.51,8.83 16.51,6.16 C16.51,3.49 14.34,1.31 11.66,1.31 Z" id="形狀"></path>
                <path d="M18.88,56.66 L4.45,56.66 L4.45,55.74 C11.12,55.74 11.2,44.6 11.2,44.49 L12.12,44.49 C12.12,55.61 18.81,55.74 18.88,55.74 L18.88,56.66 Z M7.73,55.74 L15.92,55.74 C15.61,55.56 15.3,55.35 14.98,55.09 C13.73,54.08 12.31,52.23 11.62,48.92 C11.09,51.41 9.99,54.3 7.73,55.74 Z" id="形狀"></path>
            </g>
            <g id="群組" transform="translate(65.000000, 35.000000)" fill="#1D4764">
                <path d="M16.65,23.59 C13.47,23.59 10.88,21 10.88,17.82 C10.88,14.64 13.47,12.05 16.65,12.05 C19.83,12.05 22.42,14.64 22.42,17.82 C22.42,21.01 19.83,23.59 16.65,23.59 Z M16.65,12.97 C13.97,12.97 11.8,15.15 11.8,17.82 C11.8,20.49 13.98,22.67 16.65,22.67 C19.32,22.67 21.5,20.49 21.5,17.82 C21.5,15.15 19.33,12.97 16.65,12.97 Z" id="形狀"></path>
                <path d="M6.03,23.59 C2.85,23.59 0.26,21 0.26,17.82 C0.26,14.64 2.85,12.05 6.03,12.05 C9.21,12.05 11.8,14.64 11.8,17.82 C11.8,21.01 9.21,23.59 6.03,23.59 Z M6.03,12.97 C3.35,12.97 1.18,15.15 1.18,17.82 C1.18,20.49 3.36,22.67 6.03,22.67 C8.7,22.67 10.88,20.49 10.88,17.82 C10.88,15.15 8.7,12.97 6.03,12.97 Z" id="形狀"></path>
                <path d="M11.34,32.8 C8.16,32.8 5.57,30.21 5.57,27.03 C5.57,23.85 8.16,21.26 11.34,21.26 C14.52,21.26 17.11,23.85 17.11,27.03 C17.11,30.21 14.52,32.8 11.34,32.8 Z M11.34,22.18 C8.66,22.18 6.49,24.36 6.49,27.03 C6.49,29.7 8.67,31.88 11.34,31.88 C14.01,31.88 16.19,29.7 16.19,27.03 C16.19,24.36 14.01,22.18 11.34,22.18 Z" id="形狀"></path>
                <path d="M16.65,47.39 C13.47,47.39 10.88,44.8 10.88,41.62 C10.88,38.44 13.47,35.85 16.65,35.85 C19.83,35.85 22.42,38.44 22.42,41.62 C22.42,44.8 19.83,47.39 16.65,47.39 Z M16.65,36.77 C13.97,36.77 11.8,38.95 11.8,41.62 C11.8,44.29 13.98,46.47 16.65,46.47 C19.32,46.47 21.5,44.29 21.5,41.62 C21.5,38.95 19.33,36.77 16.65,36.77 Z" id="形狀"></path>
                <path d="M6.03,47.39 C2.85,47.39 0.26,44.8 0.26,41.62 C0.26,38.44 2.85,35.85 6.03,35.85 C9.21,35.85 11.8,38.44 11.8,41.62 C11.8,44.8 9.21,47.39 6.03,47.39 Z M6.03,36.77 C3.35,36.77 1.18,38.95 1.18,41.62 C1.18,44.29 3.36,46.47 6.03,46.47 C8.7,46.47 10.88,44.29 10.88,41.62 C10.88,38.95 8.7,36.77 6.03,36.77 Z" id="形狀"></path>
                <path d="M11.34,56.6 C8.16,56.6 5.57,54.01 5.57,50.83 C5.57,47.65 8.16,45.06 11.34,45.06 C14.52,45.06 17.11,47.65 17.11,50.83 C17.11,54.01 14.52,56.6 11.34,56.6 Z M11.34,45.98 C8.66,45.98 6.49,48.16 6.49,50.83 C6.49,53.5 8.67,55.68 11.34,55.68 C14.01,55.68 16.19,53.5 16.19,50.83 C16.19,48.16 14.01,45.98 11.34,45.98 Z" id="形狀"></path>
                <path d="M11.8,12.51 L10.88,12.51 C10.88,1.39 4.19,1.26 4.12,1.26 L4.12,0.34 L18.55,0.34 L18.55,1.26 C11.88,1.26 11.8,12.4 11.8,12.51 Z M7.08,1.26 C7.39,1.44 7.7,1.65 8.02,1.91 C9.27,2.92 10.69,4.77 11.38,8.08 C11.91,5.59 13.01,2.7 15.27,1.26 L7.08,1.26 Z" id="形狀"></path>
            </g>
            <g id="群組" transform="translate(50.000000, 85.000000)" fill="#1D4764">
                <path d="M6.47,44.95 C3.29,44.95 0.7,42.36 0.7,39.18 C0.7,36 3.29,33.41 6.47,33.41 C9.65,33.41 12.24,36 12.24,39.18 C12.24,42.36 9.65,44.95 6.47,44.95 Z M6.47,34.32 C3.79,34.32 1.62,36.5 1.62,39.17 C1.62,41.85 3.8,44.02 6.47,44.02 C9.15,44.02 11.32,41.84 11.32,39.17 C11.32,36.5 9.14,34.32 6.47,34.32 Z" id="形狀"></path>
                <path d="M17.09,44.95 C13.91,44.95 11.32,42.36 11.32,39.18 C11.32,36 13.91,33.41 17.09,33.41 C20.27,33.41 22.86,36 22.86,39.18 C22.86,42.36 20.27,44.95 17.09,44.95 Z M17.09,34.32 C14.41,34.32 12.24,36.5 12.24,39.17 C12.24,41.85 14.42,44.02 17.09,44.02 C19.77,44.02 21.9400343,41.84 21.9400343,39.17 C21.95,36.5 19.77,34.32 17.09,34.32 Z" id="形狀"></path>
                <path d="M11.78,35.74 C8.6,35.74 6.01,33.15 6.01,29.97 C6.01,26.79 8.6,24.2 11.78,24.2 C14.96,24.2 17.55,26.79 17.55,29.97 C17.55,33.15 14.96,35.74 11.78,35.74 Z M11.78,25.11 C9.1,25.11 6.93,27.29 6.93,29.96 C6.93,32.63 9.11,34.81 11.78,34.81 C14.46,34.81 16.63,32.63 16.63,29.96 C16.63,27.29 14.46,25.11 11.78,25.11 Z" id="形狀"></path>
                <path d="M6.47,21.15 C3.29,21.15 0.7,18.56 0.7,15.38 C0.7,12.2 3.29,9.61 6.47,9.61 C9.65,9.61 12.24,12.2 12.24,15.38 C12.24,18.56 9.65,21.15 6.47,21.15 Z M6.47,10.52 C3.79,10.52 1.62,12.7 1.62,15.37 C1.62,18.04 3.8,20.22 6.47,20.22 C9.15,20.22 11.32,18.04 11.32,15.37 C11.32,12.7 9.14,10.52 6.47,10.52 Z" id="形狀"></path>
                <path d="M17.09,21.15 C13.91,21.15 11.32,18.56 11.32,15.38 C11.32,12.2 13.91,9.61 17.09,9.61 C20.27,9.61 22.86,12.2 22.86,15.38 C22.86,18.56 20.27,21.15 17.09,21.15 Z M17.09,10.52 C14.41,10.52 12.24,12.7 12.24,15.37 C12.24,18.04 14.42,20.22 17.09,20.22 C19.77,20.22 21.94,18.04 21.94,15.37 C21.94,12.7 19.77,10.52 17.09,10.52 Z" id="形狀"></path>
                <path d="M11.78,11.94 C8.6,11.94 6.01,9.35 6.01,6.17 C6.01,2.99 8.6,0.4 11.78,0.4 C14.96,0.4 17.55,2.99 17.55,6.17 C17.55,9.35 14.96,11.94 11.78,11.94 Z M11.78,1.31 C9.1,1.31 6.93,3.49 6.93,6.16 C6.93,8.83 9.11,11.01 11.78,11.01 C14.46,11.01 16.63,8.83 16.63,6.16 C16.63,3.49 14.46,1.31 11.78,1.31 Z" id="形狀"></path>
                <path d="M18.99,56.66 L4.57,56.66 L4.57,55.74 C11.25,55.74 11.33,44.6 11.33,44.49 L12.25,44.49 C12.25,55.57 18.73,55.74 19.01,55.74 L18.99,56.66 Z M7.85,55.74 L16.04,55.74 C15.73,55.56 15.42,55.35 15.1,55.09 C13.85,54.08 12.43,52.23 11.74,48.92 C11.2,51.41 10.11,54.3 7.85,55.74 Z" id="形狀"></path>
            </g>
            <g id="群組" transform="translate(36.000000, 35.000000)" fill="#1D4764">
                <path d="M16.53,23.59 C13.35,23.59 10.76,21 10.76,17.82 C10.76,14.64 13.35,12.05 16.53,12.05 C19.71,12.05 22.3,14.64 22.3,17.82 C22.3,21.01 19.71,23.59 16.53,23.59 Z M16.53,12.97 C13.85,12.97 11.68,15.15 11.68,17.82 C11.68,20.49 13.86,22.67 16.53,22.67 C19.21,22.67 21.38,20.49 21.38,17.82 C21.38,15.15 19.21,12.97 16.53,12.97 Z" id="形狀"></path>
                <path d="M5.91,23.59 C2.73,23.59 0.14,21 0.14,17.82 C0.14,14.64 2.73,12.05 5.91,12.05 C9.09,12.05 11.68,14.64 11.68,17.82 C11.68,21.01 9.09,23.59 5.91,23.59 Z M5.91,12.97 C3.23,12.97 1.06,15.15 1.06,17.82 C1.06,20.49 3.24,22.67 5.91,22.67 C8.58,22.67 10.76,20.49 10.76,17.82 C10.76,15.15 8.59,12.97 5.91,12.97 Z" id="形狀"></path>
                <path d="M11.22,32.8 C8.04,32.8 5.45,30.21 5.45,27.03 C5.45,23.85 8.04,21.26 11.22,21.26 C14.4,21.26 16.99,23.85 16.99,27.03 C16.99,30.21 14.4,32.8 11.22,32.8 Z M11.22,22.18 C8.54,22.18 6.37,24.36 6.37,27.03 C6.37,29.7 8.55,31.88 11.22,31.88 C13.89,31.88 16.07,29.7 16.07,27.03 C16.07,24.36 13.9,22.18 11.22,22.18 Z" id="形狀"></path>
                <path d="M16.53,47.39 C13.35,47.39 10.76,44.8 10.76,41.62 C10.76,38.44 13.35,35.85 16.53,35.85 C19.71,35.85 22.3,38.44 22.3,41.62 C22.3,44.8 19.71,47.39 16.53,47.39 Z M16.53,36.77 C13.85,36.77 11.68,38.95 11.68,41.62 C11.68,44.29 13.86,46.47 16.53,46.47 C19.21,46.47 21.38,44.29 21.38,41.62 C21.38,38.95 19.21,36.77 16.53,36.77 Z" id="形狀"></path>
                <path d="M5.91,47.39 C2.73,47.39 0.14,44.8 0.14,41.62 C0.14,38.44 2.73,35.85 5.91,35.85 C9.09,35.85 11.68,38.44 11.68,41.62 C11.68,44.8 9.09,47.39 5.91,47.39 Z M5.91,36.77 C3.23,36.77 1.06,38.95 1.06,41.62 C1.06,44.29 3.24,46.47 5.91,46.47 C8.58,46.47 10.76,44.29 10.76,41.62 C10.76,38.95 8.59,36.77 5.91,36.77 Z" id="形狀"></path>
                <path d="M11.22,56.6 C8.04,56.6 5.45,54.01 5.45,50.83 C5.45,47.65 8.04,45.06 11.22,45.06 C14.4,45.06 16.99,47.65 16.99,50.83 C16.99,54.01 14.4,56.6 11.22,56.6 Z M11.22,45.98 C8.54,45.98 6.37,48.16 6.37,50.83 C6.37,53.5 8.55,55.68 11.22,55.68 C13.89,55.68 16.07,53.5 16.07,50.83 C16.07,48.16 13.9,45.98 11.22,45.98 Z" id="形狀"></path>
                <path d="M11.68,12.51 L10.76,12.51 C10.76,1.39 4.07,1.26 4.01,1.26 L4.01,0.34 L18.44,0.34 L18.44,1.26 C11.76,1.26 11.68,12.4 11.68,12.51 Z M6.96,1.26 C7.27,1.44 7.58,1.65 7.9,1.91 C9.15,2.92 10.57,4.77 11.26,8.08 C11.79,5.59 12.89,2.7 15.15,1.26 L6.96,1.26 Z" id="形狀"></path>
            </g>
            <g id="群組" transform="translate(7.000000, 33.000000)" fill="#1D4764">
                <circle id="橢圓形" cx="2.53" cy="7.12" r="2.33"></circle>
                <circle id="橢圓形" cx="7.2" cy="7.12" r="2.33"></circle>
                <circle id="橢圓形" cx="4.86" cy="3.07" r="2.33"></circle>
                <circle id="橢圓形" cx="92.47" cy="103.88" r="2.33"></circle>
                <circle id="橢圓形" cx="87.81" cy="103.88" r="2.33"></circle>
                <circle id="橢圓形" cx="90.14" cy="107.93" r="2.33"></circle>
            </g>
            <path d="M15.16,26.82 C15.16,27.59 14.84,28.25 14.19,28.8 C13.55,29.35 12.77,29.62 11.86,29.62 C10.96,29.62 10.18,29.35 9.53,28.8 C8.88,28.25 8.56,27.59 8.56,26.82 L8.56,21.88 C8.56,20.71 9.2,19.85 10.49,19.32 C9.2,18.82 8.56,17.97 8.56,16.77 L8.56,12.92 C8.56,12.15 8.88,11.49 9.53,10.94 C10.18,10.39 10.95,10.12 11.86,10.12 C12.77,10.12 13.55,10.39 14.19,10.94 C14.83,11.49 15.16,12.15 15.16,12.92 L15.16,16.77 C15.16,17.97 14.52,18.82 13.24,19.32 C14.52,19.86 15.16,20.71 15.16,21.88 L15.16,26.82 Z M10.1,18.61 C9.8,18.27 9.66,17.79 9.66,17.17 L9.66,12.4 C9.66,11.87 9.78,11.43 10.02,11.09 C9.41,11.5 9.11,12.05 9.11,12.74 L9.11,16.8 C9.11,17.58 9.44,18.19 10.1,18.61 Z M10.1,20.03 C9.44,20.45 9.11,21.06 9.11,21.85 L9.11,27.01 C9.11,27.69 9.41,28.24 10.02,28.66 C9.78,28.31 9.66,27.87 9.66,27.33 L9.66,21.46 C9.66,20.85 9.81,20.37 10.1,20.03 Z M12.96,17.98 L12.96,11.72 C12.96,11.42 12.85,11.16 12.64,10.94 C12.43,10.73 12.17,10.62 11.86,10.62 C11.56,10.62 11.3,10.73 11.08,10.94 C10.87,11.15 10.76,11.41 10.76,11.72 L10.76,17.98 C10.76,18.28 10.87,18.54 11.08,18.76 C11.29,18.97 11.55,19.08 11.86,19.08 C12.16,19.08 12.42,18.97 12.64,18.76 C12.85,18.54 12.96,18.28 12.96,17.98 Z M12.96,28.02 L12.96,20.67 C12.96,20.37 12.85,20.11 12.64,19.89 C12.43,19.68 12.17,19.57 11.86,19.57 C11.56,19.57 11.3,19.68 11.08,19.89 C10.87,20.1 10.76,20.36 10.76,20.67 L10.76,28.02 C10.76,28.32 10.87,28.58 11.08,28.8 C11.29,29.01 11.55,29.12 11.86,29.12 C12.16,29.12 12.42,29.01 12.64,28.8 C12.85,28.59 12.96,28.33 12.96,28.02 Z M14.06,17.21 L14.06,12.48 C14.06,11.75 13.73,11.17 13.07,10.75 C13.37,11.09 13.51,11.54 13.51,12.1 L13.51,17.59 C13.51,18.15 13.36,18.6 13.07,18.94 C13.73,18.52 14.06,17.95 14.06,17.21 Z M14.06,27.26 L14.06,21.44 C14.06,20.71 13.73,20.13 13.07,19.71 C13.37,20.05 13.51,20.5 13.51,21.05 L13.51,27.65 C13.51,28.2 13.36,28.65 13.07,28.99 C13.73,28.57 14.06,27.99 14.06,27.26 Z" id="形狀" fill="#1D4764"></path>
            <path d="M93.84,150.19 C93.84,149.42 94.16,148.76 94.81,148.21 C95.45,147.66 96.23,147.39 97.14,147.39 C98.04,147.39 98.82,147.66 99.47,148.21 C100.12,148.76 100.44,149.42 100.44,150.19 L100.44,155.13 C100.44,156.3 99.8,157.16 98.51,157.69 C99.8,158.19 100.44,159.04 100.44,160.24 L100.44,164.09 C100.44,164.86 100.12,165.52 99.47,166.07 C98.82,166.62 98.05,166.89 97.14,166.89 C96.23,166.89 95.45,166.62 94.81,166.07 C94.17,165.52 93.84,164.86 93.84,164.09 L93.84,160.24 C93.84,159.04 94.48,158.19 95.76,157.69 C94.48,157.15 93.84,156.3 93.84,155.13 L93.84,150.19 Z M94.94,149.74 L94.94,155.56 C94.94,156.29 95.27,156.87 95.93,157.29 C95.63,156.95 95.49,156.5 95.49,155.95 L95.49,149.35 C95.49,148.8 95.64,148.35 95.93,148.01 C95.27,148.43 94.94,149.01 94.94,149.74 Z M94.94,159.79 L94.94,164.52 C94.94,165.25 95.27,165.83 95.93,166.25 C95.63,165.91 95.49,165.46 95.49,164.9 L95.49,159.41 C95.49,158.85 95.64,158.4 95.93,158.06 C95.27,158.48 94.94,159.05 94.94,159.79 Z M96.04,148.98 L96.04,156.33 C96.04,156.63 96.15,156.89 96.36,157.11 C96.57,157.32 96.83,157.43 97.14,157.43 C97.44,157.43 97.7,157.32 97.92,157.11 C98.13,156.9 98.24,156.64 98.24,156.33 L98.24,148.98 C98.24,148.68 98.13,148.42 97.92,148.2 C97.71,147.99 97.45,147.88 97.14,147.88 C96.84,147.88 96.58,147.99 96.36,148.2 C96.15,148.41 96.04,148.67 96.04,148.98 Z M96.04,159.02 L96.04,165.28 C96.04,165.58 96.15,165.84 96.36,166.06 C96.57,166.27 96.83,166.38 97.14,166.38 C97.44,166.38 97.7,166.27 97.92,166.06 C98.13,165.85 98.24,165.59 98.24,165.28 L98.24,159.02 C98.24,158.72 98.13,158.46 97.92,158.24 C97.71,158.03 97.45,157.92 97.14,157.92 C96.84,157.92 96.58,158.03 96.36,158.24 C96.15,158.46 96.04,158.72 96.04,159.02 Z M98.9,156.97 C99.56,156.55 99.89,155.94 99.89,155.15 L99.89,149.99 C99.89,149.31 99.59,148.76 98.98,148.34 C99.22,148.69 99.34,149.13 99.34,149.67 L99.34,155.54 C99.34,156.15 99.19,156.63 98.9,156.97 Z M98.9,158.39 C99.2,158.73 99.34,159.21 99.34,159.83 L99.34,164.6 C99.34,165.13 99.22,165.57 98.98,165.91 C99.59,165.5 99.89,164.95 99.89,164.26 L99.89,160.2 C99.89,159.42 99.56,158.81 98.9,158.39 Z" id="形狀" fill="#1D4764"></path>
        </g>
    </g>
</svg>