<?xml version="1.0" encoding="UTF-8"?>
<svg width="110px" height="177px" viewBox="0 0 110 177" version="1.1" xmlns="http://www.w3.org/2000/svg" xmlns:xlink="http://www.w3.org/1999/xlink">
    <!-- Generator: Sketch 55.1 (78136) - https://sketchapp.com -->
    <title>card-35copy</title>
    <desc>Created with Sketch.</desc>
    <g id="Page-1" stroke="none" stroke-width="1" fill="none" fill-rule="evenodd">
        <g id="card-35copy" fill-rule="nonzero">
            <path d="M96.02,0.26 L12.98,0.26 C5.84,0.26 0,6.1 0,13.24 L0,163.76 C0,170.9 5.84,176.74 12.98,176.74 L96.03,176.74 C103.17,176.74 109.01,170.9 109.01,163.76 L109.01,13.24 C109,6.1 103.16,0.26 96.02,0.26 Z" id="路徑" fill="#EBEBEB"></path>
            <path d="M15.16,26.82 C15.16,27.59 14.84,28.25 14.19,28.8 C13.55,29.35 12.77,29.62 11.86,29.62 C10.96,29.62 10.18,29.35 9.53,28.8 C8.88,28.25 8.56,27.59 8.56,26.82 L8.56,23.72 L10.76,23.72 L10.76,28.03 C10.76,28.33 10.87,28.59 11.08,28.81 C11.29,29.02 11.55,29.13 11.86,29.13 C12.17,29.13 12.42,29.02 12.64,28.81 C12.85,28.6 12.96,28.34 12.96,28.03 L12.96,20.29 C12.55,20.64 11.99,20.81 11.28,20.81 C9.47,20.81 8.56,19.97 8.56,18.28 L8.56,12.93 C8.56,12.16 8.88,11.5 9.53,10.95 C10.18,10.4 10.95,10.13 11.86,10.13 C12.77,10.13 13.55,10.4 14.19,10.95 C14.83,11.5 15.16,12.16 15.16,12.93 L15.16,26.82 L15.16,26.82 Z M10.02,20.18 C9.78,19.83 9.66,19.39 9.66,18.85 L9.66,12.4 C9.66,11.87 9.78,11.43 10.02,11.09 C9.41,11.5 9.11,12.05 9.11,12.74 L9.11,18.53 C9.11,19.21 9.42,19.76 10.02,20.18 Z M10.02,28.64 C9.78,28.34 9.66,27.9 9.66,27.34 L9.66,24.22 L9.11,24.22 L9.11,27.05 C9.11,27.75 9.42,28.28 10.02,28.64 Z M12.96,19.79 L12.96,11.72 C12.96,11.42 12.85,11.16 12.64,10.94 C12.43,10.73 12.17,10.62 11.86,10.62 C11.55,10.62 11.3,10.73 11.08,10.94 C10.87,11.15 10.76,11.41 10.76,11.72 L10.76,19.22 C10.76,19.92 11.13,20.27 11.86,20.27 C12.25,20.26 12.62,20.1 12.96,19.79 Z M14.06,27.26 L14.06,12.48 C14.06,11.75 13.73,11.17 13.07,10.75 C13.37,11.09 13.51,11.54 13.51,12.1 L13.51,27.64 C13.51,28.19 13.36,28.64 13.07,28.98 C13.73,28.57 14.06,27.99 14.06,27.26 Z" id="形狀" fill="#E37F45"></path>
            <path d="M93.84,150.18 C93.84,149.41 94.16,148.75 94.81,148.2 C95.46,147.65 96.23,147.38 97.14,147.38 C98.04,147.38 98.82,147.65 99.47,148.2 C100.12,148.75 100.44,149.41 100.44,150.18 L100.44,153.28 L98.24,153.28 L98.24,148.97 C98.24,148.67 98.13,148.41 97.92,148.19 C97.71,147.98 97.45,147.87 97.14,147.87 C96.84,147.87 96.58,147.98 96.36,148.19 C96.15,148.4 96.04,148.66 96.04,148.97 L96.04,156.71 C96.45,156.36 97.01,156.19 97.72,156.19 C99.53,156.19 100.44,157.03 100.44,158.72 L100.44,164.07 C100.44,164.84 100.12,165.5 99.47,166.05 C98.82,166.6 98.05,166.87 97.14,166.87 C96.23,166.87 95.45,166.6 94.81,166.05 C94.17,165.5 93.84,164.84 93.84,164.07 L93.84,150.18 L93.84,150.18 Z M94.94,149.74 L94.94,164.52 C94.94,165.25 95.27,165.83 95.93,166.25 C95.63,165.91 95.49,165.46 95.49,164.9 L95.49,149.36 C95.49,148.81 95.64,148.36 95.93,148.02 C95.27,148.43 94.94,149.01 94.94,149.74 Z M96.04,157.21 L96.04,165.28 C96.04,165.58 96.15,165.84 96.36,166.06 C96.57,166.27 96.83,166.38 97.14,166.38 C97.44,166.38 97.7,166.27 97.92,166.06 C98.13,165.85 98.24,165.59 98.24,165.28 L98.24,157.78 C98.24,157.08 97.87,156.73 97.14,156.73 C96.75,156.74 96.38,156.9 96.04,157.21 Z M98.98,148.36 C99.22,148.66 99.34,149.1 99.34,149.66 L99.34,152.78 L99.89,152.78 L99.89,149.95 C99.89,149.25 99.58,148.72 98.98,148.36 Z M98.98,156.82 C99.22,157.17 99.34,157.61 99.34,158.15 L99.34,164.6 C99.34,165.13 99.22,165.57 98.98,165.91 C99.59,165.5 99.89,164.95 99.89,164.26 L99.89,158.47 C99.89,157.79 99.58,157.24 98.98,156.82 Z" id="形狀" fill="#E37F45"></path>
            <path d="M11.86,31.91 C11.86,31.91 11.86,39.49 7.19,39.49 C7.19,39.49 11.86,39.49 11.86,47.07 C11.86,47.07 11.86,39.49 16.53,39.49 C16.53,39.49 11.86,39.49 11.86,31.91 Z" id="路徑" fill="#E37F45"></path>
            <path d="M97.14,145.09 C97.14,145.09 97.14,137.51 101.81,137.51 C101.81,137.51 97.14,137.51 97.14,129.93 C97.14,129.93 97.14,137.51 92.47,137.51 C92.47,137.51 97.14,137.51 97.14,145.09 Z" id="路徑" fill="#E37F45"></path>
            <path d="M86.72,62.61 L86.72,61.69 C86.08,61.69 70.95,61.35 70.95,35.8 L70.49,35.8 L70.49,35.8 L70.03,35.8 C70.03,36 69.91,51.29 62.71,58.27 C58.81,54.98 54.96,48.51 54.96,35.8 L54.5,35.8 L54.5,35.8 L54.04,35.8 C54.04,36 53.92,51.29 46.72,58.27 C42.82,54.98 38.97,48.51 38.97,35.8 L38.51,35.8 L38.51,35.8 L38.05,35.8 C38.05,36.06 37.87,61.69 22.28,61.69 L22.28,62.61 C22.78,62.61 32,62.83 36.11,74.86 C34.15,81.41 30.21,88.04 22.28,88.04 L22.28,88.96 C22.78,88.96 32,89.18 36.11,101.21 C34.15,107.76 30.21,114.39 22.28,114.39 L22.28,115.31 C22.92,115.31 38.05,115.65 38.05,141.2 L38.51,141.2 L38.51,141.2 L38.97,141.2 C38.97,141 39.09,125.71 46.29,118.73 C50.19,122.02 54.04,128.49 54.04,141.2 L54.5,141.2 L54.5,141.2 L54.96,141.2 C54.96,141 55.08,125.71 62.28,118.73 C66.18,122.02 70.03,128.49 70.03,141.2 L70.49,141.2 L70.49,141.2 L70.95,141.2 C70.95,140.94 71.13,115.31 86.72,115.31 L86.72,114.39 C86.22,114.39 77,114.17 72.89,102.14 C74.85,95.59 78.79,88.96 86.72,88.96 L86.72,88.04 C86.22,88.04 77,87.82 72.89,75.79 C74.85,69.24 78.79,62.61 86.72,62.61 Z M70.59,108.46 C69.53,99.62 66.29,94.6 62.97,91.76 C65,90.05 67.54,88.96 70.74,88.96 L70.74,88.04 C70.44,88.04 66.97,87.96 63.36,85.27 C67.77,80.96 69.63,73.77 70.4,68.54 C72.1,82.72 79.41,87.05 83.65,88.38 C74.72,90.42 71.65,101.3 70.59,108.46 Z M70.59,134.81 C69.53,125.97 66.29,120.95 62.97,118.11 C65,116.4 67.54,115.31 70.74,115.31 L70.74,114.85 L70.96,114.85 C70.96,114.73 71,109.37 72.51,103.56 C75.47,110.99 80.45,113.72 83.66,114.72 C74.72,116.77 71.65,127.64 70.59,134.81 Z M36.57,102.71 C37.48,105.94 38.05,109.92 38.05,114.85 L38.27,114.85 L38.27,115.31 C38.34,115.31 41.88,115.38 45.58,118.16 C41.22,122.47 39.38,129.61 38.61,134.81 C36.91,120.63 29.6,116.3 25.36,114.97 C31.35,113.6 34.69,108.25 36.57,102.71 Z M38.41,68.54 C39.47,77.38 42.71,82.4 46.03,85.24 C44,86.95 41.46,88.04 38.26,88.04 L38.26,88.96 C38.56,88.96 42.03,89.04 45.64,91.73 C41.23,96.04 39.37,103.23 38.6,108.46 C36.9,94.28 29.59,89.95 25.35,88.62 C34.28,86.58 37.35,75.7 38.41,68.54 Z M38.41,42.19 C39.47,51.03 42.71,56.05 46.03,58.89 C44,60.6 41.46,61.69 38.26,61.69 L38.26,62.15 L38.04,62.15 C38.04,62.27 38,67.63 36.49,73.44 C33.53,66.01 28.55,63.28 25.34,62.28 C34.28,60.23 37.35,49.36 38.41,42.19 Z M67.66,88.38 C58.74,90.42 55.66,101.3 54.6,108.46 C52.9,94.28 45.59,89.95 41.35,88.62 C50.27,86.58 53.35,75.7 54.41,68.54 C56.1,82.72 63.41,87.06 67.66,88.38 Z M68.09,101.21 C67,104.85 65.29,108.51 62.64,111.05 C60.5,109.24 58.38,106.44 56.91,102.14 C58,98.5 59.71,94.84 62.36,92.3 C64.5,94.11 66.62,96.91 68.09,101.21 Z M68.55,102.71 C69.43,105.83 69.98,109.65 70.02,114.35 C68.78,114.21 66.1,113.69 63.35,111.62 C65.77,109.25 67.43,106.02 68.55,102.71 Z M46.03,111.59 C44.15,113.17 41.84,114.21 38.98,114.36 C39.02,112.91 39.27,108.4 40.52,103.57 C42.01,107.3 44.01,109.85 46.03,111.59 Z M40.91,102.14 C42,98.5 43.71,94.84 46.36,92.3 C48.5,94.11 50.62,96.91 52.09,101.21 C51,104.85 49.29,108.51 46.64,111.05 C44.5,109.24 42.38,106.44 40.91,102.14 Z M40.91,75.79 C42,72.15 43.71,68.49 46.36,65.95 C48.5,67.76 50.62,70.56 52.09,74.86 C51,78.5 49.29,82.16 46.64,84.7 C44.5,82.89 42.38,80.09 40.91,75.79 Z M40.45,74.29 C39.57,71.17 39.02,67.35 38.98,62.65 C40.22,62.79 42.9,63.31 45.65,65.38 C43.23,67.75 41.57,70.98 40.45,74.29 Z M56.9,75.79 C57.99,72.15 59.7,68.49 62.35,65.95 C64.49,67.76 66.61,70.56 68.08,74.86 C66.99,78.5 65.28,82.16 62.63,84.7 C60.49,82.89 58.37,80.09 56.9,75.79 Z M62.97,65.41 C64.85,63.83 67.16,62.79 70.02,62.64 C69.98,64.09 69.73,68.6 68.48,73.43 C66.99,69.7 64.99,67.15 62.97,65.41 Z M67.66,62.03 C61.67,63.4 58.32,68.76 56.44,74.29 C55.53,71.06 54.96,67.08 54.96,62.15 L54.04,62.15 C54.04,62.27 54,67.63 52.49,73.44 C49.53,66.01 44.55,63.28 41.34,62.28 C50.26,60.24 53.34,49.36 54.4,42.2 C56.1,56.37 63.41,60.71 67.66,62.03 Z M41.34,114.97 C47.33,113.6 50.68,108.24 52.56,102.71 C53.47,105.94 54.04,109.92 54.04,114.85 L54.96,114.85 C54.96,114.73 55,109.37 56.51,103.56 C59.47,110.99 64.45,113.72 67.66,114.72 C58.74,116.76 55.66,127.64 54.6,134.8 C52.9,120.63 45.59,116.29 41.34,114.97 Z M70.95,62.15 L70.73,62.15 L70.73,61.69 C70.66,61.69 67.12,61.62 63.42,58.84 C67.78,54.53 69.62,47.39 70.39,42.19 C72.09,56.37 79.4,60.7 83.64,62.03 C77.65,63.4 74.3,68.76 72.42,74.29 C71.51,71.06 70.95,67.08 70.95,62.15 Z" id="形狀" fill="#E37F45"></path>
        </g>
    </g>
</svg>