<?xml version="1.0" encoding="UTF-8"?>
<svg width="110px" height="177px" viewBox="0 0 110 177" version="1.1" xmlns="http://www.w3.org/2000/svg" xmlns:xlink="http://www.w3.org/1999/xlink">
    <!-- Generator: Sketch 55.1 (78136) - https://sketchapp.com -->
    <title>card-07copy</title>
    <desc>Created with Sketch.</desc>
    <g id="Page-1" stroke="none" stroke-width="1" fill="none" fill-rule="evenodd">
        <g id="card-07copy" fill-rule="nonzero">
            <path d="M96.02,0.26 L12.98,0.26 C5.84,0.26 0,6.1 0,13.24 L0,163.76 C0,170.9 5.84,176.74 12.98,176.74 L96.03,176.74 C103.17,176.74 109.01,170.9 109.01,163.76 L109.01,13.24 C109,6.1 103.16,0.26 96.02,0.26 Z" id="路徑" fill="#EBEBEB"></path>
            <path d="M15.26,10.75 L12.01,29.49 L9.84,29.49 L13.09,10.75 L10.68,10.75 L10.68,16.02 L8.53,16.02 L8.53,10.25 L15.26,10.25 L15.26,10.75 Z M9.63,15.54 L9.63,10.75 L9.08,10.75 L9.08,15.54 L9.63,15.54 Z M14.21,10.75 L13.66,10.75 L10.5,28.99 L11.05,28.99 L14.21,10.75 Z" id="形狀" fill="#1D4764"></path>
            <path d="M93.74,166.25 L96.99,147.51 L99.16,147.51 L95.91,166.25 L98.32,166.25 L98.32,160.98 L100.47,160.98 L100.47,166.75 L93.74,166.75 L93.74,166.25 Z M94.78,166.25 L95.33,166.25 L98.5,148.01 L97.95,148.01 L94.78,166.25 Z M99.37,161.46 L99.37,166.25 L99.92,166.25 L99.92,161.46 L99.37,161.46 Z" id="形狀" fill="#1D4764"></path>
            <path d="M16.07,40.4 C16.07,38.08 14.18,36.19 11.86,36.19 C9.54,36.19 7.65,38.08 7.65,40.4 C7.65,42.72 9.54,44.61 11.86,44.61 C14.18,44.61 16.07,42.72 16.07,40.4 Z" id="路徑" fill="#1D4764"></path>
            <path d="M97.14,132.39 C94.82,132.39 92.93,134.28 92.93,136.6 C92.93,138.92 94.82,140.81 97.14,140.81 C99.46,140.81 101.35,138.92 101.35,136.6 C101.35,134.27 99.46,132.39 97.14,132.39 Z" id="路徑" fill="#1D4764"></path>
            <path d="M87.11,62.44 C87.11,53.18 80.22,45.53 71.31,44.27 C68.46,37.81 62,33.28 54.5,33.28 C47,33.28 40.54,37.81 37.69,44.27 C28.78,45.53 21.89,53.18 21.89,62.44 C21.89,71.15 27.99,78.44 36.13,80.32 C36.13,80.33 36.13,80.34 36.13,80.35 C36.13,80.36 36.13,80.37 36.13,80.38 C27.99,82.26 21.89,89.56 21.89,98.26 C21.89,107.51 28.78,115.17 37.69,116.43 C40.54,122.89 47,127.42 54.5,127.42 C62,127.42 68.46,122.89 71.31,116.43 C80.22,115.17 87.11,107.52 87.11,98.26 C87.11,89.55 81.01,82.26 72.87,80.38 C72.87,80.37 72.87,80.36 72.87,80.35 C72.87,80.34 72.87,80.33 72.87,80.32 C81.01,78.44 87.11,71.15 87.11,62.44 Z M38.77,116.56 C39.26,116.6 39.76,116.64 40.26,116.64 C46,116.64 51.13,113.99 54.5,109.85 C57.87,113.99 63,116.64 68.74,116.64 C69.24,116.64 69.74,116.6 70.23,116.56 C67.42,122.43 61.43,126.51 54.5,126.51 C47.57,126.5 41.58,122.43 38.77,116.56 Z M54.5,34.2 C61.43,34.2 67.42,38.28 70.23,44.15 C69.74,44.11 69.24,44.07 68.74,44.07 C63,44.07 57.87,46.72 54.5,50.86 C51.13,46.72 46,44.07 40.26,44.07 C39.76,44.07 39.26,44.11 38.77,44.15 C41.58,38.27 47.57,34.2 54.5,34.2 Z M71.95,80.35 C71.95,89.97 64.12,97.8 54.5,97.8 C44.88,97.8 37.05,89.97 37.05,80.35 C37.05,70.73 44.88,62.9 54.5,62.9 C64.12,62.9 71.95,70.73 71.95,80.35 Z M40.26,44.99 C49.83,44.99 57.62,52.73 57.71,62.29 C56.67,62.11 55.6,61.99 54.5,61.99 C44.69,61.99 36.68,69.72 36.18,79.4 C28.52,77.55 22.81,70.66 22.81,62.45 C22.81,52.81 30.64,44.99 40.26,44.99 Z M50.37,98.24 C50.37,98.25 50.37,98.26 50.37,98.27 C50.37,102.32 51.7,106.05 53.93,109.09 C50.73,113.12 45.8,115.72 40.26,115.72 C30.64,115.72 22.81,107.89 22.81,98.27 C22.81,90.05 28.52,83.16 36.18,81.32 C36.61,89.59 42.53,96.43 50.37,98.24 Z M68.74,115.72 C59.17,115.72 51.38,107.98 51.29,98.42 C52.33,98.6 53.4,98.72 54.5,98.72 C64.31,98.72 72.32,90.99 72.82,81.31 C80.48,83.16 86.19,90.05 86.19,98.26 C86.19,107.89 78.36,115.72 68.74,115.72 Z M58.63,62.47 C58.63,62.46 58.63,62.45 58.63,62.44 C58.63,58.39 57.3,54.66 55.07,51.62 C58.27,47.59 63.2,44.99 68.74,44.99 C78.36,44.99 86.19,52.82 86.19,62.44 C86.19,70.66 80.48,77.55 72.82,79.39 C72.39,71.11 66.47,64.28 58.63,62.47 Z" id="形狀" fill="#1D4764"></path>
            <path d="M59.96,138.68 C59.76,138.68 54.96,138.54 54.96,130.28 L54.5,130.28 L54.5,130.28 L54.04,130.28 C54.04,130.36 53.98,138.68 49.04,138.68 L49.04,139.6 L59.95,139.6 L59.96,138.68 Z M51.88,138.68 C53.29,137.62 54.05,135.8 54.46,134.13 C55.07,136.58 56.25,137.94 57.36,138.68 L51.88,138.68 Z" id="形狀" fill="#1D4764"></path>
        </g>
    </g>
</svg>