<?xml version="1.0" encoding="UTF-8"?>
<svg width="110px" height="177px" viewBox="0 0 110 177" version="1.1" xmlns="http://www.w3.org/2000/svg" xmlns:xlink="http://www.w3.org/1999/xlink">
    <!-- Generator: Sketch 55.1 (78136) - https://sketchapp.com -->
    <title>card-33copy</title>
    <desc>Created with Sketch.</desc>
    <g id="Page-1" stroke="none" stroke-width="1" fill="none" fill-rule="evenodd">
        <g id="card-33copy" fill-rule="nonzero">
            <path d="M96.02,0.26 L12.98,0.26 C5.84,0.26 0,6.1 0,13.24 L0,163.76 C0,170.9 5.84,176.74 12.98,176.74 L96.03,176.74 C103.17,176.74 109.01,170.9 109.01,163.76 L109.01,13.24 C109,6.1 103.16,0.26 96.02,0.26 Z" id="路徑" fill="#EBEBEB"></path>
            <path d="M15.26,10.75 L12.01,29.49 L9.84,29.49 L13.09,10.75 L10.68,10.75 L10.68,16.02 L8.53,16.02 L8.53,10.25 L15.26,10.25 L15.26,10.75 Z M9.63,15.54 L9.63,10.75 L9.08,10.75 L9.08,15.54 L9.63,15.54 Z M14.21,10.75 L13.66,10.75 L10.5,28.99 L11.05,28.99 L14.21,10.75 Z" id="形狀" fill="#E37F45"></path>
            <path d="M93.74,166.25 L96.99,147.51 L99.16,147.51 L95.91,166.25 L98.32,166.25 L98.32,160.98 L100.47,160.98 L100.47,166.75 L93.74,166.75 L93.74,166.25 Z M94.78,166.25 L95.33,166.25 L98.5,148.01 L97.95,148.01 L94.78,166.25 Z M99.37,161.46 L99.37,166.25 L99.92,166.25 L99.92,161.46 L99.37,161.46 Z" id="形狀" fill="#E37F45"></path>
            <path d="M11.86,31.91 C11.86,31.91 11.86,39.49 7.19,39.49 C7.19,39.49 11.86,39.49 11.86,47.07 C11.86,47.07 11.86,39.49 16.53,39.49 C16.53,39.49 11.86,39.49 11.86,31.91 Z" id="路徑" fill="#E37F45"></path>
            <path d="M97.14,145.09 C97.14,145.09 97.14,137.51 101.81,137.51 C101.81,137.51 97.14,137.51 97.14,129.93 C97.14,129.93 97.14,137.51 92.47,137.51 C92.47,137.51 97.14,137.51 97.14,145.09 Z" id="路徑" fill="#E37F45"></path>
            <path d="M65.78,106.07 C65.78,105.9 65.91,88.96 76.14,88.96 L76.14,88.04 C76.04,88.04 65.78,87.84 65.78,70.93 C65.78,70.76 65.9,53.82 76.14,53.82 L76.14,52.9 C76.04,52.9 65.78,52.7 65.78,35.79 L65.32,35.79 L65.32,35.79 L64.86,35.79 C64.86,35.96 64.73,52.9 54.5,52.9 C54.4,52.9 44.14,52.7 44.14,35.79 L43.68,35.79 L43.68,35.79 L43.22,35.79 C43.22,35.96 43.09,52.9 32.86,52.9 L32.86,53.82 C32.96,53.82 43.22,54.02 43.22,70.93 C43.22,71.1 43.09,88.04 32.86,88.04 L32.86,88.96 C33.28,88.96 43.22,89.2 43.22,106.07 C43.22,106.24 43.1,123.18 32.86,123.18 L32.86,124.1 C33.28,124.1 43.22,124.34 43.22,141.21 L43.68,141.21 L43.68,141.21 L44.14,141.21 C44.14,141.04 44.27,124.1 54.5,124.1 C54.93,124.1 64.86,124.35 64.86,141.21 L65.32,141.21 L65.32,141.21 L65.78,141.21 C65.78,141.04 65.91,124.1 76.14,124.1 L76.14,123.18 C75.72,123.17 65.78,122.93 65.78,106.07 Z M65.4,135.91 C64.12,127.67 59.88,124.76 57.08,123.73 C62.34,122.19 64.42,115.97 65.24,111.35 C66.52,119.59 70.76,122.5 73.56,123.53 C68.3,125.07 66.22,131.29 65.4,135.91 Z M43.6,111.35 C44.88,119.59 49.12,122.5 51.92,123.53 C46.66,125.07 44.58,131.29 43.76,135.91 C42.48,127.67 38.24,124.76 35.44,123.73 C40.7,122.19 42.78,115.98 43.6,111.35 Z M43.6,76.22 C44.42,81.5 46.45,84.58 48.54,86.39 C47.25,87.41 45.65,88.04 43.68,88.04 L43.68,88.96 C43.73,88.96 45.89,89.01 48.22,90.66 C45.6,93.3 44.35,97.45 43.75,100.79 C42.47,92.55 38.23,89.64 35.43,88.61 C40.7,87.06 42.78,80.85 43.6,76.22 Z M43.6,41.09 C44.88,49.33 49.12,52.24 51.92,53.27 C46.66,54.81 44.58,61.03 43.76,65.65 C42.48,57.41 38.24,54.5 35.44,53.47 C40.7,51.93 42.78,45.71 43.6,41.09 Z M54.5,53.83 C54.6,53.83 64.86,54.03 64.86,70.94 C64.86,71.07 64.78,81.24 60,85.84 C57.45,83.68 54.95,79.4 54.95,70.94 L54.03,70.94 C54.03,71.08 53.95,81.18 49.22,85.79 C46.66,83.61 44.13,79.34 44.13,70.94 C44.14,70.76 44.26,53.83 54.5,53.83 Z M65.24,41.09 C66.52,49.33 70.76,52.24 73.56,53.27 C68.3,54.81 66.22,61.03 65.4,65.65 C64.12,57.41 59.88,54.5 57.08,53.47 C62.34,51.93 64.42,45.71 65.24,41.09 Z M54.42,76.22 C55.7,84.46 59.94,87.37 62.74,88.4 C57.48,89.94 55.4,96.16 54.58,100.78 C53.3,92.54 49.06,89.63 46.26,88.6 C51.52,87.06 53.6,80.85 54.42,76.22 Z M60.46,90.61 C61.75,89.59 63.35,88.96 65.32,88.96 L65.32,88.04 C65.13,88.04 63.01,87.98 60.73,86.39 C63.38,83.75 64.64,79.57 65.24,76.22 C66.52,84.46 70.76,87.37 73.56,88.4 C68.3,89.94 66.22,96.16 65.4,100.78 C64.58,95.51 62.55,92.42 60.46,90.61 Z M48.95,91.22 C51.51,93.4 54.04,97.67 54.04,106.07 L54.96,106.07 C54.96,105.94 55.04,95.77 59.82,91.17 C62.37,93.33 64.87,97.61 64.87,106.07 C64.87,106.24 64.75,123.18 54.51,123.18 C54.08,123.18 44.15,122.93 44.15,106.07 C44.14,105.93 44.22,95.83 48.95,91.22 Z" id="形狀" fill="#E37F45"></path>
        </g>
    </g>
</svg>