<?xml version="1.0" encoding="UTF-8"?>
<svg width="110px" height="177px" viewBox="0 0 110 177" version="1.1" xmlns="http://www.w3.org/2000/svg" xmlns:xlink="http://www.w3.org/1999/xlink">
    <!-- Generator: Sketch 55.1 (78136) - https://sketchapp.com -->
    <title>card-42copy</title>
    <desc>Created with Sketch.</desc>
    <g id="Page-1" stroke="none" stroke-width="1" fill="none" fill-rule="evenodd">
        <g id="card-42copy" fill-rule="nonzero">
            <path d="M96.02,0.26 L12.98,0.26 C5.84,0.26 0,6.1 0,13.24 L0,163.76 C0,170.9 5.84,176.74 12.98,176.74 L96.03,176.74 C103.17,176.74 109.01,170.9 109.01,163.76 L109.01,13.24 C109,6.1 103.16,0.26 96.02,0.26 Z" id="路徑" fill="#EBEBEB"></path>
            <path d="M47.42,126.04 C43.26,126.04 39.88,122.66 39.88,118.5 C39.88,114.34 43.26,110.96 47.42,110.96 C51.58,110.96 54.96,114.34 54.96,118.5 C54.96,122.66 51.58,126.04 47.42,126.04 Z M47.42,111.88 C43.77,111.88 40.79,114.85 40.79,118.51 C40.79,122.17 43.76,125.14 47.42,125.14 C51.07,125.14 54.05,122.17 54.05,118.51 C54.05,114.85 51.07,111.88 47.42,111.88 Z" id="形狀" fill="#1D4764"></path>
            <path d="M61.58,126.04 C57.42,126.04 54.04,122.66 54.04,118.5 C54.04,114.34 57.42,110.96 61.58,110.96 C65.74,110.96 69.12,114.34 69.12,118.5 C69.12,122.66 65.74,126.04 61.58,126.04 Z M61.58,111.88 C57.93,111.88 54.95,114.85 54.95,118.51 C54.95,122.17 57.92,125.14 61.58,125.14 C65.24,125.14 68.21,122.17 68.21,118.51 C68.21,114.85 65.24,111.88 61.58,111.88 Z" id="形狀" fill="#1D4764"></path>
            <path d="M54.5,113.77 C50.34,113.77 46.96,110.39 46.96,106.23 C46.96,102.07 50.34,98.69 54.5,98.69 C58.66,98.69 62.04,102.07 62.04,106.23 C62.04,110.38 58.66,113.77 54.5,113.77 Z M54.5,99.6 C50.85,99.6 47.87,102.57 47.87,106.23 C47.87,109.88 50.84,112.86 54.5,112.86 C58.15,112.86 61.13,109.89 61.13,106.23 C61.13,102.57 58.15,99.6 54.5,99.6 Z" id="形狀" fill="#1D4764"></path>
            <path d="M47.42,62.58 C43.26,62.58 39.88,59.2 39.88,55.04 C39.88,50.88 43.26,47.5 47.42,47.5 C51.58,47.5 54.96,50.88 54.96,55.04 C54.96,59.2 51.58,62.58 47.42,62.58 Z M47.42,48.41 C43.77,48.41 40.79,51.38 40.79,55.04 C40.79,58.7 43.76,61.67 47.42,61.67 C51.07,61.67 54.05,58.7 54.05,55.04 C54.05,51.38 51.07,48.41 47.42,48.41 Z" id="形狀" fill="#1D4764"></path>
            <path d="M61.58,62.58 C57.42,62.58 54.04,59.2 54.04,55.04 C54.04,50.88 57.42,47.5 61.58,47.5 C65.74,47.5 69.12,50.88 69.12,55.04 C69.12,59.2 65.74,62.58 61.58,62.58 Z M61.58,48.41 C57.93,48.41 54.95,51.38 54.95,55.04 C54.95,58.7 57.92,61.67 61.58,61.67 C65.24,61.67 68.21,58.7 68.21,55.04 C68.21,51.38 65.24,48.41 61.58,48.41 Z" id="形狀" fill="#1D4764"></path>
            <path d="M54.5,50.3 C50.34,50.3 46.96,46.92 46.96,42.76 C46.96,38.6 50.34,35.22 54.5,35.22 C58.66,35.22 62.04,38.6 62.04,42.76 C62.04,46.92 58.66,50.3 54.5,50.3 Z M54.5,36.13 C50.85,36.13 47.87,39.1 47.87,42.76 C47.87,46.41 50.84,49.39 54.5,49.39 C58.15,49.39 61.13,46.42 61.13,42.76 C61.13,39.11 58.15,36.13 54.5,36.13 Z" id="形狀" fill="#1D4764"></path>
            <path d="M47.42,94.31 C43.26,94.31 39.88,90.93 39.88,86.77 C39.88,82.61 43.26,79.23 47.42,79.23 C51.58,79.23 54.96,82.61 54.96,86.77 C54.96,90.93 51.58,94.31 47.42,94.31 Z M47.42,80.14 C43.77,80.14 40.79,83.11 40.79,86.77 C40.79,90.42 43.76,93.4 47.42,93.4 C51.07,93.4 54.05,90.43 54.05,86.77 C54.04,83.12 51.07,80.14 47.42,80.14 Z" id="形狀" fill="#1D4764"></path>
            <path d="M61.58,94.31 C57.42,94.31 54.04,90.93 54.04,86.77 C54.04,82.61 57.42,79.23 61.58,79.23 C65.74,79.23 69.12,82.61 69.12,86.77 C69.12,90.93 65.74,94.31 61.58,94.31 Z M61.58,80.14 C57.93,80.14 54.95,83.11 54.95,86.77 C54.95,90.42 57.92,93.4 61.58,93.4 C65.24,93.4 68.21,90.43 68.21,86.77 C68.21,83.12 65.24,80.14 61.58,80.14 Z" id="形狀" fill="#1D4764"></path>
            <path d="M54.5,82.03 C50.34,82.03 46.96,78.65 46.96,74.49 C46.96,70.33 50.34,66.95 54.5,66.95 C58.66,66.95 62.04,70.33 62.04,74.49 C62.04,78.65 58.66,82.03 54.5,82.03 Z M54.5,67.87 C50.85,67.87 47.87,70.84 47.87,74.5 C47.87,78.15 50.84,81.13 54.5,81.13 C58.15,81.13 61.13,78.16 61.13,74.5 C61.13,70.84 58.15,67.87 54.5,67.87 Z" id="形狀" fill="#1D4764"></path>
            <path d="M64.12,141.66 L44.88,141.66 L44.88,140.74 C53.93,140.74 54.04,125.74 54.04,125.59 L54.96,125.59 C54.96,140.52 63.75,140.74 64.12,140.74 L64.12,141.66 Z M48.64,140.74 L60.78,140.74 C60.22,140.46 59.62,140.09 59.02,139.6 C57.27,138.18 55.27,135.53 54.44,130.64 C54.27,131.56 54.04,132.54 53.74,133.52 C52.64,137.08 50.91,139.52 48.64,140.74 Z" id="形狀" fill="#1D4764"></path>
            <g id="群組" transform="translate(7.000000, 33.000000)" fill="#1D4764">
                <circle id="橢圓形" cx="2.53" cy="7.12" r="2.33"></circle>
                <circle id="橢圓形" cx="7.2" cy="7.12" r="2.33"></circle>
                <circle id="橢圓形" cx="4.86" cy="3.07" r="2.33"></circle>
                <circle id="橢圓形" cx="92.47" cy="103.88" r="2.33"></circle>
                <circle id="橢圓形" cx="87.81" cy="103.88" r="2.33"></circle>
                <circle id="橢圓形" cx="90.14" cy="107.93" r="2.33"></circle>
            </g>
            <path d="M15.01,26.82 C15.01,27.63 14.71,28.3 14.1,28.83 C13.5,29.36 12.74,29.62 11.83,29.62 C10.92,29.62 10.16,29.36 9.55,28.83 C8.94,28.3 8.64,27.63 8.64,26.82 L8.64,23.72 L10.84,23.72 L10.84,28.03 C10.84,28.76 11.17,29.13 11.83,29.13 C12.49,29.13 12.82,28.76 12.82,28.03 L12.82,20.68 C12.82,20.38 12.71,20.12 12.5,19.9 C12.29,19.69 12.03,19.58 11.72,19.58 L10.04,19.58 L10.04,19.08 L11.72,19.08 C12.02,19.08 12.28,18.97 12.5,18.76 C12.71,18.55 12.82,18.29 12.82,17.98 L12.82,11.72 C12.82,10.99 12.49,10.62 11.83,10.62 C11.17,10.62 10.84,10.99 10.84,11.72 L10.84,16.03 L8.64,16.03 L8.64,12.93 C8.64,12.13 8.94,11.46 9.55,10.93 C10.16,10.4 10.92,10.13 11.83,10.13 C12.74,10.13 13.5,10.4 14.1,10.93 C14.7,11.46 15.01,12.13 15.01,12.93 L15.01,16.78 C15.01,17.98 14.37,18.83 13.09,19.33 C14.37,19.87 15.01,20.72 15.01,21.89 L15.01,26.82 Z M10.1,11 C9.49,11.41 9.19,11.98 9.19,12.7 L9.19,15.53 L9.74,15.53 L9.74,12.36 C9.74,11.8 9.86,11.34 10.1,11 Z M10.1,28.75 C9.86,28.4 9.74,27.94 9.74,27.37 L9.74,24.22 L9.19,24.22 L9.19,27.05 C9.19,27.76 9.5,28.33 10.1,28.75 Z M13.93,17.21 L13.93,12.45 C13.93,11.72 13.6,11.14 12.94,10.72 C13.24,11.06 13.38,11.51 13.38,12.07 L13.38,17.58 C13.38,18.14 13.23,18.59 12.94,18.93 C13.6,18.52 13.93,17.95 13.93,17.21 Z M13.93,27.29 L13.93,21.44 C13.93,20.71 13.6,20.13 12.94,19.71 C13.24,20.05 13.38,20.5 13.38,21.05 L13.38,27.68 C13.38,28.23 13.23,28.68 12.94,29.02 C13.6,28.6 13.93,28.02 13.93,27.29 Z" id="形狀" fill="#1D4764"></path>
            <path d="M93.99,150.19 C93.99,149.38 94.29,148.71 94.9,148.18 C95.51,147.65 96.26,147.39 97.17,147.39 C98.08,147.39 98.84,147.65 99.45,148.18 C100.06,148.71 100.36,149.38 100.36,150.19 L100.36,153.29 L98.16,153.29 L98.16,148.98 C98.16,148.25 97.83,147.88 97.17,147.88 C96.51,147.88 96.18,148.25 96.18,148.98 L96.18,156.33 C96.18,156.63 96.29,156.89 96.5,157.11 C96.71,157.32 96.97,157.43 97.28,157.43 L98.96,157.43 L98.96,157.93 L97.28,157.93 C96.98,157.93 96.72,158.04 96.5,158.25 C96.29,158.46 96.18,158.72 96.18,159.03 L96.18,165.29 C96.18,166.02 96.51,166.39 97.17,166.39 C97.83,166.39 98.16,166.02 98.16,165.29 L98.16,160.98 L100.36,160.98 L100.36,164.08 C100.36,164.88 100.06,165.55 99.45,166.08 C98.84,166.61 98.08,166.88 97.17,166.88 C96.26,166.88 95.5,166.61 94.9,166.08 C94.3,165.55 93.99,164.88 93.99,164.08 L93.99,160.23 C93.99,159.03 94.63,158.18 95.91,157.68 C94.63,157.14 93.99,156.29 93.99,155.12 L93.99,150.19 Z M95.07,149.72 L95.07,155.57 C95.07,156.3 95.4,156.88 96.06,157.3 C95.76,156.96 95.62,156.51 95.62,155.96 L95.62,149.33 C95.62,148.78 95.77,148.33 96.06,147.99 C95.4,148.41 95.07,148.98 95.07,149.72 Z M95.07,159.79 L95.07,164.55 C95.07,165.28 95.4,165.86 96.06,166.28 C95.76,165.94 95.62,165.49 95.62,164.93 L95.62,159.42 C95.62,158.86 95.77,158.41 96.06,158.07 C95.4,158.48 95.07,159.05 95.07,159.79 Z M98.9,148.25 C99.14,148.6 99.26,149.06 99.26,149.63 L99.26,152.78 L99.81,152.78 L99.81,149.95 C99.81,149.24 99.5,148.67 98.9,148.25 Z M98.9,166 C99.51,165.59 99.81,165.02 99.81,164.3 L99.81,161.47 L99.26,161.47 L99.26,164.64 C99.26,165.2 99.14,165.66 98.9,166 Z" id="形狀" fill="#1D4764"></path>
        </g>
    </g>
</svg>