<?xml version="1.0" encoding="UTF-8"?>
<svg width="110px" height="177px" viewBox="0 0 110 177" version="1.1" xmlns="http://www.w3.org/2000/svg" xmlns:xlink="http://www.w3.org/1999/xlink">
    <!-- Generator: Sketch 55.1 (78136) - https://sketchapp.com -->
    <title>card-21copy</title>
    <desc>Created with Sketch.</desc>
    <g id="Page-1" stroke="none" stroke-width="1" fill="none" fill-rule="evenodd">
        <g id="card-21copy" fill-rule="nonzero">
            <path d="M96.02,0.26 L12.98,0.26 C5.84,0.26 0,6.1 0,13.24 L0,163.76 C0,170.9 5.84,176.74 12.98,176.74 L96.03,176.74 C103.17,176.74 109.01,170.9 109.01,163.76 L109.01,13.24 C109,6.1 103.16,0.26 96.02,0.26 Z" id="路徑" fill="#EBEBEB"></path>
            <path d="M46.1,140.23 L22.04,140.23 L22.04,139.31 C33.48,139.31 33.61,110.76 33.61,110.47 L34.53,110.47 C34.53,138.98 45.99,139.31 46.1,139.31 L46.1,140.23 Z M25.6,139.31 L43.08,139.31 C39.95,137.61 35.35,132.78 33.99,119.02 C33.17,126.39 31.05,136.29 25.6,139.31 Z" id="形狀" fill="#E37F45"></path>
            <path d="M34.53,110.47 L33.61,110.47 C33.61,81.96 22.15,81.63 22.04,81.63 L22.04,80.71 L46.1,80.71 L46.1,81.63 C34.66,81.63 34.53,110.18 34.53,110.47 Z M25.05,81.63 C28.18,83.33 32.78,88.16 34.14,101.92 C34.97,94.55 37.09,84.65 42.54,81.63 L25.05,81.63 Z" id="形狀" fill="#E37F45"></path>
            <path d="M59.72,125.58 L35.66,125.58 L35.66,124.66 C47.1,124.66 47.23,96.11 47.23,95.82 L48.15,95.82 C48.15,124.33 59.61,124.66 59.72,124.66 L59.72,125.58 Z M39.22,124.66 L56.7,124.66 C53.57,122.96 48.97,118.13 47.61,104.37 C46.79,111.74 44.67,121.64 39.22,124.66 Z" id="形狀" fill="#E37F45"></path>
            <path d="M48.15,95.82 L47.23,95.82 C47.23,67.31 35.77,66.98 35.66,66.98 L35.66,66.06 L59.72,66.06 L59.72,66.98 C48.28,66.99 48.15,95.54 48.15,95.82 Z M38.67,66.99 C41.8,68.69 46.4,73.52 47.76,87.28 C48.59,79.91 50.71,70.01 56.16,66.99 L38.67,66.99 L38.67,66.99 Z" id="形狀" fill="#E37F45"></path>
            <path d="M73.34,110.93 L49.28,110.93 L49.28,110.01 C60.72,110.01 60.85,81.46 60.85,81.17 L61.77,81.17 C61.77,109.68 73.23,110.01 73.34,110.01 L73.34,110.93 Z M52.84,110.01 L70.32,110.01 C67.19,108.31 62.59,103.48 61.23,89.72 C60.42,97.09 58.29,106.99 52.84,110.01 Z" id="形狀" fill="#E37F45"></path>
            <path d="M61.77,81.18 L60.85,81.18 C60.85,52.67 49.39,52.34 49.28,52.34 L49.28,51.42 L73.34,51.42 L73.34,52.34 C61.9,52.34 61.77,80.89 61.77,81.18 Z M52.29,52.34 C55.42,54.04 60.02,58.87 61.38,72.63 C62.21,65.26 64.33,55.36 69.78,52.34 L52.29,52.34 L52.29,52.34 Z" id="形狀" fill="#E37F45"></path>
            <path d="M86.96,96.28 L62.9,96.28 L62.9,95.36 C74.34,95.36 74.47,66.81 74.47,66.52 L75.39,66.52 C75.39,95.03 86.85,95.36 86.96,95.36 L86.96,96.28 L86.96,96.28 Z M66.47,95.37 L83.95,95.37 C80.82,93.67 76.22,88.84 74.86,75.08 C74.04,82.44 71.91,92.34 66.47,95.37 Z" id="形狀" fill="#E37F45"></path>
            <path d="M75.39,66.53 L74.47,66.53 C74.47,38.02 63.01,37.69 62.9,37.69 L62.9,36.77 L86.96,36.77 L86.96,37.69 C75.52,37.69 75.39,66.24 75.39,66.53 Z M65.91,37.69 C69.04,39.39 73.64,44.22 75,57.98 C75.83,50.61 77.95,40.71 83.4,37.69 L65.91,37.69 Z" id="形狀" fill="#E37F45"></path>
            <path d="M15.16,26.82 C15.16,27.59 14.84,28.25 14.19,28.8 C13.55,29.35 12.77,29.62 11.86,29.62 C10.96,29.62 10.18,29.35 9.53,28.8 C8.88,28.25 8.56,27.59 8.56,26.82 L8.56,21.88 C8.56,20.71 9.2,19.85 10.49,19.32 C9.2,18.82 8.56,17.97 8.56,16.77 L8.56,12.92 C8.56,12.15 8.88,11.49 9.53,10.94 C10.18,10.39 10.95,10.12 11.86,10.12 C12.77,10.12 13.55,10.39 14.19,10.94 C14.83,11.49 15.16,12.15 15.16,12.92 L15.16,16.77 C15.16,17.97 14.52,18.82 13.24,19.32 C14.52,19.86 15.16,20.71 15.16,21.88 L15.16,26.82 Z M10.1,18.61 C9.8,18.27 9.66,17.79 9.66,17.17 L9.66,12.4 C9.66,11.87 9.78,11.43 10.02,11.09 C9.41,11.5 9.11,12.05 9.11,12.74 L9.11,16.8 C9.11,17.58 9.44,18.19 10.1,18.61 Z M10.1,20.03 C9.44,20.45 9.11,21.06 9.11,21.85 L9.11,27.01 C9.11,27.69 9.41,28.24 10.02,28.66 C9.78,28.31 9.66,27.87 9.66,27.33 L9.66,21.46 C9.66,20.85 9.81,20.37 10.1,20.03 Z M12.96,17.98 L12.96,11.72 C12.96,11.42 12.85,11.16 12.64,10.94 C12.43,10.73 12.17,10.62 11.86,10.62 C11.56,10.62 11.3,10.73 11.08,10.94 C10.87,11.15 10.76,11.41 10.76,11.72 L10.76,17.98 C10.76,18.28 10.87,18.54 11.08,18.76 C11.29,18.97 11.55,19.08 11.86,19.08 C12.16,19.08 12.42,18.97 12.64,18.76 C12.85,18.54 12.96,18.28 12.96,17.98 Z M12.96,28.02 L12.96,20.67 C12.96,20.37 12.85,20.11 12.64,19.89 C12.43,19.68 12.17,19.57 11.86,19.57 C11.56,19.57 11.3,19.68 11.08,19.89 C10.87,20.1 10.76,20.36 10.76,20.67 L10.76,28.02 C10.76,28.32 10.87,28.58 11.08,28.8 C11.29,29.01 11.55,29.12 11.86,29.12 C12.16,29.12 12.42,29.01 12.64,28.8 C12.85,28.59 12.96,28.33 12.96,28.02 Z M14.06,17.21 L14.06,12.48 C14.06,11.75 13.73,11.17 13.07,10.75 C13.37,11.09 13.51,11.54 13.51,12.1 L13.51,17.59 C13.51,18.15 13.36,18.6 13.07,18.94 C13.73,18.52 14.06,17.95 14.06,17.21 Z M14.06,27.26 L14.06,21.44 C14.06,20.71 13.73,20.13 13.07,19.71 C13.37,20.05 13.51,20.5 13.51,21.05 L13.51,27.65 C13.51,28.2 13.36,28.65 13.07,28.99 C13.73,28.57 14.06,27.99 14.06,27.26 Z" id="形狀" fill="#E37F45"></path>
            <path d="M93.84,150.18 C93.84,149.41 94.16,148.75 94.81,148.2 C95.45,147.65 96.23,147.38 97.14,147.38 C98.04,147.38 98.82,147.65 99.47,148.2 C100.12,148.75 100.44,149.41 100.44,150.18 L100.44,155.12 C100.44,156.29 99.8,157.15 98.51,157.68 C99.8,158.18 100.44,159.03 100.44,160.23 L100.44,164.08 C100.44,164.85 100.12,165.51 99.47,166.06 C98.82,166.61 98.05,166.88 97.14,166.88 C96.23,166.88 95.45,166.61 94.81,166.06 C94.17,165.51 93.84,164.85 93.84,164.08 L93.84,160.23 C93.84,159.03 94.48,158.18 95.76,157.68 C94.48,157.14 93.84,156.29 93.84,155.12 L93.84,150.18 Z M94.94,149.74 L94.94,155.56 C94.94,156.29 95.27,156.87 95.93,157.29 C95.63,156.95 95.49,156.5 95.49,155.95 L95.49,149.35 C95.49,148.8 95.64,148.35 95.93,148.01 C95.27,148.43 94.94,149.01 94.94,149.74 Z M94.94,159.79 L94.94,164.52 C94.94,165.25 95.27,165.83 95.93,166.25 C95.63,165.91 95.49,165.46 95.49,164.9 L95.49,159.41 C95.49,158.85 95.64,158.4 95.93,158.06 C95.27,158.48 94.94,159.05 94.94,159.79 Z M96.04,148.98 L96.04,156.33 C96.04,156.63 96.15,156.89 96.36,157.11 C96.57,157.32 96.83,157.43 97.14,157.43 C97.44,157.43 97.7,157.32 97.92,157.11 C98.13,156.9 98.24,156.64 98.24,156.33 L98.24,148.98 C98.24,148.68 98.13,148.42 97.92,148.2 C97.71,147.99 97.45,147.88 97.14,147.88 C96.84,147.88 96.58,147.99 96.36,148.2 C96.15,148.41 96.04,148.67 96.04,148.98 Z M96.04,159.02 L96.04,165.28 C96.04,165.58 96.15,165.84 96.36,166.06 C96.57,166.27 96.83,166.38 97.14,166.38 C97.44,166.38 97.7,166.27 97.92,166.06 C98.13,165.85 98.24,165.59 98.24,165.28 L98.24,159.02 C98.24,158.72 98.13,158.46 97.92,158.24 C97.71,158.03 97.45,157.92 97.14,157.92 C96.84,157.92 96.58,158.03 96.36,158.24 C96.15,158.46 96.04,158.72 96.04,159.02 Z M98.9,156.97 C99.56,156.55 99.89,155.94 99.89,155.15 L99.89,149.99 C99.89,149.31 99.59,148.76 98.98,148.34 C99.22,148.69 99.34,149.13 99.34,149.67 L99.34,155.54 C99.34,156.15 99.19,156.63 98.9,156.97 Z M98.9,158.39 C99.2,158.73 99.34,159.21 99.34,159.83 L99.34,164.6 C99.34,165.13 99.22,165.57 98.98,165.91 C99.59,165.5 99.89,164.95 99.89,164.26 L99.89,160.2 C99.89,159.42 99.56,158.81 98.9,158.39 Z" id="形狀" fill="#E37F45"></path>
            <path d="M11.86,46.15 C11.86,46.15 11.86,34.78 16.53,34.78 L7.19,34.78 C7.19,34.78 11.86,34.78 11.86,46.15 Z" id="路徑" fill="#E37F45"></path>
            <path d="M97.14,130.85 C97.14,130.85 97.14,142.22 92.47,142.22 L101.81,142.22 C101.81,142.22 97.14,142.22 97.14,130.85 Z" id="路徑" fill="#E37F45"></path>
        </g>
    </g>
</svg>