<?xml version="1.0" encoding="UTF-8"?>
<svg width="110px" height="177px" viewBox="0 0 110 177" version="1.1" xmlns="http://www.w3.org/2000/svg" xmlns:xlink="http://www.w3.org/1999/xlink">
    <!-- Generator: Sketch 55.1 (78136) - https://sketchapp.com -->
    <title>card-19copy</title>
    <desc>Created with Sketch.</desc>
    <g id="Page-1" stroke="none" stroke-width="1" fill="none" fill-rule="evenodd">
        <g id="card-19copy" fill-rule="nonzero">
            <path d="M96.02,0.26 L12.98,0.26 C5.84,0.26 0,6.1 0,13.24 L0,163.76 C0,170.9 5.84,176.74 12.98,176.74 L96.03,176.74 C103.17,176.74 109.01,170.9 109.01,163.76 L109.01,13.24 C109,6.1 103.16,0.26 96.02,0.26 Z" id="路徑" fill="#EBEBEB"></path>
            <path d="M52.59,141.66 L23.74,141.66 L23.74,140.74 C37.55,140.74 37.71,106.41 37.71,106.07 L38.63,106.07 C38.63,123.99 42.46,132.47 45.67,136.44 C49.1,140.67 52.57,140.75 52.6,140.75 L52.59,141.66 Z M27.6,140.74 L49.35,140.74 C45.55,138.85 39.61,133.05 38.08,115.27 C37.81,117.88 37.41,120.81 36.81,123.72 C34.94,132.84 31.79,138.62 27.6,140.74 Z" id="形狀" fill="#E37F45"></path>
            <path d="M38.62,106.07 L37.7,106.07 C37.7,71.79 23.87,71.4 23.73,71.4 L23.73,70.48 L52.58,70.48 L52.58,71.4 C38.79,71.39 38.62,105.72 38.62,106.07 Z M26.99,71.39 C30.79,73.28 36.73,79.08 38.26,96.86 C38.53,94.25 38.93,91.32 39.53,88.41 C41.4,79.29 44.55,73.51 48.74,71.39 L26.99,71.39 Z" id="形狀" fill="#E37F45"></path>
            <path d="M68.93,124.09 L40.07,124.09 L40.07,123.17 C53.88,123.17 54.04,88.84 54.04,88.5 L54.04,88.5 L54.04,88.5 L54.96,88.5 C54.96,122.78 68.79,123.17 68.93,123.17 L68.93,124.09 Z M43.93,123.17 L65.68,123.17 C61.88,121.28 55.94,115.48 54.41,97.7 C54.14,100.31 53.74,103.24 53.14,106.15 C51.27,115.28 48.13,121.05 43.93,123.17 Z" id="形狀" fill="#E37F45"></path>
            <path d="M54.96,88.5 L54.04,88.5 C54.04,70.58 50.21,62.1 47,58.13 C43.57,53.9 40.1,53.82 40.07,53.82 L40.07,52.9 L68.92,52.9 L68.92,53.82 C55.12,53.83 54.96,88.15 54.96,88.5 Z M43.32,53.83 C47.12,55.72 53.06,61.52 54.59,79.3 C54.86,76.69 55.26,73.76 55.86,70.85 C57.73,61.73 60.88,55.96 65.07,53.83 L43.32,53.83 Z" id="形狀" fill="#E37F45"></path>
            <path d="M85.26,106.52 L56.41,106.52 L56.41,105.6 C70.22,105.6 70.38,71.27 70.38,70.93 L70.38,70.93 L70.38,70.93 L71.3,70.93 C71.3,105.21 85.13,105.6 85.27,105.6 L85.27,106.52 L85.26,106.52 Z M60.26,105.61 L82.01,105.61 C78.21,103.72 72.27,97.92 70.74,80.14 C70.47,82.75 70.07,85.68 69.47,88.59 C67.61,97.71 64.46,103.49 60.26,105.61 Z" id="形狀" fill="#E37F45"></path>
            <path d="M71.29,70.93 L70.37,70.93 C70.37,36.65 56.54,36.26 56.4,36.26 L56.4,35.34 L85.25,35.34 L85.25,36.26 C71.45,36.26 71.29,70.59 71.29,70.93 Z M59.65,36.26 C63.45,38.15 69.39,43.95 70.92,61.73 C71.19,59.12 71.59,56.19 72.19,53.28 C74.06,44.16 77.21,38.38 81.4,36.26 L59.65,36.26 L59.65,36.26 Z" id="形狀" fill="#E37F45"></path>
            <path d="M15.16,26.82 C15.16,27.59 14.84,28.25 14.19,28.8 C13.54,29.35 12.77,29.62 11.86,29.62 C10.96,29.62 10.18,29.35 9.53,28.8 C8.88,28.25 8.56,27.59 8.56,26.82 L8.56,12.92 C8.56,12.15 8.88,11.49 9.53,10.94 C10.18,10.39 10.95,10.12 11.86,10.12 C12.77,10.12 13.55,10.39 14.19,10.94 C14.83,11.49 15.16,12.15 15.16,12.92 L15.16,16.02 L12.96,16.02 L12.96,11.71 C12.96,11.41 12.85,11.15 12.64,10.93 C12.43,10.72 12.17,10.61 11.86,10.61 C11.55,10.61 11.3,10.72 11.08,10.93 C10.87,11.14 10.76,11.4 10.76,11.71 L10.76,19.45 C11.17,19.11 11.73,18.94 12.44,18.94 C14.25,18.94 15.16,19.78 15.16,21.46 L15.16,26.82 L15.16,26.82 Z M10.02,28.67 C9.78,28.32 9.66,27.88 9.66,27.34 L9.66,12.4 C9.66,11.87 9.78,11.43 10.02,11.09 C9.41,11.5 9.11,12.05 9.11,12.74 L9.11,27.02 C9.11,27.7 9.42,28.25 10.02,28.67 Z M12.96,28.02 L12.96,20.52 C12.96,19.83 12.59,19.49 11.86,19.49 C11.47,19.49 11.1,19.64 10.76,19.95 L10.76,28.02 C10.76,28.32 10.87,28.58 11.08,28.8 C11.29,29.02 11.55,29.12 11.86,29.12 C12.17,29.12 12.42,29.01 12.64,28.8 C12.85,28.59 12.96,28.33 12.96,28.02 Z M14.06,15.54 L14.06,12.48 C14.06,11.75 13.73,11.17 13.07,10.75 C13.37,11.09 13.51,11.54 13.51,12.1 L13.51,15.53 L14.06,15.53 L14.06,15.54 Z M14.06,27.26 L14.06,21.02 C14.06,20.3 13.73,19.8 13.07,19.54 C13.37,19.83 13.51,20.23 13.51,20.75 L13.51,27.64 C13.51,28.19 13.36,28.64 13.07,28.98 C13.73,28.57 14.06,27.99 14.06,27.26 Z" id="形狀" fill="#E37F45"></path>
            <path d="M93.84,150.18 C93.84,149.41 94.16,148.75 94.81,148.2 C95.45,147.65 96.23,147.38 97.14,147.38 C98.04,147.38 98.82,147.65 99.47,148.2 C100.12,148.75 100.44,149.41 100.44,150.18 L100.44,164.07 C100.44,164.84 100.12,165.5 99.47,166.05 C98.82,166.6 98.05,166.87 97.14,166.87 C96.23,166.87 95.45,166.6 94.81,166.05 C94.17,165.5 93.84,164.84 93.84,164.07 L93.84,160.97 L96.04,160.97 L96.04,165.28 C96.04,165.58 96.15,165.84 96.36,166.06 C96.57,166.27 96.83,166.38 97.14,166.38 C97.45,166.38 97.7,166.27 97.92,166.06 C98.13,165.85 98.24,165.59 98.24,165.28 L98.24,157.54 C97.83,157.88 97.27,158.05 96.56,158.05 C94.75,158.05 93.84,157.21 93.84,155.53 L93.84,150.18 L93.84,150.18 Z M94.94,149.74 L94.94,155.98 C94.94,156.7 95.27,157.2 95.93,157.46 C95.63,157.17 95.49,156.77 95.49,156.25 L95.49,149.36 C95.49,148.81 95.64,148.36 95.93,148.02 C95.27,148.43 94.94,149.01 94.94,149.74 Z M94.94,161.46 L94.94,164.52 C94.94,165.25 95.27,165.83 95.93,166.25 C95.63,165.91 95.49,165.46 95.49,164.9 L95.49,161.47 L94.94,161.47 L94.94,161.46 Z M96.04,148.98 L96.04,156.48 C96.04,157.17 96.41,157.51 97.14,157.51 C97.53,157.51 97.9,157.36 98.24,157.05 L98.24,148.98 C98.24,148.68 98.13,148.42 97.92,148.2 C97.71,147.99 97.45,147.88 97.14,147.88 C96.83,147.88 96.58,147.99 96.36,148.2 C96.15,148.41 96.04,148.67 96.04,148.98 Z M98.98,148.33 C99.22,148.68 99.34,149.12 99.34,149.66 L99.34,164.6 C99.34,165.13 99.22,165.57 98.98,165.91 C99.59,165.5 99.89,164.95 99.89,164.26 L99.89,149.98 C99.89,149.3 99.58,148.75 98.98,148.33 Z" id="形狀" fill="#E37F45"></path>
            <path d="M11.86,46.15 C11.86,46.15 11.86,34.78 16.53,34.78 L7.19,34.78 C7.19,34.78 11.86,34.78 11.86,46.15 Z" id="路徑" fill="#E37F45"></path>
            <path d="M97.14,130.85 C97.14,130.85 97.14,142.22 92.47,142.22 L101.81,142.22 C101.81,142.22 97.14,142.22 97.14,130.85 Z" id="路徑" fill="#E37F45"></path>
        </g>
    </g>
</svg>