<?xml version="1.0" encoding="UTF-8"?>
<svg width="110px" height="177px" viewBox="0 0 110 177" version="1.1" xmlns="http://www.w3.org/2000/svg" xmlns:xlink="http://www.w3.org/1999/xlink">
    <!-- Generator: Sketch 55.1 (78136) - https://sketchapp.com -->
    <title>card-09copy</title>
    <desc>Created with Sketch.</desc>
    <g id="Page-1" stroke="none" stroke-width="1" fill="none" fill-rule="evenodd">
        <g id="card-09copy" fill-rule="nonzero">
            <path d="M96.02,0.26 L12.98,0.26 C5.84,0.26 0,6.1 0,13.24 L0,163.76 C0,170.9 5.84,176.74 12.98,176.74 L96.03,176.74 C103.17,176.74 109.01,170.9 109.01,163.76 L109.01,13.24 C109,6.1 103.16,0.26 96.02,0.26 Z" id="路徑" fill="#EBEBEB"></path>
            <path d="M15.16,26.82 C15.16,27.59 14.84,28.25 14.19,28.8 C13.55,29.35 12.77,29.62 11.86,29.62 C10.96,29.62 10.18,29.35 9.53,28.8 C8.88,28.25 8.56,27.59 8.56,26.82 L8.56,23.72 L10.76,23.72 L10.76,28.03 C10.76,28.33 10.87,28.59 11.08,28.81 C11.29,29.02 11.55,29.13 11.86,29.13 C12.17,29.13 12.42,29.02 12.64,28.81 C12.85,28.6 12.96,28.34 12.96,28.03 L12.96,20.29 C12.55,20.64 11.99,20.81 11.28,20.81 C9.47,20.81 8.56,19.97 8.56,18.28 L8.56,12.93 C8.56,12.16 8.88,11.5 9.53,10.95 C10.18,10.4 10.95,10.13 11.86,10.13 C12.77,10.13 13.55,10.4 14.19,10.95 C14.83,11.5 15.16,12.16 15.16,12.93 L15.16,26.82 L15.16,26.82 Z M10.02,20.18 C9.78,19.83 9.66,19.39 9.66,18.85 L9.66,12.4 C9.66,11.87 9.78,11.43 10.02,11.09 C9.41,11.5 9.11,12.05 9.11,12.74 L9.11,18.53 C9.11,19.21 9.42,19.76 10.02,20.18 Z M10.02,28.64 C9.78,28.34 9.66,27.9 9.66,27.34 L9.66,24.22 L9.11,24.22 L9.11,27.05 C9.11,27.75 9.42,28.28 10.02,28.64 Z M12.96,19.79 L12.96,11.72 C12.96,11.42 12.85,11.16 12.64,10.94 C12.43,10.73 12.17,10.62 11.86,10.62 C11.55,10.62 11.3,10.73 11.08,10.94 C10.87,11.15 10.76,11.41 10.76,11.72 L10.76,19.22 C10.76,19.92 11.13,20.27 11.86,20.27 C12.25,20.26 12.62,20.1 12.96,19.79 Z M14.06,27.26 L14.06,12.48 C14.06,11.75 13.73,11.17 13.07,10.75 C13.37,11.09 13.51,11.54 13.51,12.1 L13.51,27.64 C13.51,28.19 13.36,28.64 13.07,28.98 C13.73,28.57 14.06,27.99 14.06,27.26 Z" id="形狀" fill="#1D4764"></path>
            <path d="M93.84,150.18 C93.84,149.41 94.16,148.75 94.81,148.2 C95.46,147.65 96.23,147.38 97.14,147.38 C98.04,147.38 98.82,147.65 99.47,148.2 C100.12,148.75 100.44,149.41 100.44,150.18 L100.44,153.28 L98.24,153.28 L98.24,148.97 C98.24,148.67 98.13,148.41 97.92,148.19 C97.71,147.98 97.45,147.87 97.14,147.87 C96.84,147.87 96.58,147.98 96.36,148.19 C96.15,148.4 96.04,148.66 96.04,148.97 L96.04,156.71 C96.45,156.36 97.01,156.19 97.72,156.19 C99.53,156.19 100.44,157.03 100.44,158.72 L100.44,164.07 C100.44,164.84 100.12,165.5 99.47,166.05 C98.82,166.6 98.05,166.87 97.14,166.87 C96.23,166.87 95.45,166.6 94.81,166.05 C94.17,165.5 93.84,164.84 93.84,164.07 L93.84,150.18 L93.84,150.18 Z M94.94,149.74 L94.94,164.52 C94.94,165.25 95.27,165.83 95.93,166.25 C95.63,165.91 95.49,165.46 95.49,164.9 L95.49,149.36 C95.49,148.81 95.64,148.36 95.93,148.02 C95.27,148.43 94.94,149.01 94.94,149.74 Z M96.04,157.21 L96.04,165.28 C96.04,165.58 96.15,165.84 96.36,166.06 C96.57,166.27 96.83,166.38 97.14,166.38 C97.44,166.38 97.7,166.27 97.92,166.06 C98.13,165.85 98.24,165.59 98.24,165.28 L98.24,157.78 C98.24,157.08 97.87,156.73 97.14,156.73 C96.75,156.74 96.38,156.9 96.04,157.21 Z M98.98,148.36 C99.22,148.66 99.34,149.1 99.34,149.66 L99.34,152.78 L99.89,152.78 L99.89,149.95 C99.89,149.25 99.58,148.72 98.98,148.36 Z M98.98,156.82 C99.22,157.17 99.34,157.61 99.34,158.15 L99.34,164.6 C99.34,165.13 99.22,165.57 98.98,165.91 C99.59,165.5 99.89,164.95 99.89,164.26 L99.89,158.47 C99.89,157.79 99.58,157.24 98.98,156.82 Z" id="形狀" fill="#1D4764"></path>
            <path d="M16.07,40.4 C16.07,38.08 14.18,36.19 11.86,36.19 C9.54,36.19 7.65,38.08 7.65,40.4 C7.65,42.72 9.54,44.61 11.86,44.61 C14.18,44.61 16.07,42.72 16.07,40.4 Z" id="路徑" fill="#1D4764"></path>
            <path d="M97.14,132.39 C94.82,132.39 92.93,134.28 92.93,136.6 C92.93,138.92 94.82,140.81 97.14,140.81 C99.46,140.81 101.35,138.92 101.35,136.6 C101.35,134.27 99.46,132.39 97.14,132.39 Z" id="路徑" fill="#1D4764"></path>
            <path d="M71.31,44.27 C68.46,37.81 62,33.28 54.5,33.28 C47,33.28 40.54,37.81 37.69,44.27 C28.78,45.53 21.89,53.18 21.89,62.44 C21.89,65.69 22.75,68.74 24.24,71.4 C22.75,74.05 21.89,77.1 21.89,80.36 C21.89,83.61 22.75,86.66 24.24,89.32 C22.75,91.97 21.89,95.02 21.89,98.28 C21.89,107.53 28.78,115.19 37.69,116.45 C40.54,122.91 47,127.44 54.5,127.44 C62,127.44 68.46,122.91 71.31,116.45 C80.22,115.19 87.11,107.54 87.11,98.28 C87.11,95.03 86.25,91.98 84.76,89.32 C86.25,86.67 87.11,83.62 87.11,80.36 C87.11,77.11 86.25,74.06 84.76,71.4 C86.25,68.75 87.11,65.7 87.11,62.44 C87.11,53.18 80.22,45.53 71.31,44.27 Z M38.77,116.56 C39.26,116.6 39.76,116.64 40.26,116.64 C46,116.64 51.13,113.99 54.5,109.86 C57.87,114 63,116.64 68.74,116.64 C69.24,116.64 69.74,116.6 70.23,116.56 C67.42,122.43 61.43,126.51 54.5,126.51 C47.57,126.51 41.58,122.43 38.77,116.56 Z M54.5,34.2 C61.43,34.2 67.42,38.28 70.23,44.15 C69.74,44.11 69.24,44.07 68.74,44.07 C63,44.07 57.87,46.72 54.5,50.85 C51.13,46.71 46,44.07 40.26,44.07 C39.76,44.07 39.26,44.11 38.77,44.15 C41.58,38.27 47.57,34.2 54.5,34.2 Z M71.95,80.35 C71.95,89.97 64.12,97.8 54.5,97.8 C44.88,97.8 37.05,89.97 37.05,80.35 C37.05,70.73 44.88,62.9 54.5,62.9 C64.12,62.9 71.95,70.73 71.95,80.35 Z M40.26,44.99 C49.83,44.99 57.62,52.73 57.71,62.29 C56.67,62.11 55.6,61.99 54.5,61.99 C51.98,61.99 49.57,62.5 47.38,63.43 C45.19,62.51 42.78,61.99 40.26,61.99 C33.76,61.99 28.05,65.39 24.79,70.5 C23.53,68.09 22.81,65.35 22.81,62.45 C22.81,52.81 30.64,44.99 40.26,44.99 Z M40.26,62.9 C42.36,62.9 44.36,63.29 46.23,63.97 C40.25,67 36.13,73.2 36.13,80.35 C36.13,87.5 40.25,93.7 46.23,96.73 C44.36,97.41 42.36,97.8 40.26,97.8 C30.64,97.8 22.81,89.97 22.81,80.35 C22.81,70.73 30.64,62.9 40.26,62.9 Z M40.26,98.72 C42.78,98.72 45.19,98.21 47.38,97.28 C48.34,97.68 49.34,97.99 50.37,98.23 C50.37,98.24 50.37,98.25 50.37,98.26 C50.37,102.31 51.7,106.04 53.93,109.08 C50.73,113.11 45.8,115.71 40.26,115.71 C30.64,115.71 22.81,107.88 22.81,98.26 C22.81,95.36 23.53,92.62 24.79,90.21 C28.06,95.32 33.76,98.72 40.26,98.72 Z M68.74,115.72 C59.17,115.72 51.38,107.98 51.29,98.42 C52.33,98.6 53.4,98.72 54.5,98.72 C57.02,98.72 59.43,98.21 61.62,97.28 C63.81,98.2 66.22,98.72 68.74,98.72 C75.24,98.72 80.95,95.32 84.21,90.21 C85.47,92.62 86.19,95.36 86.19,98.26 C86.19,107.89 78.36,115.72 68.74,115.72 Z M68.74,97.81 C66.64,97.81 64.64,97.42 62.77,96.74 C68.75,93.71 72.87,87.51 72.87,80.36 C72.87,73.21 68.75,67.01 62.77,63.98 C64.64,63.3 66.64,62.91 68.74,62.91 C78.36,62.91 86.19,70.74 86.19,80.36 C86.19,89.98 78.36,97.81 68.74,97.81 Z M68.74,61.98 C66.22,61.98 63.81,62.49 61.62,63.42 C60.66,63.02 59.66,62.71 58.63,62.47 C58.63,62.46 58.63,62.45 58.63,62.44 C58.63,58.39 57.3,54.66 55.07,51.62 C58.27,47.59 63.2,44.99 68.74,44.99 C78.36,44.99 86.19,52.82 86.19,62.44 C86.19,65.34 85.47,68.08 84.21,70.49 C80.94,65.38 75.24,61.98 68.74,61.98 Z" id="形狀" fill="#1D4764"></path>
            <path d="M59.96,138.68 C59.76,138.68 54.96,138.54 54.96,130.28 L54.5,130.28 L54.5,130.28 L54.04,130.28 C54.04,130.36 53.98,138.68 49.04,138.68 L49.04,139.6 L59.95,139.6 L59.96,138.68 Z M51.88,138.68 C53.29,137.62 54.05,135.8 54.46,134.13 C55.07,136.58 56.25,137.94 57.36,138.68 L51.88,138.68 Z" id="形狀" fill="#1D4764"></path>
        </g>
    </g>
</svg>