<?xml version="1.0" encoding="UTF-8"?>
<svg width="110px" height="177px" viewBox="0 0 110 177" version="1.1" xmlns="http://www.w3.org/2000/svg" xmlns:xlink="http://www.w3.org/1999/xlink">
    <!-- Generator: Sketch 55.1 (78136) - https://sketchapp.com -->
    <title>card-44copy</title>
    <desc>Created with Sketch.</desc>
    <g id="Page-1" stroke="none" stroke-width="1" fill="none" fill-rule="evenodd">
        <g id="card-44copy" fill-rule="nonzero">
            <path d="M96.02,0.26 L12.98,0.26 C5.84,0.26 0,6.1 0,13.24 L0,163.76 C0,170.9 5.84,176.74 12.98,176.74 L96.03,176.74 C103.17,176.74 109.01,170.9 109.01,163.76 L109.01,13.24 C109,6.1 103.16,0.26 96.02,0.26 Z" id="路徑" fill="#EBEBEB"></path>
            <path d="M47.42,94.37 C43.26,94.37 39.88,90.99 39.88,86.83 C39.88,82.67 43.26,79.29 47.42,79.29 C51.58,79.29 54.96,82.67 54.96,86.83 C54.96,90.99 51.58,94.37 47.42,94.37 Z M47.42,80.21 C43.77,80.21 40.79,83.18 40.79,86.84 C40.79,90.5 43.76,93.47 47.42,93.47 C51.07,93.47 54.05,90.5 54.05,86.84 C54.05,83.18 51.07,80.21 47.42,80.21 Z" id="形狀" fill="#1D4764"></path>
            <path d="M61.58,94.37 C57.42,94.37 54.04,90.99 54.04,86.83 C54.04,82.67 57.42,79.29 61.58,79.29 C65.74,79.29 69.12,82.67 69.12,86.83 C69.12,90.99 65.74,94.37 61.58,94.37 Z M61.58,80.21 C57.93,80.21 54.95,83.18 54.95,86.84 C54.95,90.5 57.92,93.47 61.58,93.47 C65.23,93.47 68.21,90.5 68.21,86.84 C68.21,83.18 65.24,80.21 61.58,80.21 Z" id="形狀" fill="#1D4764"></path>
            <path d="M54.5,82.1 C50.34,82.1 46.96,78.72 46.96,74.56 C46.96,70.4 50.34,67.02 54.5,67.02 C58.66,67.02 62.04,70.4 62.04,74.56 C62.04,78.71 58.66,82.1 54.5,82.1 Z M54.5,67.93 C50.85,67.93 47.87,70.9 47.87,74.56 C47.87,78.21 50.84,81.19 54.5,81.19 C58.15,81.19 61.13,78.22 61.13,74.56 C61.13,70.9 58.15,67.93 54.5,67.93 Z" id="形狀" fill="#1D4764"></path>
            <path d="M29.12,141.78 C24.96,141.78 21.58,138.4 21.58,134.24 C21.58,130.08 24.96,126.7 29.12,126.7 C33.28,126.7 36.66,130.08 36.66,134.24 C36.66,138.4 33.28,141.78 29.12,141.78 Z M29.12,127.62 C25.47,127.62 22.49,130.59 22.49,134.25 C22.49,137.91 25.46,140.88 29.12,140.88 C32.78,140.88 35.75,137.91 35.75,134.25 C35.75,130.59 32.77,127.62 29.12,127.62 Z" id="形狀" fill="#1D4764"></path>
            <path d="M43.29,141.78 C39.13,141.78 35.75,138.4 35.75,134.24 C35.75,130.08 39.13,126.7 43.29,126.7 C47.45,126.7 50.83,130.08 50.83,134.24 C50.83,138.4 47.45,141.78 43.29,141.78 Z M43.29,127.62 C39.64,127.62 36.66,130.59 36.66,134.25 C36.66,137.91 39.63,140.88 43.29,140.88 C46.94,140.88 49.92,137.91 49.92,134.25 C49.92,130.59 46.94,127.62 43.29,127.62 Z" id="形狀" fill="#1D4764"></path>
            <path d="M36.2,129.5 C32.04,129.5 28.66,126.12 28.66,121.96 C28.66,117.8 32.04,114.42 36.2,114.42 C40.36,114.42 43.7400221,117.8 43.7400221,121.96 C43.75,126.12 40.36,129.5 36.2,129.5 Z M36.2,115.34 C32.55,115.34 29.57,118.31 29.57,121.97 C29.57,125.62 32.54,128.6 36.2,128.6 C39.85,128.6 42.83,125.63 42.83,121.97 C42.83,118.31 39.86,115.34 36.2,115.34 Z" id="形狀" fill="#1D4764"></path>
            <path d="M65.71,141.78 C61.55,141.78 58.17,138.4 58.17,134.24 C58.17,130.08 61.55,126.7 65.71,126.7 C69.87,126.7 73.25,130.08 73.25,134.24 C73.25,138.4 69.87,141.78 65.71,141.78 Z M65.71,127.62 C62.06,127.62 59.08,130.59 59.08,134.25 C59.08,137.91 62.05,140.88 65.71,140.88 C69.36,140.88 72.34,137.91 72.34,134.25 C72.34,130.59 69.37,127.62 65.71,127.62 Z" id="形狀" fill="#1D4764"></path>
            <path d="M79.88,141.78 C75.72,141.78 72.34,138.4 72.34,134.24 C72.34,130.08 75.72,126.7 79.88,126.7 C84.04,126.7 87.42,130.08 87.42,134.24 C87.42,138.4 84.04,141.78 79.88,141.78 Z M79.88,127.62 C76.23,127.62 73.25,130.59 73.25,134.25 C73.25,137.91 76.22,140.88 79.88,140.88 C83.53,140.88 86.51,137.91 86.51,134.25 C86.51,130.59 83.53,127.62 79.88,127.62 Z" id="形狀" fill="#1D4764"></path>
            <path d="M72.8,129.5 C68.64,129.5 65.26,126.12 65.26,121.96 C65.26,117.8 68.64,114.42 72.8,114.42 C76.96,114.42 80.34,117.8 80.34,121.96 C80.34,126.12 76.95,129.5 72.8,129.5 Z M72.8,115.34 C69.15,115.34 66.17,118.31 66.17,121.97 C66.17,125.62 69.14,128.6 72.8,128.6 C76.45,128.6 79.43,125.63 79.43,121.97 C79.42,118.31 76.45,115.34 72.8,115.34 Z" id="形狀" fill="#1D4764"></path>
            <path d="M29.12,62.7 C24.96,62.7 21.58,59.32 21.58,55.16 C21.58,51 24.96,47.62 29.12,47.62 C33.28,47.62 36.66,51 36.66,55.16 C36.66,59.32 33.28,62.7 29.12,62.7 Z M29.12,48.54 C25.47,48.54 22.49,51.51 22.49,55.17 C22.49,58.82 25.46,61.8 29.12,61.8 C32.78,61.8 35.75,58.83 35.75,55.17 C35.75,51.51 32.77,48.54 29.12,48.54 Z" id="形狀" fill="#1D4764"></path>
            <path d="M43.29,62.7 C39.13,62.7 35.75,59.32 35.75,55.16 C35.75,51 39.13,47.62 43.29,47.62 C47.45,47.62 50.83,51 50.83,55.16 C50.83,59.32 47.45,62.7 43.29,62.7 Z M43.29,48.54 C39.64,48.54 36.66,51.51 36.66,55.17 C36.66,58.82 39.63,61.8 43.29,61.8 C46.94,61.8 49.92,58.83 49.92,55.17 C49.91,51.51 46.94,48.54 43.29,48.54 Z" id="形狀" fill="#1D4764"></path>
            <path d="M36.2,50.43 C32.04,50.43 28.66,47.05 28.66,42.89 C28.66,38.73 32.04,35.35 36.2,35.35 C40.36,35.35 43.74,38.73 43.74,42.89 C43.74,47.05 40.36,50.43 36.2,50.43 Z M36.2,36.26 C32.55,36.26 29.57,39.23 29.57,42.89 C29.57,46.54 32.54,49.52 36.2,49.52 C39.85,49.52 42.83,46.55 42.83,42.89 C42.83,39.23 39.86,36.26 36.2,36.26 Z" id="形狀" fill="#1D4764"></path>
            <path d="M65.71,62.7 C61.55,62.7 58.17,59.32 58.17,55.16 C58.17,51 61.55,47.62 65.71,47.62 C69.87,47.62 73.25,51 73.25,55.16 C73.25,59.32 69.87,62.7 65.71,62.7 Z M65.71,48.54 C62.06,48.54 59.08,51.51 59.08,55.17 C59.08,58.82 62.05,61.8 65.71,61.8 C69.36,61.8 72.34,58.83 72.34,55.17 C72.34,51.51 69.37,48.54 65.71,48.54 Z" id="形狀" fill="#1D4764"></path>
            <path d="M79.88,62.7 C75.72,62.7 72.34,59.32 72.34,55.16 C72.34,51 75.72,47.62 79.88,47.62 C84.04,47.62 87.42,51 87.42,55.16 C87.42,59.32 84.04,62.7 79.88,62.7 Z M79.88,48.54 C76.23,48.54 73.25,51.51 73.25,55.17 C73.25,58.82 76.22,61.8 79.88,61.8 C83.53,61.8 86.51,58.83 86.51,55.17 C86.5,51.51 83.53,48.54 79.88,48.54 Z" id="形狀" fill="#1D4764"></path>
            <path d="M72.8,50.43 C68.64,50.43 65.26,47.05 65.26,42.89 C65.26,38.73 68.64,35.35 72.8,35.35 C76.96,35.35 80.34,38.73 80.34,42.89 C80.34,47.05 76.95,50.43 72.8,50.43 Z M72.8,36.26 C69.15,36.26 66.17,39.23 66.17,42.89 C66.17,46.54 69.14,49.52 72.8,49.52 C76.45,49.52 79.43,46.55 79.43,42.89 C79.42,39.23 76.45,36.26 72.8,36.26 Z" id="形狀" fill="#1D4764"></path>
            <path d="M64.12,109.99 L44.88,109.99 L44.88,109.07 C53.93,109.07 54.04,94.07 54.04,93.92 L54.96,93.92 C54.96,108.85 63.75,109.07 64.12,109.07 L64.12,109.99 Z M48.64,109.07 L60.78,109.07 C60.22,108.79 59.62,108.42 59.02,107.93 C57.27,106.51 55.27,103.86 54.44,98.97 C54.27,99.89 54.04,100.87 53.74,101.85 C52.64,105.41 50.91,107.85 48.64,109.07 Z" id="形狀" fill="#1D4764"></path>
            <g id="群組" transform="translate(7.000000, 33.000000)" fill="#1D4764">
                <circle id="橢圓形" cx="2.53" cy="7.12" r="2.33"></circle>
                <circle id="橢圓形" cx="7.2" cy="7.12" r="2.33"></circle>
                <circle id="橢圓形" cx="4.86" cy="3.07" r="2.33"></circle>
                <circle id="橢圓形" cx="92.47" cy="103.88" r="2.33"></circle>
                <circle id="橢圓形" cx="87.81" cy="103.88" r="2.33"></circle>
                <circle id="橢圓形" cx="90.14" cy="107.93" r="2.33"></circle>
            </g>
            <path d="M15.16,26.82 C15.16,27.59 14.84,28.25 14.19,28.8 C13.55,29.35 12.77,29.62 11.86,29.62 C10.96,29.62 10.18,29.35 9.53,28.8 C8.88,28.25 8.56,27.59 8.56,26.82 L8.56,23.72 L10.76,23.72 L10.76,28.03 C10.76,28.33 10.87,28.59 11.08,28.81 C11.29,29.02 11.55,29.13 11.86,29.13 C12.17,29.13 12.42,29.02 12.64,28.81 C12.85,28.6 12.96,28.34 12.96,28.03 L12.96,20.68 C12.96,20.38 12.85,20.12 12.64,19.9 C12.43,19.69 12.17,19.58 11.86,19.58 L8.71,19.58 L8.71,10.26 L14.88,10.26 L14.88,16.03 L12.69,16.03 L12.69,10.76 L10.91,10.76 L10.91,19.09 L11.86,19.09 C12.77,19.09 13.55,19.36 14.19,19.91 C14.83,20.46 15.16,21.12 15.16,21.89 L15.16,26.82 L15.16,26.82 Z M10.02,28.67 C9.78,28.32 9.66,27.88 9.66,27.34 L9.66,24.22 L9.11,24.22 L9.11,27.02 C9.11,27.7 9.42,28.25 10.02,28.67 Z M9.81,19.08 L9.81,10.75 L9.26,10.75 L9.26,19.08 L9.81,19.08 Z M14.06,27.26 L14.06,21.44 C14.06,20.71 13.73,20.13 13.07,19.71 C13.37,20.05 13.51,20.5 13.51,21.05 L13.51,27.65 C13.51,28.2 13.36,28.65 13.07,28.99 C13.73,28.57 14.06,27.99 14.06,27.26 Z M13.79,15.54 L13.79,10.75 L13.24,10.75 L13.24,15.54 L13.79,15.54 Z" id="形狀" fill="#1D4764"></path>
            <path d="M93.84,150.19 C93.84,149.42 94.16,148.76 94.81,148.21 C95.45,147.66 96.23,147.39 97.14,147.39 C98.04,147.39 98.82,147.66 99.47,148.21 C100.12,148.76 100.44,149.42 100.44,150.19 L100.44,153.29 L98.24,153.29 L98.24,148.98 C98.24,148.68 98.13,148.42 97.92,148.2 C97.71,147.99 97.45,147.88 97.14,147.88 C96.83,147.88 96.58,147.99 96.36,148.2 C96.15,148.41 96.04,148.67 96.04,148.98 L96.04,156.33 C96.04,156.63 96.15,156.89 96.36,157.11 C96.57,157.32 96.83,157.43 97.14,157.43 L100.29,157.43 L100.29,166.75 L94.12,166.75 L94.12,160.98 L96.31,160.98 L96.31,166.25 L98.09,166.25 L98.09,157.92 L97.14,157.92 C96.23,157.92 95.45,157.65 94.81,157.1 C94.17,156.55 93.84,155.89 93.84,155.12 L93.84,150.19 Z M94.94,149.74 L94.94,155.56 C94.94,156.29 95.27,156.87 95.93,157.29 C95.63,156.95 95.49,156.5 95.49,155.95 L95.49,149.35 C95.49,148.8 95.64,148.35 95.93,148.01 C95.27,148.43 94.94,149.01 94.94,149.74 Z M95.21,161.46 L95.21,166.25 L95.76,166.25 L95.76,161.46 L95.21,161.46 Z M98.98,148.33 C99.22,148.68 99.34,149.12 99.34,149.66 L99.34,152.78 L99.89,152.78 L99.89,149.98 C99.89,149.3 99.58,148.75 98.98,148.33 Z M99.19,157.92 L99.19,166.25 L99.74,166.25 L99.74,157.92 L99.19,157.92 Z" id="形狀" fill="#1D4764"></path>
        </g>
    </g>
</svg>