<?xml version="1.0" encoding="UTF-8"?>
<svg width="110px" height="177px" viewBox="0 0 110 177" version="1.1" xmlns="http://www.w3.org/2000/svg" xmlns:xlink="http://www.w3.org/1999/xlink">
    <!-- Generator: Sketch 55.1 (78136) - https://sketchapp.com -->
    <title>card-06copy</title>
    <desc>Created with Sketch.</desc>
    <g id="Page-1" stroke="none" stroke-width="1" fill="none" fill-rule="evenodd">
        <g id="card-06copy" fill-rule="nonzero">
            <path d="M96.02,0.26 L12.98,0.26 C5.84,0.26 0,6.1 0,13.24 L0,163.76 C0,170.9 5.84,176.74 12.98,176.74 L96.03,176.74 C103.17,176.74 109.01,170.9 109.01,163.76 L109.01,13.24 C109,6.1 103.16,0.26 96.02,0.26 Z" id="路徑" fill="#EBEBEB"></path>
            <path d="M15.16,26.82 C15.16,27.59 14.84,28.25 14.19,28.8 C13.55,29.35 12.77,29.62 11.86,29.62 C10.96,29.62 10.18,29.35 9.53,28.8 C8.88,28.25 8.56,27.59 8.56,26.82 L8.56,12.92 C8.56,12.15 8.88,11.49 9.53,10.94 C10.18,10.39 10.95,10.12 11.86,10.12 C12.77,10.12 13.55,10.39 14.19,10.94 C14.83,11.49 15.16,12.15 15.16,12.92 L15.16,16.02 L12.96,16.02 L12.96,11.71 C12.96,11.41 12.85,11.15 12.64,10.93 C12.43,10.72 12.17,10.61 11.86,10.61 C11.55,10.61 11.3,10.72 11.08,10.93 C10.87,11.14 10.76,11.4 10.76,11.71 L10.76,19.45 C11.17,19.11 11.73,18.94 12.44,18.94 C14.25,18.94 15.16,19.78 15.16,21.46 L15.16,26.82 L15.16,26.82 Z M10.02,28.67 C9.78,28.32 9.66,27.88 9.66,27.34 L9.66,12.4 C9.66,11.87 9.78,11.43 10.02,11.09 C9.41,11.5 9.11,12.05 9.11,12.74 L9.11,27.02 C9.11,27.7 9.42,28.25 10.02,28.67 Z M12.96,28.02 L12.96,20.52 C12.96,19.83 12.59,19.49 11.86,19.49 C11.47,19.49 11.1,19.64 10.76,19.95 L10.76,28.02 C10.76,28.32 10.87,28.58 11.08,28.8 C11.29,29.01 11.55,29.12 11.86,29.12 C12.17,29.12 12.42,29.01 12.64,28.8 C12.85,28.59 12.96,28.33 12.96,28.02 Z M14.06,15.54 L14.06,12.48 C14.06,11.75 13.73,11.17 13.07,10.75 C13.37,11.09 13.51,11.54 13.51,12.1 L13.51,15.53 L14.06,15.53 L14.06,15.54 Z M14.06,27.26 L14.06,21.02 C14.06,20.3 13.73,19.8 13.07,19.54 C13.37,19.83 13.51,20.23 13.51,20.75 L13.51,27.64 C13.51,28.19 13.36,28.64 13.07,28.98 C13.73,28.57 14.06,27.99 14.06,27.26 Z" id="形狀" fill="#1D4764"></path>
            <path d="M93.84,150.18 C93.84,149.41 94.16,148.75 94.81,148.2 C95.45,147.65 96.23,147.38 97.14,147.38 C98.04,147.38 98.82,147.65 99.47,148.2 C100.12,148.75 100.44,149.41 100.44,150.18 L100.44,164.07 C100.44,164.84 100.12,165.5 99.47,166.05 C98.82,166.6 98.05,166.87 97.14,166.87 C96.23,166.87 95.45,166.6 94.81,166.05 C94.17,165.5 93.84,164.84 93.84,164.07 L93.84,160.97 L96.04,160.97 L96.04,165.28 C96.04,165.58 96.15,165.84 96.36,166.06 C96.57,166.27 96.83,166.38 97.14,166.38 C97.45,166.38 97.7,166.27 97.92,166.06 C98.13,165.85 98.24,165.59 98.24,165.28 L98.24,157.54 C97.83,157.88 97.27,158.05 96.56,158.05 C94.75,158.05 93.84,157.21 93.84,155.53 L93.84,150.18 L93.84,150.18 Z M94.94,149.74 L94.94,155.98 C94.94,156.7 95.27,157.2 95.93,157.46 C95.63,157.17 95.49,156.77 95.49,156.25 L95.49,149.36 C95.49,148.81 95.64,148.36 95.93,148.02 C95.27,148.43 94.94,149.01 94.94,149.74 Z M94.94,161.46 L94.94,164.52 C94.94,165.25 95.27,165.83 95.93,166.25 C95.63,165.91 95.49,165.46 95.49,164.9 L95.49,161.47 L94.94,161.47 L94.94,161.46 Z M96.04,148.98 L96.04,156.48 C96.04,157.17 96.41,157.51 97.14,157.51 C97.53,157.51 97.9,157.36 98.24,157.05 L98.24,148.98 C98.24,148.68 98.13,148.42 97.92,148.2 C97.71,147.99 97.45,147.88 97.14,147.88 C96.83,147.88 96.58,147.99 96.36,148.2 C96.15,148.41 96.04,148.67 96.04,148.98 Z M98.98,148.33 C99.22,148.68 99.34,149.12 99.34,149.66 L99.34,164.6 C99.34,165.13 99.22,165.57 98.98,165.91 C99.59,165.5 99.89,164.95 99.89,164.26 L99.89,149.98 C99.89,149.3 99.58,148.75 98.98,148.33 Z" id="形狀" fill="#1D4764"></path>
            <path d="M16.07,40.4 C16.07,38.08 14.18,36.19 11.86,36.19 C9.54,36.19 7.65,38.08 7.65,40.4 C7.65,42.72 9.54,44.61 11.86,44.61 C14.18,44.61 16.07,42.72 16.07,40.4 Z" id="路徑" fill="#1D4764"></path>
            <path d="M97.14,132.39 C94.82,132.39 92.93,134.28 92.93,136.6 C92.93,138.92 94.82,140.81 97.14,140.81 C99.46,140.81 101.35,138.92 101.35,136.6 C101.35,134.27 99.46,132.39 97.14,132.39 Z" id="路徑" fill="#1D4764"></path>
            <path d="M31.44,93.65 C31.59,93.65 35.21,93.77 35.21,100.05 L36.13,100.05 C36.13,99.99 36.17,93.65 39.89,93.65 L39.89,92.73 L31.44,92.73 L31.44,93.65 Z M37.4,93.65 C36.53,94.42 36.01,95.56 35.69,96.67 C35.24,95.15 34.5,94.22 33.76,93.65 L37.4,93.65 Z" id="形狀" fill="#1D4764"></path>
            <path d="M73.1,101.38 C68.03,101.38 63.57,104.04 61.03,108.03 C59.07,107.02 56.86,106.44 54.5,106.44 C52.08,106.44 49.8,107.05 47.79,108.12 C45.26,104.08 40.77,101.38 35.66,101.38 C27.76,101.38 21.34,107.8 21.34,115.7 C21.34,123.6 27.76,130.02 35.66,130.02 C38.08,130.02 40.36,129.41 42.37,128.34 C44.9,132.38 49.39,135.08 54.5,135.08 C59.57,135.08 64.03,132.42 66.57,128.43 C68.53,129.44 70.74,130.02 73.1,130.02 C81,130.02 87.42,123.6 87.42,115.7 C87.42,107.8 80.99,101.38 73.1,101.38 Z M41.09,120.76 C41.09,113.37 47.1,107.36 54.49,107.36 C61.88,107.36 67.9,113.37 67.9,120.76 C67.9,128.15 61.89,134.17 54.49,134.17 C47.11,134.17 41.09,128.15 41.09,120.76 Z M22.26,115.7 C22.26,108.31 28.27,102.29 35.66,102.29 C40.43,102.29 44.62,104.81 47,108.58 C42.91,111.1 40.17,115.61 40.17,120.76 C40.17,123.22 40.79,125.53 41.89,127.56 C40.03,128.54 37.91,129.11 35.66,129.11 C28.28,129.11 22.26,123.09 22.26,115.7 Z M68.82,120.76 C68.82,115.54 66,110.98 61.82,108.48 C64.21,104.77 68.36,102.3 73.09,102.3 C80.48,102.3 86.49,108.31 86.49,115.71 C86.49,123.1 80.48,129.11 73.09,129.11 C70.91,129.11 68.86,128.58 67.04,127.65 C68.18,125.6 68.82,123.26 68.82,120.76 Z" id="形狀" fill="#1D4764"></path>
            <path d="M68.88,93.65 C68.92,93.65 72.64,93.72 72.64,100.05 L73.56,100.05 C73.56,99.99 73.6,93.65 77.32,93.65 L77.32,92.73 L68.88,92.73 L68.88,93.19 L68.88,93.19 L68.88,93.65 L68.88,93.65 Z M73.12,96.68 C72.67,95.16 71.93,94.23 71.19,93.66 L74.83,93.66 C73.97,94.42 73.44,95.57 73.12,96.68 Z" id="形狀" fill="#1D4764"></path>
            <path d="M73.1,42.85 C70.68,42.85 68.4,43.46 66.39,44.53 C63.86,40.49 59.37,37.79 54.26,37.79 C49.19,37.79 44.73,40.45 42.19,44.44 C40.23,43.43 38.02,42.85 35.66,42.85 C27.76,42.85 21.34,49.27 21.34,57.17 C21.34,65.07 27.77,71.5 35.67,71.5 C40.74,71.5 45.2,68.84 47.74,64.85 C49.7,65.86 51.91,66.44 54.27,66.44 C56.69,66.44 58.97,65.83 60.98,64.76 C63.51,68.8 68,71.5 73.11,71.5 C81.01,71.5 87.43,65.08 87.43,57.18 C87.43,49.28 80.99,42.85 73.1,42.85 Z M61.76,64.29 C65.85,61.77 68.59,57.26 68.59,52.11 C68.59,49.65 67.97,47.34 66.87,45.31 C68.73,44.33 70.85,43.76 73.1,43.76 C80.49,43.76 86.5,49.77 86.5,57.17 C86.5,64.56 80.49,70.58 73.1,70.58 C68.32,70.58 64.14,68.06 61.76,64.29 Z M22.26,57.18 C22.26,49.79 28.27,43.77 35.66,43.77 C37.84,43.77 39.89,44.3 41.71,45.23 C40.58,47.27 39.94,49.62 39.94,52.12 C39.94,57.34 42.75,61.9 46.94,64.4 C44.55,68.11 40.4,70.58 35.67,70.58 C28.28,70.58 22.26,64.57 22.26,57.18 Z M40.86,52.11 C40.86,44.72 46.87,38.7 54.27,38.7 C61.67,38.7 67.67,44.71 67.67,52.11 C67.67,59.5 61.66,65.51 54.27,65.51 C46.88,65.51 40.86,59.51 40.86,52.11 Z" id="形狀" fill="#1D4764"></path>
            <path d="M77.32,80.14 L77.32,79.22 C77.17,79.22 73.55,79.1 73.55,72.82 L72.63,72.82 C72.63,72.88 72.58,79.22 68.87,79.22 L68.87,79.68 L68.87,79.68 L68.87,80.14 L77.32,80.14 L77.32,80.14 Z M73.07,76.2 C73.52,77.72 74.26,78.65 75,79.22 L71.36,79.22 C72.23,78.46 72.76,77.31 73.07,76.2 Z" id="形狀" fill="#1D4764"></path>
            <path d="M39.89,79.22 C39.74,79.22 36.12,79.1 36.12,72.82 L35.2,72.82 C35.2,72.88 35.16,79.22 31.44,79.22 L31.44,80.14 L39.89,80.14 L39.89,79.22 Z M33.93,79.22 C34.8,78.45 35.32,77.31 35.64,76.2 C36.09,77.72 36.83,78.65 37.57,79.22 L33.93,79.22 Z" id="形狀" fill="#1D4764"></path>
        </g>
    </g>
</svg>