<?xml version="1.0" encoding="UTF-8"?>
<svg width="110px" height="177px" viewBox="0 0 110 177" version="1.1" xmlns="http://www.w3.org/2000/svg" xmlns:xlink="http://www.w3.org/1999/xlink">
    <!-- Generator: Sketch 55.1 (78136) - https://sketchapp.com -->
    <title>card-36copy</title>
    <desc>Created with Sketch.</desc>
    <g id="Page-1" stroke="none" stroke-width="1" fill="none" fill-rule="evenodd">
        <g id="card-36copy" fill-rule="nonzero">
            <path d="M96.02,0.26 L12.98,0.26 C5.84,0.26 0,6.1 0,13.24 L0,163.76 C0,170.9 5.84,176.74 12.98,176.74 L96.03,176.74 C103.17,176.74 109.01,170.9 109.01,163.76 L109.01,13.24 C109,6.1 103.16,0.26 96.02,0.26 Z" id="路徑" fill="#EBEBEB"></path>
            <path d="M44.14,106.07 L43.22,106.07 C43.22,89.16 32.96,88.96 32.86,88.96 L32.86,88.04 C43.1,88.04 43.22,71.1 43.22,70.93 L44.14,70.93 C44.14,87.84 54.4,88.04 54.5,88.04 L54.5,88.96 C44.26,88.96 44.14,105.89 44.14,106.07 Z M35.44,88.6 C38.24,89.63 42.48,92.54 43.76,100.78 C44.58,96.15 46.66,89.94 51.92,88.4 C49.12,87.37 44.88,84.46 43.6,76.22 C42.78,80.85 40.7,87.06 35.44,88.6 Z" id="形狀" fill="#E37F45"></path>
            <path d="M44.14,141.2 L43.22,141.2 C43.22,124.33 33.28,124.09 32.86,124.09 L32.86,123.17 C43.1,123.17 43.22,106.23 43.22,106.06 L44.14,106.06 C44.14,122.97 54.4,123.17 54.5,123.17 L54.5,124.09 C44.26,124.09 44.14,141.03 44.14,141.2 Z M35.44,123.73 C38.24,124.76 42.48,127.67 43.76,135.91 C44.58,131.28 46.66,125.07 51.92,123.53 C49.12,122.5 44.88,119.59 43.6,111.35 C42.78,115.98 40.7,122.19 35.44,123.73 Z" id="形狀" fill="#E37F45"></path>
            <path d="M44.14,70.93 L43.22,70.93 C43.22,54.06 33.28,53.82 32.86,53.82 L32.86,52.9 C43.1,52.9 43.22,35.96 43.22,35.79 L44.14,35.79 C44.14,52.7 54.4,52.9 54.5,52.9 L54.5,53.82 C44.26,53.83 44.14,70.76 44.14,70.93 Z M35.44,53.47 C38.24,54.5 42.48,57.41 43.76,65.65 C44.58,61.02 46.66,54.81 51.92,53.27 C49.12,52.24 44.88,49.33 43.6,41.09 C42.78,45.71 40.7,51.93 35.44,53.47 Z" id="形狀" fill="#E37F45"></path>
            <path d="M65.78,106.07 L64.86,106.07 C64.86,89.16 54.6,88.96 54.5,88.96 L54.5,88.04 C64.74,88.04 64.86,71.1 64.86,70.93 L65.78,70.93 C65.78,87.84 76.04,88.04 76.14,88.04 L76.14,88.96 C65.9,88.96 65.78,105.89 65.78,106.07 Z M57.08,88.6 C59.88,89.63 64.12,92.54 65.4,100.78 C66.22,96.15 68.3,89.94 73.56,88.4 C70.76,87.37 66.52,84.46 65.24,76.22 C64.42,80.85 62.34,87.06 57.08,88.6 Z" id="形狀" fill="#E37F45"></path>
            <path d="M54.96,88.5 L54.04,88.5 C54.04,71.59 43.78,71.39 43.68,71.39 L43.68,70.47 C53.92,70.47 54.04,53.54 54.04,53.36 L54.04,53.36 L54.96,53.36 C54.96,70.23 64.9,70.47 65.32,70.47 L65.32,71.39 C55.08,71.39 54.96,88.33 54.96,88.5 Z M46.26,71.04 C49.06,72.07 53.3,74.98 54.58,83.22 C55.4,78.59 57.48,72.38 62.74,70.84 C59.94,69.81 55.7,66.9 54.42,58.66 C53.6,63.28 51.52,69.5 46.26,71.04 Z" id="形狀" fill="#E37F45"></path>
            <path d="M54.96,123.63 L54.04,123.63 C54.04,106.72 43.78,106.52 43.68,106.52 L43.68,105.6 C53.92,105.6 54.04,88.66 54.04,88.49 L54.96,88.49 C54.96,105.4 65.22,105.6 65.32,105.6 L65.32,106.52 C55.08,106.52 54.96,123.46 54.96,123.63 Z M46.26,106.17 C49.06,107.2 53.3,110.11 54.58,118.35 C55.4,113.72 57.48,107.51 62.74,105.97 C59.94,104.94 55.7,102.03 54.42,93.79 C53.6,98.41 51.52,104.63 46.26,106.17 Z" id="形狀" fill="#E37F45"></path>
            <path d="M33.32,88.5 L32.4,88.5 C32.4,71.59 22.14,71.39 22.04,71.39 L22.04,70.47 C32.28,70.47 32.4,53.53 32.4,53.36 L33.32,53.36 C33.32,70.23 43.26,70.47 43.68,70.47 L43.68,71.39 C33.44,71.39 33.32,88.33 33.32,88.5 Z M24.62,71.04 C27.42,72.07 31.66,74.98 32.94,83.22 C33.76,78.59 35.84,72.38 41.1,70.84 C38.3,69.81 34.06,66.9 32.78,58.66 C31.96,63.28 29.88,69.5 24.62,71.04 Z" id="形狀" fill="#E37F45"></path>
            <path d="M33.32,123.63 L32.4,123.63 C32.4,106.72 22.14,106.52 22.04,106.52 L22.04,105.6 C32.28,105.6 32.4,88.66 32.4,88.49 L33.32,88.49 C33.32,105.4 43.58,105.6 43.68,105.6 L43.68,106.52 C33.44,106.52 33.32,123.46 33.32,123.63 Z M24.62,106.17 C27.42,107.2 31.66,110.11 32.94,118.35 C33.76,113.72 35.84,107.51 41.1,105.97 C38.3,104.94 34.06,102.03 32.78,93.79 C31.96,98.41 29.88,104.63 24.62,106.17 Z" id="形狀" fill="#E37F45"></path>
            <path d="M76.6,88.5 L75.68,88.5 C75.68,71.59 65.42,71.39 65.32,71.39 L65.32,70.47 C75.56,70.47 75.68,53.53 75.68,53.36 L76.6,53.36 C76.6,70.27 86.86,70.47 86.96,70.47 L86.96,71.39 C76.72,71.39 76.6,88.33 76.6,88.5 Z M67.9,71.04 C70.7,72.07 74.94,74.98 76.22,83.22 C77.04,78.59 79.12,72.38 84.38,70.84 C81.58,69.81 77.34,66.9 76.06,58.66 C75.24,63.28 73.16,69.5 67.9,71.04 Z" id="形狀" fill="#E37F45"></path>
            <path d="M76.6,123.63 L75.68,123.63 C75.68,106.72 65.42,106.52 65.32,106.52 L65.32,105.6 C75.56,105.6 75.68,88.66 75.68,88.49 L76.6,88.49 C76.6,105.35 86.54,105.6 86.96,105.6 L86.96,106.52 C76.72,106.52 76.6,123.46 76.6,123.63 Z M67.9,106.17 C70.7,107.2 74.94,110.11 76.22,118.35 C77.04,113.72 79.12,107.51 84.38,105.97 C81.58,104.94 77.34,102.03 76.06,93.79 C75.24,98.41 73.16,104.63 67.9,106.17 Z" id="形狀" fill="#E37F45"></path>
            <path d="M65.78,141.2 L64.86,141.2 C64.86,124.33 54.92,124.09 54.5,124.09 L54.5,123.17 C64.74,123.17 64.86,106.23 64.86,106.06 L65.78,106.06 C65.78,122.97 76.04,123.17 76.14,123.17 L76.14,124.09 C65.9,124.09 65.78,141.03 65.78,141.2 Z M57.08,123.73 C59.88,124.76 64.12,127.67 65.4,135.91 C66.22,131.28 68.3,125.07 73.56,123.53 C70.76,122.5 66.52,119.59 65.24,111.35 C64.42,115.98 62.34,122.19 57.08,123.73 Z" id="形狀" fill="#E37F45"></path>
            <path d="M65.78,70.93 L64.86,70.93 C64.86,54.06 54.92,53.82 54.5,53.82 L54.5,52.9 C64.74,52.9 64.86,35.96 64.86,35.79 L65.78,35.79 C65.78,52.7 76.04,52.9 76.14,52.9 L76.14,53.82 C65.9,53.83 65.78,70.76 65.78,70.93 Z M57.08,53.47 C59.88,54.5 64.12,57.41 65.4,65.65 C66.22,61.02 68.3,54.81 73.56,53.27 C70.76,52.24 66.52,49.33 65.24,41.09 C64.42,45.71 62.34,51.93 57.08,53.47 Z" id="形狀" fill="#E37F45"></path>
            <g id="群組" transform="translate(7.000000, 10.000000)" fill="#E37F45">
                <path d="M4.4,19.49 L0.83,19.49 L0.83,18.99 L1.51,18.99 L1.51,0.75 L0.83,0.75 L0.83,0.25 L3.71,0.25 L3.71,18.99 L4.39,18.99 L4.39,19.49 L4.4,19.49 Z M2.61,18.99 L2.61,0.75 L2.07,0.75 L2.07,18.99 L2.61,18.99 Z" id="形狀"></path>
                <path d="M12.2,16.82 C12.2,17.54 11.91,18.18 11.32,18.72 C10.73,19.26 10.02,19.56 9.18,19.63 L9.18,21.96 L8.63,21.96 L8.63,19.63 C7.78,19.57 7.06,19.27 6.48,18.72 C5.9,18.18 5.6,17.55 5.6,16.82 L5.6,2.92 C5.6,2.15 5.92,1.49 6.57,0.94 C7.22,0.39 7.99,0.12 8.9,0.12 C9.81,0.12 10.59,0.39 11.23,0.94 C11.87,1.49 12.2,2.15 12.2,2.92 L12.2,16.82 L12.2,16.82 Z M7.07,18.67 C6.83,18.32 6.71,17.88 6.71,17.34 L6.71,2.4 C6.71,1.87 6.83,1.43 7.07,1.09 C6.46,1.5 6.16,2.05 6.16,2.74 L6.16,17.02 C6.16,17.7 6.46,18.25 7.07,18.67 Z M10,18.02 L10,1.72 C10,1.42 9.89,1.16 9.68,0.94 C9.47,0.73 9.21,0.62 8.9,0.62 C8.59,0.62 8.34,0.73 8.12,0.94 C7.91,1.15 7.8,1.41 7.8,1.72 L7.8,18.03 C7.8,18.58 8.08,18.94 8.63,19.1 L8.63,16.24 L9.18,16.24 L9.18,19.1 C9.73,18.94 10,18.58 10,18.02 Z M11.1,17.26 L11.1,2.48 C11.1,1.75 10.77,1.17 10.11,0.75 C10.41,1.09 10.55,1.54 10.55,2.1 L10.55,17.64 C10.55,18.19 10.4,18.64 10.11,18.98 C10.77,18.57 11.1,17.99 11.1,17.26 Z" id="形狀"></path>
            </g>
            <g id="群組" transform="translate(89.000000, 145.000000)" fill="#E37F45">
                <path d="M8.6,2.52 L12.17,2.52 L12.17,3.02 L11.49,3.02 L11.49,21.26 L12.17,21.26 L12.17,21.76 L9.29,21.76 L9.29,3.02 L8.6,3.02 L8.6,2.52 Z M10.38,3.01 L10.38,21.25 L10.93,21.25 L10.93,3.01 L10.38,3.01 Z" id="形狀"></path>
                <path d="M0.8,5.18 C0.8,4.46 1.09,3.82 1.68,3.28 C2.27,2.74 2.98,2.44 3.82,2.37 L3.82,0.04 L4.37,0.04 L4.37,2.37 C5.22,2.43 5.94,2.73 6.52,3.28 C7.1,3.82 7.4,4.45 7.4,5.18 L7.4,19.07 C7.4,19.84 7.08,20.5 6.43,21.05 C5.78,21.6 5.01,21.87 4.1,21.87 C3.19,21.87 2.41,21.6 1.77,21.05 C1.13,20.5 0.8,19.84 0.8,19.07 L0.8,5.18 Z M1.9,4.74 L1.9,19.52 C1.9,20.25 2.23,20.83 2.89,21.25 C2.59,20.91 2.45,20.46 2.45,19.9 L2.45,4.36 C2.45,3.81 2.6,3.36 2.89,3.02 C2.23,3.43 1.9,4.01 1.9,4.74 Z M2.99,3.98 L2.99,20.29 C2.99,20.59 3.1,20.85 3.31,21.07 C3.52,21.28 3.78,21.39 4.09,21.39 C4.39,21.39 4.65,21.28 4.87,21.07 C5.08,20.86 5.19,20.6 5.19,20.29 L5.19,3.98 C5.19,3.43 4.91,3.07 4.36,2.91 L4.36,5.77 L3.81,5.77 L3.81,2.91 C3.27,3.06 2.99,3.42 2.99,3.98 Z M5.93,3.33 C6.17,3.68 6.29,4.12 6.29,4.66 L6.29,19.6 C6.29,20.13 6.17,20.57 5.93,20.91 C6.54,20.5 6.84,19.95 6.84,19.26 L6.84,4.98 C6.84,4.3 6.54,3.75 5.93,3.33 Z" id="形狀"></path>
            </g>
            <path d="M11.86,31.91 C11.86,31.91 11.86,39.49 7.19,39.49 C7.19,39.49 11.86,39.49 11.86,47.07 C11.86,47.07 11.86,39.49 16.53,39.49 C16.53,39.49 11.86,39.49 11.86,31.91 Z" id="路徑" fill="#E37F45"></path>
            <path d="M97.14,145.09 C97.14,145.09 97.14,137.51 101.81,137.51 C101.81,137.51 97.14,137.51 97.14,129.93 C97.14,129.93 97.14,137.51 92.47,137.51 C92.47,137.51 97.14,137.51 97.14,145.09 Z" id="路徑" fill="#E37F45"></path>
        </g>
    </g>
</svg>