<?xml version="1.0" encoding="UTF-8"?>
<svg width="110px" height="177px" viewBox="0 0 110 177" version="1.1" xmlns="http://www.w3.org/2000/svg" xmlns:xlink="http://www.w3.org/1999/xlink">
    <!-- Generator: Sketch 55.1 (78136) - https://sketchapp.com -->
    <title>card-41copy</title>
    <desc>Created with Sketch.</desc>
    <g id="Page-1" stroke="none" stroke-width="1" fill="none" fill-rule="evenodd">
        <g id="card-41copy" fill-rule="nonzero">
            <path d="M96.02,0.26 L12.98,0.26 C5.84,0.26 0,6.1 0,13.24 L0,163.76 C0,170.9 5.84,176.74 12.98,176.74 L96.03,176.74 C103.17,176.74 109.01,170.9 109.01,163.76 L109.01,13.24 C109,6.1 103.16,0.26 96.02,0.26 Z" id="路徑" fill="#EBEBEB"></path>
            <path d="M46.51,66.09 C41.85,66.09 38.06,62.3 38.06,57.64 C38.06,52.98 41.85,49.19 46.51,49.19 C51.17,49.19 54.96,52.98 54.96,57.64 C54.96,62.3 51.17,66.09 46.51,66.09 Z M46.51,50.11 C42.36,50.11 38.98,53.49 38.98,57.64 C38.98,61.79 42.36,65.17 46.51,65.17 C50.66,65.17 54.04,61.79 54.04,57.64 C54.04,53.49 50.66,50.11 46.51,50.11 Z" id="形狀" fill="#1D4764"></path>
            <path d="M62.49,66.09 C57.83,66.09 54.04,62.3 54.04,57.64 C54.04,52.98 57.83,49.19 62.49,49.19 C67.15,49.19 70.94,52.98 70.94,57.64 C70.94,62.3 67.15,66.09 62.49,66.09 Z M62.49,50.11 C58.34,50.11 54.96,53.49 54.96,57.64 C54.96,61.79 58.34,65.17 62.49,65.17 C66.64,65.17 70.02,61.79 70.02,57.64 C70.02,53.49 66.64,50.11 62.49,50.11 Z" id="形狀" fill="#1D4764"></path>
            <path d="M54.5,52.24 C49.84,52.24 46.05,48.45 46.05,43.79 C46.05,39.13 49.84,35.34 54.5,35.34 C59.16,35.34 62.95,39.13 62.95,43.79 C62.95,48.45 59.16,52.24 54.5,52.24 Z M54.5,36.26 C50.35,36.26 46.97,39.64 46.97,43.79 C46.97,47.94 50.35,51.32 54.5,51.32 C58.65,51.32 62.03,47.94 62.03,43.79 C62.03,39.64 58.65,36.26 54.5,36.26 Z" id="形狀" fill="#1D4764"></path>
            <path d="M65.35,83.7 L43.65,83.7 L43.65,82.78 C53.92,82.78 54.04,65.8 54.04,65.63 L54.96,65.63 C54.96,82.59 65.25,82.78 65.35,82.78 L65.35,83.7 Z M47.65,82.79 L61.91,82.79 C59.16,81.5 55.58,78.4 54.42,70.93 C53.68,75.13 51.9,80.64 47.65,82.79 Z" id="形狀" fill="#1D4764"></path>
            <path d="M62.49,127.81 C57.83,127.81 54.04,124.02 54.04,119.36 C54.04,114.7 57.83,110.91 62.49,110.91 C67.15,110.91 70.94,114.7 70.94,119.36 C70.94,124.02 67.15,127.81 62.49,127.81 Z M62.49,111.82 C58.34,111.82 54.96,115.2 54.96,119.35 C54.96,123.5 58.34,126.88 62.49,126.88 C66.64,126.88 70.02,123.5 70.02,119.35 C70.02,115.2 66.64,111.82 62.49,111.82 Z" id="形狀" fill="#1D4764"></path>
            <path d="M46.51,127.81 C41.85,127.81 38.06,124.02 38.06,119.36 C38.06,114.7 41.85,110.91 46.51,110.91 C51.17,110.91 54.96,114.7 54.96,119.36 C54.96,124.02 51.17,127.81 46.51,127.81 Z M46.51,111.82 C42.36,111.82 38.98,115.2 38.98,119.35 C38.98,123.5 42.36,126.88 46.51,126.88 C50.66,126.88 54.04,123.5 54.04,119.35 C54.04,115.2 50.66,111.82 46.51,111.82 Z" id="形狀" fill="#1D4764"></path>
            <path d="M54.5,141.66 C49.84,141.66 46.05,137.87 46.05,133.21 C46.05,128.55 49.84,124.76 54.5,124.76 C59.16,124.76 62.95,128.55 62.95,133.21 C62.95,137.87 59.16,141.66 54.5,141.66 Z M54.5,125.67 C50.35,125.67 46.97,129.05 46.97,133.2 C46.97,137.35 50.35,140.73 54.5,140.73 C58.65,140.73 62.03,137.35 62.03,133.2 C62.03,129.05 58.65,125.67 54.5,125.67 Z" id="形狀" fill="#1D4764"></path>
            <path d="M54.96,111.37 L54.04,111.37 C54.04,94.41 43.75,94.22 43.65,94.22 L43.65,93.3 L65.35,93.3 L65.35,94.22 C55.08,94.21 54.96,111.2 54.96,111.37 Z M47.09,94.21 C49.84,95.5 53.42,98.6 54.58,106.07 C55.33,101.87 57.1,96.36 61.35,94.21 L47.09,94.21 Z" id="形狀" fill="#1D4764"></path>
            <g id="群組" transform="translate(7.000000, 33.000000)" fill="#1D4764">
                <circle id="橢圓形" cx="2.53" cy="7.12" r="2.33"></circle>
                <circle id="橢圓形" cx="7.2" cy="7.12" r="2.33"></circle>
                <circle id="橢圓形" cx="4.86" cy="3.07" r="2.33"></circle>
                <circle id="橢圓形" cx="92.47" cy="103.88" r="2.33"></circle>
                <circle id="橢圓形" cx="87.8" cy="103.88" r="2.33"></circle>
                <circle id="橢圓形" cx="90.14" cy="107.93" r="2.33"></circle>
            </g>
            <path d="M15.01,29.49 L8.7,29.49 L8.7,24.22 C8.7,23.32 8.94,22.49 9.42,21.74 L12.16,17.46 C12.61,16.77 12.83,15.98 12.83,15.07 L12.83,11.72 C12.83,10.99 12.51,10.62 11.86,10.62 C11.22,10.62 10.89,10.99 10.89,11.72 L10.89,16.03 L8.7,16.03 L8.7,12.93 C8.7,12.15 9,11.49 9.61,10.95 C10.22,10.41 10.97,10.13 11.86,10.13 C12.75,10.13 13.5,10.4 14.11,10.95 C14.71,11.5 15.02,12.16 15.02,12.93 L15.02,15.68 C15.02,16.58 14.78,17.41 14.31,18.15 L11.56,22.44 C11.12,23.12 10.9,23.92 10.9,24.83 L10.9,29 L12.83,29 L12.83,23.73 L15.02,23.73 L15.02,29.49 L15.01,29.49 Z M13.93,15.36 L13.93,12.48 C13.93,11.75 13.6,11.17 12.94,10.75 C13.24,11.09 13.38,11.54 13.38,12.1 L13.38,15.22 C13.38,16.14 13.15,16.95 12.68,17.66 L9.94,21.92 C9.48,22.63 9.24,23.44 9.24,24.36 L9.24,28.97 L9.8,28.97 L9.8,24.49 C9.8,23.57 10.03,22.76 10.5,22.05 L13.24,17.8 C13.69,17.1 13.93,16.28 13.93,15.36 Z M10.16,11.08 C9.55,11.49 9.25,12.04 9.25,12.73 L9.25,15.53 L9.8,15.53 L9.8,12.4 C9.8,11.87 9.92,11.43 10.16,11.08 Z M13.93,28.99 L13.93,24.22 L13.38,24.22 L13.38,28.99 L13.93,28.99 Z" id="形狀" fill="#1D4764"></path>
            <path d="M93.99,147.52 L100.31,147.52 L100.31,152.79 C100.31,153.69 100.07,154.52 99.59,155.27 L96.85,159.55 C96.4,160.24 96.18,161.03 96.18,161.94 L96.18,165.29 C96.18,166.02 96.5,166.39 97.15,166.39 C97.8,166.39 98.12,166.02 98.12,165.29 L98.12,160.98 L100.32,160.98 L100.32,164.08 C100.32,164.86 100.02,165.52 99.41,166.06 C98.8,166.61 98.05,166.88 97.16,166.88 C96.27,166.88 95.52,166.61 94.91,166.06 C94.31,165.51 94,164.85 94,164.08 L94,161.33 C94,160.43 94.24,159.6 94.71,158.86 L97.46,154.57 C97.9,153.89 98.12,153.09 98.12,152.18 L98.12,148.01 L96.19,148.01 L96.19,153.28 L94,153.28 L94,147.52 L93.99,147.52 Z M95.07,161.64 L95.07,164.52 C95.07,165.25 95.4,165.83 96.06,166.25 C95.76,165.91 95.62,165.46 95.62,164.9 L95.62,161.78 C95.62,160.86 95.85,160.05 96.32,159.34 L99.06,155.08 C99.52,154.37 99.76,153.56 99.76,152.64 L99.76,148.03 L99.2,148.03 L99.2,152.51 C99.2,153.43 98.97,154.24 98.5,154.95 L95.76,159.2 C95.31,159.9 95.07,160.72 95.07,161.64 Z M95.07,148.01 L95.07,152.78 L95.62,152.78 L95.62,148.01 L95.07,148.01 Z M98.84,165.92 C99.45,165.51 99.75,164.96 99.75,164.27 L99.75,161.47 L99.2,161.47 L99.2,164.61 C99.2,165.13 99.08,165.57 98.84,165.92 Z" id="形狀" fill="#1D4764"></path>
        </g>
    </g>
</svg>