<?xml version="1.0" encoding="UTF-8"?>
<svg width="110px" height="177px" viewBox="0 0 110 177" version="1.1" xmlns="http://www.w3.org/2000/svg" xmlns:xlink="http://www.w3.org/1999/xlink">
    <!-- Generator: Sketch 55.1 (78136) - https://sketchapp.com -->
    <title>card-04copy</title>
    <desc>Created with Sketch.</desc>
    <g id="Page-1" stroke="none" stroke-width="1" fill="none" fill-rule="evenodd">
        <g id="card-04copy" fill-rule="nonzero">
            <path d="M96.02,0.26 L12.98,0.26 C5.84,0.26 0,6.1 0,13.24 L0,163.76 C0,170.9 5.84,176.74 12.98,176.74 L96.03,176.74 C103.17,176.74 109.01,170.9 109.01,163.76 L109.01,13.24 C109,6.1 103.16,0.26 96.02,0.26 Z" id="路徑" fill="#EBEBEB"></path>
            <path d="M38.15,71.41 C28.88,71.41 21.34,63.87 21.34,54.6 C21.34,45.33 28.88,37.79 38.15,37.79 C47.42,37.79 54.96,45.33 54.96,54.6 C54.96,63.87 47.42,71.41 38.15,71.41 Z M38.15,38.71 C29.39,38.71 22.26,45.84 22.26,54.6 C22.26,63.36 29.39,70.49 38.15,70.49 C46.91,70.49 54.04,63.36 54.04,54.6 C54.04,45.84 46.91,38.71 38.15,38.71 Z" id="形狀" fill="#1D4764"></path>
            <path d="M43.13,81.6 L33.17,81.6 L33.17,80.68 C37.64,80.68 37.69,73.13 37.69,73.05 L38.61,73.05 C38.61,80.59 43.09,80.68 43.13,80.68 L43.13,81.6 L43.13,81.6 Z M35.88,80.68 L40.64,80.68 C39.67,80 38.67,78.81 38.12,76.73 C37.74,78.18 37.07,79.73 35.88,80.68 Z" id="形狀" fill="#1D4764"></path>
            <path d="M38.15,135.08 C28.88,135.08 21.34,127.54 21.34,118.27 C21.34,109 28.88,101.46 38.15,101.46 C47.42,101.46 54.96,109 54.96,118.27 C54.96,127.54 47.42,135.08 38.15,135.08 Z M38.15,102.39 C29.39,102.39 22.26,109.52 22.26,118.28 C22.26,127.04 29.39,134.17 38.15,134.17 C46.91,134.17 54.04,127.04 54.04,118.28 C54.04,109.52 46.91,102.39 38.15,102.39 Z" id="形狀" fill="#1D4764"></path>
            <path d="M38.61,99.82 L37.69,99.82 C37.69,92.28 33.21,92.19 33.17,92.19 L33.17,91.27 L43.13,91.27 L43.13,92.19 C38.66,92.19 38.61,99.74 38.61,99.82 Z M35.66,92.19 C36.63,92.87 37.63,94.06 38.18,96.14 C38.56,94.68 39.23,93.14 40.42,92.19 L35.66,92.19 Z" id="形狀" fill="#1D4764"></path>
            <path d="M70.85,71.41 C61.58,71.41 54.04,63.87 54.04,54.6 C54.04,45.33 61.58,37.79 70.85,37.79 C80.12,37.79 87.66,45.33 87.66,54.6 C87.66,63.87 80.11,71.41 70.85,71.41 Z M70.85,38.71 C62.09,38.71 54.96,45.84 54.96,54.6 C54.96,63.36 62.09,70.49 70.85,70.49 C79.61,70.49 86.74,63.36 86.74,54.6 C86.74,45.84 79.61,38.71 70.85,38.71 Z" id="形狀" fill="#1D4764"></path>
            <path d="M75.83,81.6 L65.87,81.6 L65.87,80.68 C70.34,80.68 70.39,73.13 70.39,73.05 L71.31,73.05 C71.31,80.59 75.79,80.68 75.83,80.68 L75.83,81.6 Z M68.58,80.68 L73.34,80.68 C72.37,80 71.37,78.81 70.82,76.73 C70.44,78.18 69.77,79.73 68.58,80.68 Z" id="形狀" fill="#1D4764"></path>
            <path d="M70.85,135.08 C61.58,135.08 54.04,127.54 54.04,118.27 C54.04,109 61.58,101.46 70.85,101.46 C80.12,101.46 87.66,109 87.66,118.27 C87.66,127.54 80.11,135.08 70.85,135.08 Z M70.85,102.39 C62.09,102.39 54.96,109.52 54.96,118.28 C54.96,127.04 62.09,134.17 70.85,134.17 C79.61,134.17 86.74,127.04 86.74,118.28 C86.74,109.52 79.61,102.39 70.85,102.39 Z" id="形狀" fill="#1D4764"></path>
            <path d="M71.31,99.82 L70.39,99.82 C70.39,92.28 65.91,92.19 65.87,92.19 L65.87,91.27 L75.83,91.27 L75.83,92.19 C71.36,92.19 71.31,99.74 71.31,99.82 Z M68.36,92.19 C69.33,92.87 70.33,94.06 70.88,96.14 C71.26,94.68 71.93,93.14 73.12,92.19 L68.36,92.19 Z" id="形狀" fill="#1D4764"></path>
            <path d="M15.11,29.49 L11.54,29.49 L11.54,28.99 L12.22,28.99 L12.22,25.06 L8.51,25.06 L8.51,24.48 L12.22,10.25 L14.42,10.25 L14.42,24.48 L15.1,24.48 L15.1,25.06 L14.42,25.06 L14.42,28.99 L15.1,28.99 L15.1,29.49 L15.11,29.49 Z M12.22,24.48 L12.22,12.56 L9.14,24.48 L12.22,24.48 Z M13.32,28.99 L13.32,10.75 L12.77,10.75 L12.77,28.99 L13.32,28.99 Z" id="形狀" fill="#1D4764"></path>
            <path d="M93.89,147.52 L97.46,147.52 L97.46,148.02 L96.78,148.02 L96.78,151.95 L100.49,151.95 L100.49,152.53 L96.78,166.76 L94.58,166.76 L94.58,152.53 L93.9,152.53 L93.9,151.95 L94.58,151.95 L94.58,148.02 L93.9,148.02 L93.9,147.52 L93.89,147.52 Z M95.68,148.01 L95.68,166.25 L96.23,166.25 L96.23,148.01 L95.68,148.01 Z M96.78,152.52 L96.78,164.44 L99.86,152.52 L96.78,152.52 Z" id="形狀" fill="#1D4764"></path>
            <path d="M16.07,40.4 C16.07,38.08 14.18,36.19 11.86,36.19 C9.54,36.19 7.65,38.08 7.65,40.4 C7.65,42.72 9.54,44.61 11.86,44.61 C14.18,44.61 16.07,42.72 16.07,40.4 Z" id="路徑" fill="#1D4764"></path>
            <circle id="橢圓形" fill="#1D4764" cx="97.14" cy="136.6" r="4.21"></circle>
        </g>
    </g>
</svg>