<?xml version="1.0" encoding="UTF-8"?>
<svg width="110px" height="177px" viewBox="0 0 110 177" version="1.1" xmlns="http://www.w3.org/2000/svg" xmlns:xlink="http://www.w3.org/1999/xlink">
    <!-- Generator: Sketch 55.1 (78136) - https://sketchapp.com -->
    <title>card-49copy</title>
    <desc>Created with Sketch.</desc>
    <g id="Page-1" stroke="none" stroke-width="1" fill="none" fill-rule="evenodd">
        <g id="card-49copy" fill-rule="nonzero">
            <path d="M96.02,0.26 L12.98,0.26 C5.84,0.26 0,6.1 0,13.24 L0,163.76 C0,170.9 5.84,176.74 12.98,176.74 L96.03,176.74 C103.17,176.74 109.01,170.9 109.01,163.76 L109.01,13.24 C109,6.1 103.16,0.26 96.02,0.26 Z" id="路徑" fill="#EBEBEB"></path>
            <g id="群組" transform="translate(21.000000, 92.000000)" fill="#1D4764">
                <path d="M6.35,45.24 C3.17,45.24 0.58,42.65 0.58,39.47 C0.58,36.29 3.17,33.7 6.35,33.7 C9.53,33.7 12.12,36.29 12.12,39.47 C12.12,42.65 9.53,45.24 6.35,45.24 Z M6.35,34.62 C3.67,34.62 1.5,36.8 1.5,39.47 C1.5,42.15 3.68,44.32 6.35,44.32 C9.02,44.32 11.2,42.14 11.2,39.47 C11.2,36.8 9.03,34.62 6.35,34.62 Z" id="形狀"></path>
                <path d="M16.98,45.24 C13.8,45.24 11.21,42.65 11.21,39.47 C11.21,36.29 13.8,33.7 16.98,33.7 C20.16,33.7 22.75,36.29 22.75,39.47 C22.74,42.65 20.16,45.24 16.98,45.24 Z M16.98,34.62 C14.3,34.62 12.13,36.8 12.13,39.47 C12.13,42.15 14.31,44.32 16.98,44.32 C19.65,44.32 21.83,42.14 21.83,39.47 C21.83,36.8 19.65,34.62 16.98,34.62 Z" id="形狀"></path>
                <path d="M11.66,36.03 C8.48,36.03 5.89,33.44 5.89,30.26 C5.89,27.08 8.48,24.49 11.66,24.49 C14.84,24.49 17.43,27.08 17.43,30.26 C17.43,33.44 14.84,36.03 11.66,36.03 Z M11.66,25.41 C8.98,25.41 6.81,27.59 6.81,30.26 C6.81,32.93 8.99,35.11 11.66,35.11 C14.33,35.11 16.51,32.93 16.51,30.26 C16.51,27.59 14.34,25.41 11.66,25.41 Z" id="形狀"></path>
                <path d="M6.35,21.44 C3.17,21.44 0.58,18.85 0.58,15.67 C0.58,12.49 3.17,9.9 6.35,9.9 C9.53,9.9 12.12,12.49 12.12,15.67 C12.12,18.85 9.53,21.44 6.35,21.44 Z M6.35,10.82 C3.67,10.82 1.5,13 1.5,15.67 C1.5,18.34 3.68,20.52 6.35,20.52 C9.02,20.52 11.2,18.34 11.2,15.67 C11.2,13 9.03,10.82 6.35,10.82 Z" id="形狀"></path>
                <path d="M16.98,21.44 C13.8,21.44 11.21,18.85 11.21,15.67 C11.21,12.49 13.8,9.9 16.98,9.9 C20.16,9.9 22.75,12.49 22.75,15.67 C22.75,18.85 20.16,21.44 16.98,21.44 Z M16.98,10.82 C14.3,10.82 12.13,13 12.13,15.67 C12.13,18.34 14.31,20.52 16.98,20.52 C19.65,20.52 21.83,18.34 21.83,15.67 C21.83,13 19.65,10.82 16.98,10.82 Z" id="形狀"></path>
                <path d="M11.66,12.23 C8.48,12.23 5.89,9.64 5.89,6.46 C5.89,3.28 8.48,0.69 11.66,0.69 C14.84,0.69 17.43,3.28 17.43,6.46 C17.43,9.65 14.84,12.23 11.66,12.23 Z M11.66,1.61 C8.98,1.61 6.81,3.79 6.81,6.46 C6.81,9.13 8.99,11.31 11.66,11.31 C14.33,11.31 16.51,9.13 16.51,6.46 C16.51,3.79 14.34,1.61 11.66,1.61 Z" id="形狀"></path>
            </g>
            <g id="群組" transform="translate(65.000000, 92.000000)" fill="#1D4764">
                <path d="M6.03,45.24 C2.85,45.24 0.26,42.65 0.26,39.47 C0.26,36.29 2.85,33.7 6.03,33.7 C9.21,33.7 11.8,36.29 11.8,39.47 C11.79,42.65 9.21,45.24 6.03,45.24 Z M6.03,34.62 C3.35,34.62 1.18,36.8 1.18,39.47 C1.18,42.15 3.36,44.32 6.03,44.32 C8.7,44.32 10.88,42.14 10.88,39.47 C10.88,36.8 8.7,34.62 6.03,34.62 Z" id="形狀"></path>
                <path d="M16.65,45.24 C13.47,45.24 10.88,42.65 10.88,39.47 C10.88,36.29 13.47,33.7 16.65,33.7 C19.83,33.7 22.42,36.29 22.42,39.47 C22.42,42.65 19.83,45.24 16.65,45.24 Z M16.65,34.62 C13.97,34.62 11.8,36.8 11.8,39.47 C11.8,42.15 13.98,44.32 16.65,44.32 C19.32,44.32 21.5,42.14 21.5,39.47 C21.5,36.8 19.33,34.62 16.65,34.62 Z" id="形狀"></path>
                <path d="M11.34,36.03 C8.16,36.03 5.57,33.44 5.57,30.26 C5.57,27.08 8.16,24.49 11.34,24.49 C14.52,24.49 17.11,27.08 17.11,30.26 C17.11,33.44 14.52,36.03 11.34,36.03 Z M11.34,25.41 C8.66,25.41 6.49,27.59 6.49,30.26 C6.49,32.93 8.67,35.11 11.34,35.11 C14.01,35.11 16.19,32.93 16.19,30.26 C16.19,27.59 14.01,25.41 11.34,25.41 Z" id="形狀"></path>
                <path d="M6.03,21.44 C2.85,21.44 0.26,18.85 0.26,15.67 C0.26,12.49 2.85,9.9 6.03,9.9 C9.21,9.9 11.8,12.49 11.8,15.67 C11.8,18.85 9.21,21.44 6.03,21.44 Z M6.03,10.82 C3.35,10.82 1.18,13 1.18,15.67 C1.18,18.34 3.36,20.52 6.03,20.52 C8.7,20.52 10.88,18.34 10.88,15.67 C10.88,13 8.7,10.82 6.03,10.82 Z" id="形狀"></path>
                <path d="M16.65,21.44 C13.47,21.44 10.88,18.85 10.88,15.67 C10.88,12.49 13.47,9.9 16.65,9.9 C19.83,9.9 22.42,12.49 22.42,15.67 C22.42,18.85 19.83,21.44 16.65,21.44 Z M16.65,10.82 C13.97,10.82 11.8,13 11.8,15.67 C11.8,18.34 13.98,20.52 16.65,20.52 C19.32,20.52 21.5,18.34 21.5,15.67 C21.5,13 19.33,10.82 16.65,10.82 Z" id="形狀"></path>
                <path d="M11.34,12.23 C8.16,12.23 5.57,9.64 5.57,6.46 C5.57,3.28 8.16,0.69 11.34,0.69 C14.52,0.69 17.11,3.28 17.11,6.46 C17.11,9.65 14.52,12.23 11.34,12.23 Z M11.34,1.61 C8.66,1.61 6.49,3.79 6.49,6.46 C6.49,9.13 8.67,11.31 11.34,11.31 C14.01,11.31 16.19,9.13 16.19,6.46 C16.19,3.79 14.01,1.61 11.34,1.61 Z" id="形狀"></path>
            </g>
            <g id="群組" transform="translate(43.000000, 103.000000)" fill="#1D4764">
                <path d="M6.19,21.12 C3.01,21.12 0.42,18.53 0.42,15.35 C0.42,12.17 3.01,9.58 6.19,9.58 C9.37,9.58 11.96,12.17 11.96,15.35 C11.96,18.53 9.37,21.12 6.19,21.12 Z M6.19,10.49 C3.51,10.49 1.34,12.67 1.34,15.34 C1.34,18.02 3.52,20.19 6.19,20.19 C8.87,20.19 11.04,18.01 11.04,15.34 C11.04,12.67 8.86,10.49 6.19,10.49 Z" id="形狀"></path>
                <path d="M16.81,21.12 C13.63,21.12 11.04,18.53 11.04,15.35 C11.04,12.17 13.63,9.58 16.81,9.58 C19.99,9.58 22.58,12.17 22.58,15.35 C22.58,18.53 19.99,21.12 16.81,21.12 Z M16.81,10.49 C14.13,10.49 11.96,12.67 11.96,15.34 C11.96,18.02 14.14,20.19 16.81,20.19 C19.48,20.19 21.6600343,18.01 21.6600343,15.34 C21.67,12.67 19.49,10.49 16.81,10.49 Z" id="形狀"></path>
                <path d="M11.5,11.91 C8.32,11.91 5.73,9.32 5.73,6.14 C5.73,2.96 8.32,0.37 11.5,0.37 C14.68,0.37 17.27,2.96 17.27,6.14 C17.27,9.32 14.68,11.91 11.5,11.91 Z M11.5,1.28 C8.82,1.28 6.65,3.46 6.65,6.13 C6.65,8.8 8.83,10.98 11.5,10.98 C14.18,10.98 16.35,8.8 16.35,6.13 C16.35,3.46 14.18,1.28 11.5,1.28 Z" id="形狀"></path>
                <path d="M18.71,32.82 L4.29,32.82 L4.29,31.9 C10.96,31.9 11.04,20.76 11.04,20.65 L11.96,20.65 C11.96,31.77 18.65,31.9 18.72,31.9 L18.72,32.82 L18.71,32.82 Z M7.57,31.91 L15.76,31.91 C15.45,31.73 15.14,31.52 14.82,31.26 C13.57,30.25 12.15,28.4 11.46,25.09 C10.92,27.58 9.83,30.47 7.57,31.91 Z" id="形狀"></path>
            </g>
            <g id="群組" transform="translate(65.000000, 39.000000)" fill="#1D4764">
                <path d="M16.65,12.4 C13.47,12.4 10.88,9.81 10.88,6.63 C10.88,3.45 13.47,0.86 16.65,0.86 C19.83,0.86 22.42,3.45 22.42,6.63 C22.42,9.81 19.83,12.4 16.65,12.4 Z M16.65,1.77 C13.97,1.77 11.8,3.95 11.8,6.62 C11.8,9.29 13.98,11.47 16.65,11.47 C19.32,11.47 21.5,9.29 21.5,6.62 C21.5,3.95 19.33,1.77 16.65,1.77 Z" id="形狀"></path>
                <path d="M6.03,12.4 C2.85,12.4 0.26,9.81 0.26,6.63 C0.26,3.45 2.85,0.86 6.03,0.86 C9.21,0.86 11.8,3.45 11.8,6.63 C11.8,9.81 9.21,12.4 6.03,12.4 Z M6.03,1.77 C3.35,1.77 1.18,3.95 1.18,6.62 C1.18,9.29 3.36,11.47 6.03,11.47 C8.7,11.47 10.88,9.29 10.88,6.62 C10.88,3.95 8.7,1.77 6.03,1.77 Z" id="形狀"></path>
                <path d="M11.34,21.6 C8.16,21.6 5.57,19.01 5.57,15.83 C5.57,12.65 8.16,10.06 11.34,10.06 C14.52,10.06 17.11,12.65 17.11,15.83 C17.11,19.02 14.52,21.6 11.34,21.6 Z M11.34,10.98 C8.66,10.98 6.49,13.16 6.49,15.83 C6.49,18.51 8.67,20.68 11.34,20.68 C14.01,20.68 16.19,18.5 16.19,15.83 C16.19,13.16 14.01,10.98 11.34,10.98 Z" id="形狀"></path>
                <path d="M16.65,36.2 C13.47,36.2 10.88,33.61 10.88,30.43 C10.88,27.25 13.47,24.66 16.65,24.66 C19.83,24.66 22.42,27.25 22.42,30.43 C22.42,33.61 19.83,36.2 16.65,36.2 Z M16.65,25.57 C13.97,25.57 11.8,27.75 11.8,30.42 C11.8,33.09 13.98,35.27 16.65,35.27 C19.32,35.27 21.5,33.09 21.5,30.42 C21.5,27.75 19.33,25.57 16.65,25.57 Z" id="形狀"></path>
                <path d="M6.03,36.2 C2.85,36.2 0.26,33.61 0.26,30.43 C0.26,27.25 2.85,24.66 6.03,24.66 C9.21,24.66 11.8,27.25 11.8,30.43 C11.8,33.61 9.21,36.2 6.03,36.2 Z M6.03,25.57 C3.35,25.57 1.18,27.75 1.18,30.42 C1.18,33.09 3.36,35.27 6.03,35.27 C8.7,35.27 10.88,33.09 10.88,30.42 C10.88,27.75 8.7,25.57 6.03,25.57 Z" id="形狀"></path>
                <path d="M11.34,45.4 C8.16,45.4 5.57,42.81 5.57,39.63 C5.57,36.45 8.16,33.86 11.34,33.86 C14.52,33.86 17.11,36.45 17.11,39.63 C17.11,42.82 14.52,45.4 11.34,45.4 Z M11.34,34.78 C8.66,34.78 6.49,36.96 6.49,39.63 C6.49,42.3 8.67,44.48 11.34,44.48 C14.01,44.48 16.19,42.3 16.19,39.63 C16.19,36.96 14.01,34.78 11.34,34.78 Z" id="形狀"></path>
            </g>
            <g id="群組" transform="translate(21.000000, 39.000000)" fill="#1D4764">
                <path d="M16.98,12.4 C13.8,12.4 11.21,9.81 11.21,6.63 C11.21,3.45 13.8,0.86 16.98,0.86 C20.16,0.86 22.75,3.45 22.75,6.63 C22.75,9.81 20.16,12.4 16.98,12.4 Z M16.98,1.77 C14.3,1.77 12.13,3.95 12.13,6.62 C12.13,9.29 14.31,11.47 16.98,11.47 C19.65,11.47 21.83,9.29 21.83,6.62 C21.83,3.95 19.65,1.77 16.98,1.77 Z" id="形狀"></path>
                <path d="M6.35,12.4 C3.17,12.4 0.58,9.81 0.58,6.63 C0.58,3.45 3.17,0.86 6.35,0.86 C9.53,0.86 12.12,3.45 12.12,6.63 C12.12,9.81 9.53,12.4 6.35,12.4 Z M6.35,1.77 C3.67,1.77 1.5,3.95 1.5,6.62 C1.5,9.29 3.68,11.47 6.35,11.47 C9.02,11.47 11.2,9.29 11.2,6.62 C11.2,3.95 9.03,1.77 6.35,1.77 Z" id="形狀"></path>
                <path d="M11.66,21.6 C8.48,21.6 5.89,19.01 5.89,15.83 C5.89,12.65 8.48,10.06 11.66,10.06 C14.84,10.06 17.43,12.65 17.43,15.83 C17.43,19.02 14.84,21.6 11.66,21.6 Z M11.66,10.98 C8.98,10.98 6.81,13.16 6.81,15.83 C6.81,18.51 8.99,20.68 11.66,20.68 C14.33,20.68 16.5100343,18.5 16.5100343,15.83 C16.52,13.16 14.34,10.98 11.66,10.98 Z" id="形狀"></path>
                <path d="M16.98,36.2 C13.8,36.2 11.21,33.61 11.21,30.43 C11.21,27.25 13.8,24.66 16.98,24.66 C20.16,24.66 22.75,27.25 22.75,30.43 C22.75,33.61 20.16,36.2 16.98,36.2 Z M16.98,25.57 C14.3,25.57 12.13,27.75 12.13,30.42 C12.13,33.09 14.31,35.27 16.98,35.27 C19.65,35.27 21.83,33.09 21.83,30.42 C21.83,27.75 19.65,25.57 16.98,25.57 Z" id="形狀"></path>
                <path d="M6.35,36.2 C3.17,36.2 0.58,33.61 0.58,30.43 C0.58,27.25 3.17,24.66 6.35,24.66 C9.53,24.66 12.12,27.25 12.12,30.43 C12.12,33.61 9.53,36.2 6.35,36.2 Z M6.35,25.57 C3.67,25.57 1.5,27.75 1.5,30.42 C1.5,33.09 3.68,35.27 6.35,35.27 C9.02,35.27 11.2,33.09 11.2,30.42 C11.2,27.75 9.03,25.57 6.35,25.57 Z" id="形狀"></path>
                <path d="M11.66,45.4 C8.48,45.4 5.89,42.81 5.89,39.63 C5.89,36.45 8.48,33.86 11.66,33.86 C14.84,33.86 17.43,36.45 17.43,39.63 C17.43,42.82 14.84,45.4 11.66,45.4 Z M11.66,34.78 C8.98,34.78 6.81,36.96 6.81,39.63 C6.81,42.3 8.99,44.48 11.66,44.48 C14.33,44.48 16.51,42.3 16.51,39.63 C16.51,36.96 14.34,34.78 11.66,34.78 Z" id="形狀"></path>
            </g>
            <g id="群組" transform="translate(43.000000, 41.000000)" fill="#1D4764">
                <path d="M16.81,23.52 C13.63,23.52 11.04,20.93 11.04,17.75 C11.04,14.57 13.63,11.98 16.81,11.98 C19.99,11.98 22.58,14.57 22.58,17.75 C22.58,20.93 19.99,23.52 16.81,23.52 Z M16.81,12.9 C14.13,12.9 11.96,15.08 11.96,17.75 C11.96,20.43 14.14,22.6 16.81,22.6 C19.48,22.6 21.6600343,20.42 21.6600343,17.75 C21.67,15.08 19.49,12.9 16.81,12.9 Z" id="形狀"></path>
                <path d="M6.19,23.52 C3.01,23.52 0.42,20.93 0.42,17.75 C0.42,14.57 3.01,11.98 6.19,11.98 C9.37,11.98 11.96,14.57 11.96,17.75 C11.96,20.93 9.37,23.52 6.19,23.52 Z M6.19,12.9 C3.51,12.9 1.34,15.08 1.34,17.75 C1.34,20.43 3.52,22.6 6.19,22.6 C8.87,22.6 11.04,20.42 11.04,17.75 C11.04,15.08 8.86,12.9 6.19,12.9 Z" id="形狀"></path>
                <path d="M11.5,32.73 C8.32,32.73 5.73,30.14 5.73,26.96 C5.73,23.78 8.32,21.19 11.5,21.19 C14.68,21.19 17.27,23.78 17.27,26.96 C17.27,30.14 14.68,32.73 11.5,32.73 Z M11.5,22.11 C8.82,22.11 6.65,24.29 6.65,26.96 C6.65,29.63 8.83,31.81 11.5,31.81 C14.18,31.81 16.35,29.63 16.35,26.96 C16.35,24.29 14.18,22.11 11.5,22.11 Z" id="形狀"></path>
                <path d="M11.96,12.44 L11.04,12.44 C11.04,1.36 4.56,1.19 4.28,1.19 L4.28,0.27 L18.71,0.27 L18.71,1.19 C12.03,1.19 11.96,12.33 11.96,12.44 Z M7.24,1.19 C7.55,1.37 7.86,1.58 8.18,1.84 C9.43,2.85 10.85,4.7 11.54,8.01 C12.07,5.52 13.17,2.63 15.43,1.19 L7.24,1.19 Z" id="形狀"></path>
            </g>
            <g id="群組" transform="translate(7.000000, 33.000000)" fill="#1D4764">
                <circle id="橢圓形" cx="2.53" cy="7.12" r="2.33"></circle>
                <circle id="橢圓形" cx="7.2" cy="7.12" r="2.33"></circle>
                <circle id="橢圓形" cx="4.86" cy="3.07" r="2.33"></circle>
                <circle id="橢圓形" cx="92.47" cy="103.88" r="2.33"></circle>
                <circle id="橢圓形" cx="87.81" cy="103.88" r="2.33"></circle>
                <circle id="橢圓形" cx="90.14" cy="107.93" r="2.33"></circle>
            </g>
            <g id="群組" transform="translate(7.000000, 10.000000)" fill="#1D4764">
                <path d="M4.4,19.49 L0.83,19.49 L0.83,18.99 L1.51,18.99 L1.51,0.75 L0.83,0.75 L0.83,0.25 L3.71,0.25 L3.71,18.99 L4.39,18.99 L4.39,19.49 L4.4,19.49 Z M2.61,18.99 L2.61,0.75 L2.07,0.75 L2.07,18.99 L2.61,18.99 Z" id="形狀"></path>
                <path d="M12.2,16.82 C12.2,17.59 11.88,18.25 11.23,18.8 C10.58,19.35 9.81,19.62 8.9,19.62 C8,19.62 7.22,19.35 6.57,18.8 C5.92,18.25 5.6,17.59 5.6,16.82 L5.6,2.92 C5.6,2.15 5.92,1.49 6.57,0.94 C7.22,0.39 7.99,0.12 8.9,0.12 C9.81,0.12 10.59,0.39 11.23,0.94 C11.87,1.49 12.2,2.15 12.2,2.92 L12.2,16.82 Z M7.07,18.67 C6.83,18.32 6.71,17.88 6.71,17.34 L6.71,2.4 C6.71,1.87 6.83,1.43 7.07,1.09 C6.46,1.5 6.16,2.05 6.16,2.74 L6.16,17.02 C6.16,17.7 6.46,18.25 7.07,18.67 Z M10,18.02 L10,1.72 C10,1.42 9.89,1.16 9.68,0.94 C9.47,0.73 9.21,0.62 8.9,0.62 C8.6,0.62 8.34,0.73 8.12,0.94 C7.91,1.15 7.8,1.41 7.8,1.72 L7.8,18.03 C7.8,18.33 7.91,18.59 8.12,18.81 C8.33,19.02 8.59,19.13 8.9,19.13 C9.2,19.13 9.46,19.02 9.68,18.81 C9.9,18.59 10,18.33 10,18.02 Z M11.1,17.26 L11.1,2.48 C11.1,1.75 10.77,1.17 10.11,0.75 C10.41,1.09 10.55,1.54 10.55,2.1 L10.55,17.64 C10.55,18.19 10.4,18.64 10.11,18.98 C10.77,18.57 11.1,17.99 11.1,17.26 Z" id="形狀"></path>
            </g>
            <g id="群組" transform="translate(89.000000, 147.000000)" fill="#1D4764">
                <path d="M8.6,0.52 L12.17,0.52 L12.17,1.02 L11.49,1.02 L11.49,19.26 L12.17,19.26 L12.17,19.76 L9.29,19.76 L9.29,1.02 L8.6,1.02 L8.6,0.52 Z M10.38,1.01 L10.38,19.25 L10.93,19.25 L10.93,1.01 L10.38,1.01 Z" id="形狀"></path>
                <path d="M0.8,3.19 C0.8,2.42 1.12,1.76 1.77,1.21 C2.41,0.66 3.19,0.39 4.1,0.39 C5,0.39 5.78,0.66 6.43,1.21 C7.08,1.76 7.4,2.42 7.4,3.19 L7.4,17.08 C7.4,17.85 7.08,18.51 6.43,19.06 C5.78,19.61 5.01,19.88 4.1,19.88 C3.19,19.88 2.41,19.61 1.77,19.06 C1.13,18.51 0.8,17.85 0.8,17.08 L0.8,3.19 Z M1.9,2.74 L1.9,17.52 C1.9,18.25 2.23,18.83 2.89,19.25 C2.59,18.91 2.45,18.46 2.45,17.9 L2.45,2.36 C2.45,1.81 2.6,1.36 2.89,1.02 C2.23,1.43 1.9,2.01 1.9,2.74 Z M2.99,1.98 L2.99,18.29 C2.99,18.59 3.1,18.85 3.31,19.07 C3.52,19.28 3.78,19.39 4.09,19.39 C4.39,19.39 4.65,19.28 4.87,19.07 C5.08,18.86 5.19,18.6 5.19,18.29 L5.19,1.98 C5.19,1.68 5.08,1.42 4.87,1.2 C4.66,0.99 4.4,0.88 4.09,0.88 C3.79,0.88 3.53,0.99 3.31,1.2 C3.1,1.41 2.99,1.67 2.99,1.98 Z M5.93,1.33 C6.17,1.68 6.29,2.12 6.29,2.66 L6.29,17.6 C6.29,18.13 6.17,18.57 5.93,18.91 C6.54,18.5 6.84,17.95 6.84,17.26 L6.84,2.98 C6.84,2.3 6.54,1.75 5.93,1.33 Z" id="形狀"></path>
            </g>
        </g>
    </g>
</svg>