<?xml version="1.0" encoding="UTF-8"?>
<svg width="110px" height="177px" viewBox="0 0 110 177" version="1.1" xmlns="http://www.w3.org/2000/svg" xmlns:xlink="http://www.w3.org/1999/xlink">
    <!-- Generator: Sketch 55.1 (78136) - https://sketchapp.com -->
    <title>card-22copy</title>
    <desc>Created with Sketch.</desc>
    <g id="Page-1" stroke="none" stroke-width="1" fill="none" fill-rule="evenodd">
        <g id="card-22copy" fill-rule="nonzero">
            <path d="M96.02,0.26 L12.98,0.26 C5.84,0.26 0,6.1 0,13.24 L0,163.76 C0,170.9 5.84,176.74 12.98,176.74 L96.03,176.74 C103.17,176.74 109.01,170.9 109.01,163.76 L109.01,13.24 C109,6.1 103.16,0.26 96.02,0.26 Z" id="路徑" fill="#EBEBEB"></path>
            <path d="M54.96,137.88 L54.04,137.88 C54.04,127.9 51.93,123.17 50.16,120.96 C48.29,118.63 46.46,118.57 46.38,118.57 L46.38,117.65 L62.61,117.65 L62.61,118.57 C55.05,118.57 54.96,137.69 54.96,137.88 Z M48.95,118.57 C50.96,119.88 53.57,123.08 54.56,130.86 C55.19,126.26 56.59,120.72 59.7,118.57 L48.95,118.57 Z" id="形狀" fill="#E37F45"></path>
            <path d="M54.96,85.36 L54.04,85.36 C54.04,75.38 51.93,70.65 50.16,68.44 C48.29,66.11 46.46,66.05 46.38,66.05 L46.38,65.13 L62.61,65.13 L62.61,66.05 C55.05,66.06 54.96,85.17 54.96,85.36 Z M48.95,66.06 C50.96,67.37 53.57,70.57 54.56,78.35 C55.19,73.75 56.59,68.21 59.7,66.06 L48.95,66.06 Z" id="形狀" fill="#E37F45"></path>
            <path d="M54.96,59.1 L54.04,59.1 C54.04,49.12 51.93,44.39 50.16,42.18 C48.29,39.85 46.46,39.79 46.38,39.79 L46.38,38.87 L62.61,38.87 L62.61,39.79 C55.05,39.8 54.96,58.91 54.96,59.1 Z M48.95,39.8 C50.96,41.11 53.57,44.31 54.56,52.09 C55.19,47.49 56.59,41.95 59.7,39.8 L48.95,39.8 Z" id="形狀" fill="#E37F45"></path>
            <path d="M38.73,85.36 L37.81,85.36 C37.81,75.38 35.7,70.65 33.93,68.44 C32.06,66.11 30.23,66.05 30.15,66.05 L30.15,65.13 L46.38,65.13 L46.38,66.05 C38.82,66.06 38.73,85.17 38.73,85.36 Z M32.72,66.06 C34.73,67.37 37.34,70.57 38.33,78.35 C38.96,73.75 40.36,68.21 43.47,66.06 L32.72,66.06 Z" id="形狀" fill="#E37F45"></path>
            <path d="M71.19,85.36 L70.27,85.36 C70.27,75.38 68.16,70.65 66.39,68.44 C64.52,66.11 62.69,66.05 62.61,66.05 L62.61,65.13 L78.84,65.13 L78.84,66.05 C71.28,66.06 71.19,85.17 71.19,85.36 Z M65.18,66.06 C67.19,67.37 69.8,70.57 70.79,78.35 C71.42,73.75 72.82,68.21 75.93,66.06 L65.18,66.06 Z" id="形狀" fill="#E37F45"></path>
            <path d="M46.84,111.62 L45.92,111.62 C45.92,101.64 43.81,96.91 42.04,94.7 C40.17,92.37 38.34,92.31 38.26,92.31 L38.26,91.39 L54.5,91.39 L54.5,92.31 C46.93,92.32 46.84,111.43 46.84,111.62 Z M40.83,92.32 C42.84,93.63 45.45,96.83 46.44,104.61 C47.07,100.01 48.47,94.47 51.58,92.32 L40.83,92.32 Z" id="形狀" fill="#E37F45"></path>
            <path d="M63.07,111.62 L62.15,111.62 C62.15,101.64 60.04,96.91 58.27,94.7 C56.4,92.37 54.57,92.31 54.49,92.31 L54.49,91.39 L70.72,91.39 L70.72,92.31 C63.16,92.32 63.07,111.43 63.07,111.62 Z M57.06,92.32 C59.07,93.63 61.68,96.83 62.67,104.61 C63.3,100.01 64.7,94.47 67.81,92.32 L57.06,92.32 Z" id="形狀" fill="#E37F45"></path>
            <path d="M30.61,59.1 L29.7,59.1 C29.7,49.12 27.59,44.39 25.82,42.18 C23.95,39.85 22.12,39.79 22.04,39.79 L22.04,38.87 L38.27,38.87 L38.27,39.79 C30.7,39.8 30.61,58.91 30.61,59.1 Z M24.6,39.8 C26.61,41.11 29.22,44.31 30.21,52.09 C30.84,47.49 32.24,41.95 35.35,39.8 L24.6,39.8 Z" id="形狀" fill="#E37F45"></path>
            <path d="M79.3,59.1 L78.38,59.1 C78.38,49.12 76.27,44.39 74.5,42.18 C72.63,39.85 70.8,39.79 70.72,39.79 L70.72,38.87 L86.95,38.87 L86.95,39.79 C79.39,39.8 79.3,58.91 79.3,59.1 Z M73.29,39.8 C75.3,41.11 77.91,44.31 78.9,52.09 C79.53,47.49 80.93,41.95 84.04,39.8 L73.29,39.8 Z" id="形狀" fill="#E37F45"></path>
            <path d="M15.16,26.82 C15.16,27.59 14.84,28.25 14.19,28.8 C13.55,29.35 12.77,29.62 11.86,29.62 C10.96,29.62 10.18,29.35 9.53,28.8 C8.88,28.25 8.56,27.59 8.56,26.82 L8.56,23.72 L10.76,23.72 L10.76,28.03 C10.76,28.33 10.87,28.59 11.08,28.81 C11.29,29.02 11.55,29.13 11.86,29.13 C12.16,29.13 12.42,29.02 12.64,28.81 C12.85,28.6 12.96,28.34 12.96,28.03 L12.96,20.29 C12.55,20.64 11.99,20.81 11.28,20.81 C9.47,20.81 8.56,19.97 8.56,18.28 L8.56,12.93 C8.56,12.16 8.88,11.5 9.53,10.95 C10.18,10.4 10.95,10.13 11.86,10.13 C12.77,10.13 13.55,10.4 14.19,10.95 C14.83,11.5 15.16,12.16 15.16,12.93 L15.16,26.82 L15.16,26.82 Z M10.02,20.18 C9.78,19.83 9.66,19.39 9.66,18.85 L9.66,12.4 C9.66,11.87 9.78,11.43 10.02,11.09 C9.41,11.5 9.11,12.05 9.11,12.74 L9.11,18.53 C9.11,19.21 9.42,19.76 10.02,20.18 Z M10.02,28.64 C9.78,28.34 9.66,27.9 9.66,27.34 L9.66,24.22 L9.11,24.22 L9.11,27.05 C9.11,27.75 9.42,28.28 10.02,28.64 Z M12.96,19.79 L12.96,11.72 C12.96,11.42 12.85,11.16 12.64,10.94 C12.43,10.73 12.17,10.62 11.86,10.62 C11.56,10.62 11.3,10.73 11.08,10.94 C10.87,11.15 10.76,11.41 10.76,11.72 L10.76,19.22 C10.76,19.92 11.13,20.27 11.86,20.27 C12.25,20.26 12.62,20.1 12.96,19.79 Z M14.06,27.26 L14.06,12.48 C14.06,11.75 13.73,11.17 13.07,10.75 C13.37,11.09 13.51,11.54 13.51,12.1 L13.51,27.64 C13.51,28.19 13.36,28.64 13.07,28.98 C13.73,28.57 14.06,27.99 14.06,27.26 Z" id="形狀" fill="#E37F45"></path>
            <path d="M93.84,150.18 C93.84,149.41 94.16,148.75 94.81,148.2 C95.45,147.65 96.23,147.38 97.14,147.38 C98.04,147.38 98.82,147.65 99.47,148.2 C100.12,148.75 100.44,149.41 100.44,150.18 L100.44,153.28 L98.24,153.28 L98.24,148.97 C98.24,148.67 98.13,148.41 97.92,148.19 C97.71,147.98 97.45,147.87 97.14,147.87 C96.84,147.87 96.58,147.98 96.36,148.19 C96.15,148.4 96.04,148.66 96.04,148.97 L96.04,156.71 C96.45,156.36 97.01,156.19 97.72,156.19 C99.53,156.19 100.44,157.03 100.44,158.72 L100.44,164.07 C100.44,164.84 100.12,165.5 99.47,166.05 C98.82,166.6 98.05,166.87 97.14,166.87 C96.23,166.87 95.45,166.6 94.81,166.05 C94.17,165.5 93.84,164.84 93.84,164.07 L93.84,150.18 L93.84,150.18 Z M94.94,149.74 L94.94,164.52 C94.94,165.25 95.27,165.83 95.93,166.25 C95.63,165.91 95.49,165.46 95.49,164.9 L95.49,149.36 C95.49,148.81 95.64,148.36 95.93,148.02 C95.27,148.43 94.94,149.01 94.94,149.74 Z M96.04,157.21 L96.04,165.28 C96.04,165.58 96.15,165.84 96.36,166.06 C96.57,166.27 96.83,166.38 97.14,166.38 C97.44,166.38 97.7,166.27 97.92,166.06 C98.13,165.85 98.24,165.59 98.24,165.28 L98.24,157.78 C98.24,157.08 97.87,156.73 97.14,156.73 C96.75,156.74 96.38,156.9 96.04,157.21 Z M98.98,148.36 C99.22,148.66 99.34,149.1 99.34,149.66 L99.34,152.78 L99.89,152.78 L99.89,149.95 C99.89,149.25 99.58,148.72 98.98,148.36 Z M98.98,156.82 C99.22,157.17 99.34,157.61 99.34,158.15 L99.34,164.6 C99.34,165.13 99.22,165.57 98.98,165.91 C99.59,165.5 99.89,164.95 99.89,164.26 L99.89,158.47 C99.89,157.79 99.58,157.24 98.98,156.82 Z" id="形狀" fill="#E37F45"></path>
            <path d="M11.86,46.15 C11.86,46.15 11.86,34.78 16.53,34.78 L7.19,34.78 C7.19,34.78 11.86,34.78 11.86,46.15 Z" id="路徑" fill="#E37F45"></path>
            <path d="M97.14,130.85 C97.14,130.85 97.14,142.22 92.47,142.22 L101.81,142.22 C101.81,142.22 97.14,142.22 97.14,130.85 Z" id="路徑" fill="#E37F45"></path>
        </g>
    </g>
</svg>