<?xml version="1.0" encoding="UTF-8"?>
<svg width="110px" height="177px" viewBox="0 0 110 177" version="1.1" xmlns="http://www.w3.org/2000/svg" xmlns:xlink="http://www.w3.org/1999/xlink">
    <!-- Generator: Sketch 55.1 (78136) - https://sketchapp.com -->
    <title>card-17copy</title>
    <desc>Created with Sketch.</desc>
    <g id="Page-1" stroke="none" stroke-width="1" fill="none" fill-rule="evenodd">
        <g id="card-17copy" fill-rule="nonzero">
            <path d="M96.02,0.26 L12.98,0.26 C5.84,0.26 0,6.1 0,13.24 L0,163.76 C0,170.9 5.84,176.74 12.98,176.74 L96.03,176.74 C103.17,176.74 109.01,170.9 109.01,163.76 L109.01,13.24 C109,6.1 103.16,0.26 96.02,0.26 Z" id="路徑" fill="#EBEBEB"></path>
            <path d="M54.5,141.66 L22.04,141.66 L22.04,140.74 C37.63,140.74 37.81,102.07 37.81,101.67 L37.81,101.67 L37.81,101.67 L38.73,101.67 C38.73,140.18 54.35,140.73 54.5,140.74 L54.5,141.66 Z M26.13,140.74 L51.09,140.74 C46.81,138.72 39.84,132.22 38.17,111.41 C37.87,114.5 37.4,118.02 36.68,121.53 C34.55,131.93 30.94,138.46 26.13,140.74 Z" id="形狀" fill="#E37F45"></path>
            <path d="M38.73,101.67 L37.81,101.67 C37.81,63.16 22.19,62.61 22.04,62.6 L22.04,61.68 L54.5,61.68 L54.5,62.6 C38.91,62.61 38.73,101.28 38.73,101.67 Z M25.45,62.61 C29.73,64.63 36.7,71.13 38.37,91.94 C38.67,88.85 39.14,85.33 39.86,81.82 C42,71.42 45.6,64.89 50.42,62.61 L25.45,62.61 L25.45,62.61 Z" id="形狀" fill="#E37F45"></path>
            <path d="M86.96,115.31 L54.5,115.31 L54.5,114.39 C70.09,114.39 70.27,75.72 70.27,75.32 L70.27,75.32 L70.27,75.32 L71.19,75.32 C71.19,113.83 86.81,114.38 86.96,114.39 L86.96,115.31 Z M58.59,114.39 L83.55,114.39 C79.27,112.37 72.3,105.87 70.63,85.06 C70.33,88.15 69.86,91.67 69.14,95.18 C67.02,105.58 63.41,112.11 58.59,114.39 Z" id="形狀" fill="#E37F45"></path>
            <path d="M71.19,75.33 L70.27,75.33 C70.27,36.82 54.65,36.27 54.49,36.26 L54.49,35.34 L86.95,35.34 L86.95,36.26 C71.37,36.26 71.19,74.93 71.19,75.33 Z M57.91,36.26 C62.19,38.28 69.16,44.78 70.83,65.59 C71.13,62.5 71.6,58.98 72.32,55.47 C74.46,45.07 78.06,38.54 82.88,36.26 L57.91,36.26 L57.91,36.26 Z" id="形狀" fill="#E37F45"></path>
            <path d="M15.11,29.49 L11.54,29.49 L11.54,28.99 L12.22,28.99 L12.22,25.06 L8.51,25.06 L8.51,24.48 L12.22,10.25 L14.42,10.25 L14.42,24.48 L15.1,24.48 L15.1,25.06 L14.42,25.06 L14.42,28.99 L15.1,28.99 L15.1,29.49 L15.11,29.49 Z M12.22,24.48 L12.22,12.56 L9.14,24.48 L12.22,24.48 Z M13.32,28.99 L13.32,10.75 L12.77,10.75 L12.77,28.99 L13.32,28.99 Z" id="形狀" fill="#E37F45"></path>
            <path d="M93.89,147.52 L97.46,147.52 L97.46,148.02 L96.78,148.02 L96.78,151.95 L100.49,151.95 L100.49,152.53 L96.78,166.76 L94.58,166.76 L94.58,152.53 L93.9,152.53 L93.9,151.95 L94.58,151.95 L94.58,148.02 L93.9,148.02 L93.9,147.52 L93.89,147.52 Z M95.68,148.01 L95.68,166.25 L96.23,166.25 L96.23,148.01 L95.68,148.01 Z M96.78,152.52 L96.78,164.44 L99.86,152.52 L96.78,152.52 Z" id="形狀" fill="#E37F45"></path>
            <path d="M11.86,46.15 C11.86,46.15 11.86,34.78 16.53,34.78 L7.19,34.78 C7.19,34.78 11.86,34.78 11.86,46.15 Z" id="路徑" fill="#E37F45"></path>
            <path d="M97.14,130.85 C97.14,130.85 97.14,142.22 92.47,142.22 L101.81,142.22 C101.81,142.22 97.14,142.22 97.14,130.85 Z" id="路徑" fill="#E37F45"></path>
        </g>
    </g>
</svg>