<?xml version="1.0" encoding="UTF-8"?>
<svg width="110px" height="177px" viewBox="0 0 110 177" version="1.1" xmlns="http://www.w3.org/2000/svg" xmlns:xlink="http://www.w3.org/1999/xlink">
    <!-- Generator: Sketch 55.1 (78136) - https://sketchapp.com -->
    <title>card-31copy</title>
    <desc>Created with Sketch.</desc>
    <g id="Page-1" stroke="none" stroke-width="1" fill="none" fill-rule="evenodd">
        <g id="card-31copy" fill-rule="nonzero">
            <path d="M96.02,0.26 L12.98,0.26 C5.84,0.26 0,6.1 0,13.24 L0,163.76 C0,170.9 5.84,176.74 12.98,176.74 L96.03,176.74 C103.17,176.74 109.01,170.9 109.01,163.76 L109.01,13.24 C109,6.1 103.16,0.26 96.02,0.26 Z" id="路徑" fill="#EBEBEB"></path>
            <path d="M15.16,26.82 C15.16,27.59 14.84,28.25 14.19,28.8 C13.55,29.35 12.77,29.62 11.86,29.62 C10.96,29.62 10.18,29.35 9.53,28.8 C8.88,28.25 8.56,27.59 8.56,26.82 L8.56,23.72 L10.76,23.72 L10.76,28.03 C10.76,28.33 10.87,28.59 11.08,28.81 C11.29,29.02 11.55,29.13 11.86,29.13 C12.17,29.13 12.42,29.02 12.64,28.81 C12.85,28.6 12.96,28.34 12.96,28.03 L12.96,20.68 C12.96,20.38 12.85,20.12 12.64,19.9 C12.43,19.69 12.17,19.58 11.86,19.58 L8.71,19.58 L8.71,10.26 L14.88,10.26 L14.88,16.03 L12.69,16.03 L12.69,10.76 L10.91,10.76 L10.91,19.09 L11.86,19.09 C12.77,19.09 13.55,19.36 14.19,19.91 C14.83,20.46 15.16,21.12 15.16,21.89 L15.16,26.82 L15.16,26.82 Z M10.02,28.67 C9.78,28.32 9.66,27.88 9.66,27.34 L9.66,24.22 L9.11,24.22 L9.11,27.02 C9.11,27.7 9.42,28.25 10.02,28.67 Z M9.81,19.08 L9.81,10.75 L9.26,10.75 L9.26,19.08 L9.81,19.08 Z M14.06,27.26 L14.06,21.44 C14.06,20.71 13.73,20.13 13.07,19.71 C13.37,20.05 13.51,20.5 13.51,21.05 L13.51,27.65 C13.51,28.2 13.36,28.65 13.07,28.99 C13.73,28.57 14.06,27.99 14.06,27.26 Z M13.79,15.54 L13.79,10.75 L13.24,10.75 L13.24,15.54 L13.79,15.54 Z" id="形狀" fill="#E37F45"></path>
            <path d="M93.84,150.18 C93.84,149.41 94.16,148.75 94.81,148.2 C95.45,147.65 96.23,147.38 97.14,147.38 C98.04,147.38 98.82,147.65 99.47,148.2 C100.12,148.75 100.44,149.41 100.44,150.18 L100.44,153.28 L98.24,153.28 L98.24,148.97 C98.24,148.67 98.13,148.41 97.92,148.19 C97.71,147.98 97.45,147.87 97.14,147.87 C96.84,147.87 96.58,147.98 96.36,148.19 C96.15,148.4 96.04,148.66 96.04,148.97 L96.04,156.32 C96.04,156.62 96.15,156.88 96.36,157.1 C96.57,157.31 96.83,157.42 97.14,157.42 L100.29,157.42 L100.29,166.74 L94.12,166.74 L94.12,160.97 L96.31,160.97 L96.31,166.24 L98.09,166.24 L98.09,157.91 L97.14,157.91 C96.23,157.91 95.45,157.64 94.81,157.09 C94.17,156.54 93.84,155.88 93.84,155.11 L93.84,150.18 Z M94.94,149.74 L94.94,155.56 C94.94,156.29 95.27,156.87 95.93,157.29 C95.63,156.95 95.49,156.5 95.49,155.95 L95.49,149.35 C95.49,148.8 95.64,148.35 95.93,148.01 C95.27,148.43 94.94,149.01 94.94,149.74 Z M95.21,161.46 L95.21,166.25 L95.76,166.25 L95.76,161.46 L95.21,161.46 Z M98.98,148.33 C99.22,148.68 99.34,149.12 99.34,149.66 L99.34,152.78 L99.89,152.78 L99.89,149.98 C99.89,149.3 99.58,148.75 98.98,148.33 Z M99.19,157.92 L99.19,166.25 L99.74,166.25 L99.74,157.92 L99.19,157.92 Z" id="形狀" fill="#E37F45"></path>
            <path d="M11.86,31.91 C11.86,31.91 11.86,39.49 7.19,39.49 C7.19,39.49 11.86,39.49 11.86,47.07 C11.86,47.07 11.86,39.49 16.53,39.49 C16.53,39.49 11.86,39.49 11.86,31.91 Z" id="路徑" fill="#E37F45"></path>
            <path d="M97.14,145.09 C97.14,145.09 97.14,137.51 101.81,137.51 C101.81,137.51 97.14,137.51 97.14,129.93 C97.14,129.93 97.14,137.51 92.47,137.51 C92.47,137.51 97.14,137.51 97.14,145.09 Z" id="路徑" fill="#E37F45"></path>
            <path d="M71.22,90.11 C73.13,89.37 75.25,88.95 77.63,88.95 L77.63,88.03 C77.59,88.03 74.83,87.99 71.28,86.44 C71.69,80.33 73.99,62.6 86.96,62.6 L86.96,61.68 C86.32,61.68 71.19,61.34 71.19,35.79 L70.27,35.79 C70.27,36.05 70.09,60.33 55.7,61.62 C55.15,57.91 54.96,54.25 54.96,50.94 L54.5,50.94 L54.5,50.94 L54.04,50.94 C54.04,51.07 54.01,55.64 53.01,61.52 C49.06,60.81 38.73,56.92 38.73,35.79 L37.81,35.79 C37.81,36.05 37.62,61.68 22.04,61.68 L22.04,62.6 C22.19,62.6 37.13,62.9 37.78,86.88 C35.87,87.62 33.75,88.04 31.37,88.04 L31.37,88.5 L31.37,88.5 L31.37,88.96 C31.45,88.96 34.18,89.01 37.72,90.59 C37.3,96.74 34.98,114.39 22.04,114.39 L22.04,115.31 C22.68,115.31 37.81,115.65 37.81,141.2 L38.73,141.2 C38.73,140.95 38.91,116.65 53.31,115.37 C53.78,118.54 54.04,122.08 54.04,126.05 L54.5,126.05 L54.5,126.05 L54.96,126.05 C54.96,125.92 54.99,121.36 55.99,115.47 C59.93,116.18 70.28,120.07 70.28,141.2 L71.2,141.2 C71.2,140.94 71.39,115.31 86.97,115.31 L86.97,114.39 C86.33,114.39 71.85,114.05 71.22,90.11 Z M70.83,134.81 C69.13,120.63 61.82,116.3 57.58,114.97 C66.5,112.93 69.58,102.05 70.64,94.89 C72.34,109.07 79.65,113.4 83.89,114.73 C74.96,116.77 71.89,127.64 70.83,134.81 Z M38.37,134.81 C36.67,120.63 29.36,116.3 25.12,114.97 C34.04,112.93 37.12,102.05 38.18,94.89 C39.88,109.07 47.19,113.4 51.43,114.73 C42.5,116.77 39.43,127.64 38.37,134.81 Z M53.13,114.25 C49.44,113.62 39.61,110.14 38.79,91.1 C44.11,93.84 50.74,100.07 53.13,114.25 Z M34.95,88.64 C48.83,86.08 53.08,68.71 54.38,58.46 C56.51,80.72 68.07,86.73 74.05,88.35 C60.17,90.91 55.92,108.28 54.62,118.53 C52.48,96.27 40.92,90.26 34.95,88.64 Z M38.82,86.44 C39.21,80.6 41.34,64.21 52.8,62.72 C51.18,71.41 47.43,82.39 38.82,86.44 Z M38.37,82.11 C36.67,67.93 29.36,63.6 25.12,62.27 C34.04,60.23 37.12,49.35 38.18,42.19 C39.88,56.37 47.19,60.7 51.43,62.03 C42.5,64.07 39.43,74.95 38.37,82.11 Z M70.63,42.19 C72.33,56.37 79.64,60.7 83.88,62.03 C74.96,64.07 71.88,74.95 70.82,82.11 C69.12,67.93 61.81,63.6 57.57,62.27 C66.5,60.23 69.57,49.35 70.63,42.19 Z M55.9,62.78 C59.59,63.49 69.4,67.16 70.22,85.95 C68.96,85.32 67.64,84.49 66.31,83.41 C60.16,78.4 57.21,70.57 55.9,62.78 Z M70.18,90.56 C69.79,96.4 67.66,112.79 56.2,114.28 C57.82,105.59 61.56,94.61 70.18,90.56 Z" id="形狀" fill="#E37F45"></path>
        </g>
    </g>
</svg>