<?xml version="1.0" encoding="UTF-8"?>
<svg width="110px" height="177px" viewBox="0 0 110 177" version="1.1" xmlns="http://www.w3.org/2000/svg" xmlns:xlink="http://www.w3.org/1999/xlink">
    <!-- Generator: Sketch 55.1 (78136) - https://sketchapp.com -->
    <title>card-45copy</title>
    <desc>Created with Sketch.</desc>
    <g id="Page-1" stroke="none" stroke-width="1" fill="none" fill-rule="evenodd">
        <g id="card-45copy" fill-rule="nonzero">
            <path d="M96.02,0.26 L12.98,0.26 C5.84,0.26 0,6.1 0,13.24 L0,163.76 C0,170.9 5.84,176.74 12.98,176.74 L96.03,176.74 C103.17,176.74 109.01,170.9 109.01,163.76 L109.01,13.24 C109,6.1 103.16,0.26 96.02,0.26 Z" id="路徑" fill="#EBEBEB"></path>
            <path d="M29.02,126.04 C24.86,126.04 21.48,122.66 21.48,118.5 C21.48,114.34 24.86,110.96 29.02,110.96 C33.18,110.96 36.56,114.34 36.56,118.5 C36.56,122.66 33.18,126.04 29.02,126.04 Z M29.02,111.88 C25.37,111.88 22.39,114.85 22.39,118.51 C22.39,122.17 25.36,125.14 29.02,125.14 C32.68,125.14 35.65,122.17 35.65,118.51 C35.65,114.85 32.68,111.88 29.02,111.88 Z" id="形狀" fill="#1D4764"></path>
            <path d="M43.19,126.04 C39.03,126.04 35.65,122.66 35.65,118.5 C35.65,114.34 39.03,110.96 43.19,110.96 C47.35,110.96 50.73,114.34 50.73,118.5 C50.73,122.66 47.35,126.04 43.19,126.04 Z M43.19,111.88 C39.54,111.88 36.56,114.85 36.56,118.51 C36.56,122.17 39.53,125.14 43.19,125.14 C46.84,125.14 49.82,122.17 49.82,118.51 C49.82,114.85 46.84,111.88 43.19,111.88 Z" id="形狀" fill="#1D4764"></path>
            <path d="M36.11,113.77 C31.95,113.77 28.57,110.39 28.57,106.23 C28.57,102.07 31.95,98.69 36.11,98.69 C40.27,98.69 43.65,102.07 43.65,106.23 C43.65,110.38 40.27,113.77 36.11,113.77 Z M36.11,99.6 C32.46,99.6 29.48,102.57 29.48,106.23 C29.48,109.88 32.45,112.86 36.11,112.86 C39.76,112.86 42.74,109.89 42.74,106.23 C42.73,102.57 39.76,99.6 36.11,99.6 Z" id="形狀" fill="#1D4764"></path>
            <path d="M29.02,62.58 C24.86,62.58 21.48,59.2 21.48,55.04 C21.48,50.88 24.86,47.5 29.02,47.5 C33.18,47.5 36.56,50.88 36.56,55.04 C36.56,59.2 33.18,62.58 29.02,62.58 Z M29.02,48.41 C25.37,48.41 22.39,51.38 22.39,55.04 C22.39,58.7 25.36,61.67 29.02,61.67 C32.68,61.67 35.65,58.7 35.65,55.04 C35.65,51.38 32.68,48.41 29.02,48.41 Z" id="形狀" fill="#1D4764"></path>
            <path d="M43.19,62.58 C39.03,62.58 35.65,59.2 35.65,55.04 C35.65,50.88 39.03,47.5 43.19,47.5 C47.35,47.5 50.73,50.88 50.73,55.04 C50.73,59.2 47.35,62.58 43.19,62.58 Z M43.19,48.41 C39.54,48.41 36.56,51.38 36.56,55.04 C36.56,58.7 39.53,61.67 43.19,61.67 C46.84,61.67 49.82,58.7 49.82,55.04 C49.82,51.38 46.84,48.41 43.19,48.41 Z" id="形狀" fill="#1D4764"></path>
            <path d="M36.11,50.3 C31.95,50.3 28.57,46.92 28.57,42.76 C28.57,38.6 31.95,35.22 36.11,35.22 C40.27,35.22 43.65,38.6 43.65,42.76 C43.65,46.92 40.27,50.3 36.11,50.3 Z M36.11,36.13 C32.46,36.13 29.48,39.1 29.48,42.76 C29.48,46.41 32.45,49.39 36.11,49.39 C39.76,49.39 42.74,46.42 42.74,42.76 C42.73,39.11 39.76,36.13 36.11,36.13 Z" id="形狀" fill="#1D4764"></path>
            <path d="M29.02,94.31 C24.86,94.31 21.48,90.93 21.48,86.77 C21.48,82.61 24.86,79.23 29.02,79.23 C33.18,79.23 36.5600221,82.61 36.5600221,86.77 C36.57,90.93 33.18,94.31 29.02,94.31 Z M29.02,80.14 C25.37,80.14 22.39,83.11 22.39,86.77 C22.39,90.42 25.36,93.4 29.02,93.4 C32.68,93.4 35.65,90.43 35.65,86.77 C35.65,83.12 32.68,80.14 29.02,80.14 Z" id="形狀" fill="#1D4764"></path>
            <path d="M43.19,94.31 C39.03,94.31 35.65,90.93 35.65,86.77 C35.65,82.61 39.03,79.23 43.19,79.23 C47.35,79.23 50.73,82.61 50.73,86.77 C50.73,90.93 47.35,94.31 43.19,94.31 Z M43.19,80.14 C39.54,80.14 36.56,83.11 36.56,86.77 C36.56,90.42 39.53,93.4 43.19,93.4 C46.84,93.4 49.82,90.43 49.82,86.77 C49.82,83.12 46.84,80.14 43.19,80.14 Z" id="形狀" fill="#1D4764"></path>
            <path d="M36.11,82.03 C31.95,82.03 28.57,78.65 28.57,74.49 C28.57,70.33 31.95,66.95 36.11,66.95 C40.27,66.95 43.65,70.33 43.65,74.49 C43.65,78.65 40.27,82.03 36.11,82.03 Z M36.11,67.87 C32.46,67.87 29.48,70.84 29.48,74.5 C29.48,78.15 32.45,81.13 36.11,81.13 C39.76,81.13 42.74,78.16 42.74,74.5 C42.73,70.84 39.76,67.87 36.11,67.87 Z" id="形狀" fill="#1D4764"></path>
            <path d="M45.72,141.66 L26.49,141.66 L26.49,140.74 C35.54,140.74 35.65,125.74 35.65,125.59 L36.57,125.59 C36.57,140.57 45.64,140.74 45.73,140.74 L45.73,141.66 L45.72,141.66 Z M30.25,140.74 L42.39,140.74 C41.83,140.46 41.23,140.09 40.63,139.6 C38.88,138.18 36.88,135.53 36.05,130.64 C35.88,131.56 35.65,132.54 35.35,133.52 C34.25,137.08 32.52,139.52 30.25,140.74 Z" id="形狀" fill="#1D4764"></path>
            <path d="M79.88,65.91 C75.72,65.91 72.34,62.53 72.34,58.37 C72.34,54.21 75.72,50.83 79.88,50.83 C84.04,50.83 87.42,54.21 87.42,58.37 C87.42,62.53 84.04,65.91 79.88,65.91 Z M79.88,51.75 C76.23,51.75 73.25,54.72 73.25,58.38 C73.25,62.03 76.22,65.01 79.88,65.01 C83.53,65.01 86.51,62.04 86.51,58.38 C86.5,54.72 83.53,51.75 79.88,51.75 Z" id="形狀" fill="#1D4764"></path>
            <path d="M65.71,65.91 C61.55,65.91 58.17,62.53 58.17,58.37 C58.17,54.21 61.55,50.83 65.71,50.83 C69.87,50.83 73.25,54.21 73.25,58.37 C73.25,62.53 69.87,65.91 65.71,65.91 Z M65.71,51.75 C62.06,51.75 59.08,54.72 59.08,58.38 C59.08,62.03 62.05,65.01 65.71,65.01 C69.36,65.01 72.34,62.04 72.34,58.38 C72.34,54.72 69.37,51.75 65.71,51.75 Z" id="形狀" fill="#1D4764"></path>
            <path d="M72.8,78.19 C68.64,78.19 65.26,74.81 65.26,70.65 C65.26,66.49 68.64,63.11 72.8,63.11 C76.96,63.11 80.34,66.49 80.34,70.65 C80.34,74.81 76.95,78.19 72.8,78.19 Z M72.8,64.02 C69.15,64.02 66.17,66.99 66.17,70.65 C66.17,74.3 69.14,77.28 72.8,77.28 C76.45,77.28 79.43,74.31 79.43,70.65 C79.42,67 76.45,64.02 72.8,64.02 Z" id="形狀" fill="#1D4764"></path>
            <path d="M79.88,129.38 C75.72,129.38 72.34,126 72.34,121.84 C72.34,117.68 75.72,114.3 79.88,114.3 C84.04,114.3 87.42,117.68 87.42,121.84 C87.42,126 84.04,129.38 79.88,129.38 Z M79.88,115.21 C76.23,115.21 73.25,118.18 73.25,121.84 C73.25,125.5 76.22,128.47 79.88,128.47 C83.53,128.47 86.51,125.5 86.51,121.84 C86.51,118.18 83.53,115.21 79.88,115.21 Z" id="形狀" fill="#1D4764"></path>
            <path d="M65.71,129.38 C61.55,129.38 58.17,126 58.17,121.84 C58.17,117.68 61.55,114.3 65.71,114.3 C69.87,114.3 73.25,117.68 73.25,121.84 C73.25,126 69.87,129.38 65.71,129.38 Z M65.71,115.21 C62.06,115.21 59.08,118.18 59.08,121.84 C59.08,125.5 62.05,128.47 65.71,128.47 C69.36,128.47 72.34,125.5 72.34,121.84 C72.34,118.18 69.37,115.21 65.71,115.21 Z" id="形狀" fill="#1D4764"></path>
            <path d="M72.8,141.66 C68.64,141.66 65.26,138.28 65.26,134.12 C65.26,129.96 68.64,126.58 72.8,126.58 C76.96,126.58 80.34,129.96 80.34,134.12 C80.34,138.27 76.95,141.66 72.8,141.66 Z M72.8,127.49 C69.15,127.49 66.17,130.46 66.17,134.12 C66.17,137.78 69.14,140.75 72.8,140.75 C76.45,140.75 79.43,137.78 79.43,134.12 C79.43,130.46 76.45,127.49 72.8,127.49 Z" id="形狀" fill="#1D4764"></path>
            <path d="M79.88,97.64 C75.72,97.64 72.34,94.26 72.34,90.1 C72.34,85.94 75.72,82.56 79.88,82.56 C84.04,82.56 87.42,85.94 87.42,90.1 C87.42,94.26 84.04,97.64 79.88,97.64 Z M79.88,83.48 C76.23,83.48 73.25,86.45 73.25,90.11 C73.25,93.76 76.22,96.74 79.88,96.74 C83.53,96.74 86.51,93.77 86.51,90.11 C86.5,86.45 83.53,83.48 79.88,83.48 Z" id="形狀" fill="#1D4764"></path>
            <path d="M65.71,97.64 C61.55,97.64 58.17,94.26 58.17,90.1 C58.17,85.94 61.55,82.56 65.71,82.56 C69.87,82.56 73.25,85.94 73.25,90.1 C73.25,94.26 69.87,97.64 65.71,97.64 Z M65.71,83.48 C62.06,83.48 59.08,86.45 59.08,90.11 C59.08,93.76 62.05,96.74 65.71,96.74 C69.36,96.74 72.34,93.77 72.34,90.11 C72.34,86.45 69.37,83.48 65.71,83.48 Z" id="形狀" fill="#1D4764"></path>
            <path d="M72.8,109.92 C68.64,109.92 65.26,106.54 65.26,102.38 C65.26,98.22 68.64,94.84 72.8,94.84 C76.96,94.84 80.34,98.22 80.34,102.38 C80.34,106.54 76.95,109.92 72.8,109.92 Z M72.8,95.76 C69.15,95.76 66.17,98.73 66.17,102.39 C66.17,106.05 69.14,109.02 72.8,109.02 C76.45,109.02 79.43,106.05 79.43,102.39 C79.43,98.73 76.45,95.76 72.8,95.76 Z" id="形狀" fill="#1D4764"></path>
            <path d="M73.25,51.29 L72.33,51.29 C72.33,36.31 63.26,36.14 63.17,36.14 L63.17,35.22 L82.4,35.22 L82.4,36.14 C73.36,36.13 73.25,51.14 73.25,51.29 Z M66.52,36.13 C67.08,36.41 67.68,36.78 68.28,37.27 C70.03,38.69 72.03,41.33 72.86,46.23 C73.03,45.31 73.26,44.33 73.56,43.35 C74.66,39.79 76.39,37.36 78.65,36.14 L66.52,36.14 L66.52,36.13 Z" id="形狀" fill="#1D4764"></path>
            <g id="群組" transform="translate(7.000000, 33.000000)" fill="#1D4764">
                <circle id="橢圓形" cx="2.53" cy="7.12" r="2.33"></circle>
                <circle id="橢圓形" cx="7.2" cy="7.12" r="2.33"></circle>
                <circle id="橢圓形" cx="4.86" cy="3.07" r="2.33"></circle>
                <circle id="橢圓形" cx="92.47" cy="103.88" r="2.33"></circle>
                <circle id="橢圓形" cx="87.81" cy="103.88" r="2.33"></circle>
                <circle id="橢圓形" cx="90.14" cy="107.93" r="2.33"></circle>
            </g>
            <path d="M15.16,26.82 C15.16,27.59 14.84,28.25 14.19,28.8 C13.54,29.35 12.77,29.62 11.86,29.62 C10.96,29.62 10.18,29.35 9.53,28.8 C8.88,28.25 8.56,27.59 8.56,26.82 L8.56,12.92 C8.56,12.15 8.88,11.49 9.53,10.94 C10.18,10.39 10.95,10.12 11.86,10.12 C12.77,10.12 13.55,10.39 14.19,10.94 C14.83,11.49 15.16,12.15 15.16,12.92 L15.16,16.02 L12.96,16.02 L12.96,11.71 C12.96,11.41 12.85,11.15 12.64,10.93 C12.43,10.72 12.17,10.61 11.86,10.61 C11.55,10.61 11.3,10.72 11.08,10.93 C10.87,11.14 10.76,11.4 10.76,11.71 L10.76,19.45 C11.17,19.11 11.73,18.94 12.44,18.94 C14.25,18.94 15.16,19.78 15.16,21.46 L15.16,26.82 L15.16,26.82 Z M10.02,28.67 C9.78,28.32 9.66,27.88 9.66,27.34 L9.66,12.4 C9.66,11.87 9.78,11.43 10.02,11.09 C9.41,11.5 9.11,12.05 9.11,12.74 L9.11,27.02 C9.11,27.7 9.42,28.25 10.02,28.67 Z M12.96,28.02 L12.96,20.52 C12.96,19.83 12.59,19.49 11.86,19.49 C11.47,19.49 11.1,19.64 10.76,19.95 L10.76,28.02 C10.76,28.32 10.87,28.58 11.08,28.8 C11.29,29.01 11.55,29.12 11.86,29.12 C12.17,29.12 12.42,29.01 12.64,28.8 C12.85,28.59 12.96,28.33 12.96,28.02 Z M14.06,15.54 L14.06,12.48 C14.06,11.75 13.73,11.17 13.07,10.75 C13.37,11.09 13.51,11.54 13.51,12.1 L13.51,15.53 L14.06,15.53 L14.06,15.54 Z M14.06,27.26 L14.06,21.02 C14.06,20.3 13.73,19.8 13.07,19.54 C13.37,19.83 13.51,20.23 13.51,20.75 L13.51,27.64 C13.51,28.19 13.36,28.64 13.07,28.98 C13.73,28.57 14.06,27.99 14.06,27.26 Z" id="形狀" fill="#1D4764"></path>
            <path d="M93.84,150.19 C93.84,149.42 94.16,148.76 94.81,148.21 C95.45,147.66 96.23,147.39 97.14,147.39 C98.04,147.39 98.82,147.66 99.47,148.21 C100.12,148.76 100.44,149.42 100.44,150.19 L100.44,164.08 C100.44,164.85 100.12,165.51 99.47,166.06 C98.82,166.61 98.05,166.88 97.14,166.88 C96.23,166.88 95.45,166.61 94.81,166.06 C94.17,165.51 93.84,164.85 93.84,164.08 L93.84,160.98 L96.04,160.98 L96.04,165.29 C96.04,165.59 96.15,165.85 96.36,166.07 C96.57,166.28 96.83,166.39 97.14,166.39 C97.45,166.39 97.7,166.28 97.92,166.07 C98.13,165.86 98.24,165.6 98.24,165.29 L98.24,157.55 C97.83,157.89 97.27,158.06 96.56,158.06 C94.75,158.06 93.84,157.22 93.84,155.54 L93.84,150.19 L93.84,150.19 Z M94.94,149.74 L94.94,155.98 C94.94,156.7 95.27,157.2 95.93,157.46 C95.63,157.17 95.49,156.77 95.49,156.25 L95.49,149.36 C95.49,148.81 95.64,148.36 95.93,148.02 C95.27,148.43 94.94,149.01 94.94,149.74 Z M94.94,161.46 L94.94,164.52 C94.94,165.25 95.27,165.83 95.93,166.25 C95.63,165.91 95.49,165.46 95.49,164.9 L95.49,161.47 L94.94,161.47 L94.94,161.46 Z M96.04,148.98 L96.04,156.48 C96.04,157.17 96.41,157.51 97.14,157.51 C97.53,157.51 97.9,157.36 98.24,157.05 L98.24,148.98 C98.24,148.68 98.13,148.42 97.92,148.2 C97.71,147.99 97.45,147.88 97.14,147.88 C96.83,147.88 96.58,147.99 96.36,148.2 C96.15,148.41 96.04,148.67 96.04,148.98 Z M98.98,148.33 C99.22,148.68 99.34,149.12 99.34,149.66 L99.34,164.6 C99.34,165.13 99.22,165.57 98.98,165.91 C99.59,165.5 99.89,164.95 99.89,164.26 L99.89,149.98 C99.89,149.3 99.58,148.75 98.98,148.33 Z" id="形狀" fill="#1D4764"></path>
        </g>
    </g>
</svg>