<?xml version="1.0" encoding="UTF-8"?>
<svg width="110px" height="177px" viewBox="0 0 110 177" version="1.1" xmlns="http://www.w3.org/2000/svg" xmlns:xlink="http://www.w3.org/1999/xlink">
    <!-- Generator: Sketch 55.1 (78136) - https://sketchapp.com -->
    <title>card-01copy</title>
    <desc>Created with Sketch.</desc>
    <g id="Page-1" stroke="none" stroke-width="1" fill="none" fill-rule="evenodd">
        <g id="card-01copy" fill-rule="nonzero">
            <path d="M96.02,0.26 L12.98,0.26 C5.84,0.26 0,6.1 0,13.24 L0,163.76 C0,170.9 5.84,176.74 12.98,176.74 L96.03,176.74 C103.17,176.74 109.01,170.9 109.01,163.76 L109.01,13.24 C109,6.1 103.16,0.26 96.02,0.26 Z" id="路徑" fill="#EBEBEB"></path>
            <g id="群組" transform="translate(21.000000, 46.000000)" fill="#1D4764">
                <path d="M33.5,66.15 C15.35,66.15 0.58,51.38 0.58,33.23 C0.58,15.08 15.35,0.31 33.5,0.31 C51.65,0.31 66.42,15.08 66.42,33.23 C66.42,51.39 51.65,66.15 33.5,66.15 Z M33.5,1.23 C15.85,1.23 1.5,15.59 1.5,33.23 C1.5,50.87 15.86,65.23 33.5,65.23 C51.14,65.23 65.5,50.87 65.5,33.23 C65.5,15.59 51.15,1.23 33.5,1.23 Z" id="形狀"></path>
                <path d="M43.39,86.39 L23.61,86.39 L23.61,85.47 C32.93,85.47 33.04,70.03 33.04,69.88 L33.96,69.88 C33.96,85.25 43.01,85.47 43.39,85.47 L43.39,86.39 Z M27.42,85.48 L40.07,85.48 C37.61,84.27 34.49,81.46 33.42,74.95 C32.73,78.7 31.12,83.5 27.42,85.48 Z" id="形狀"></path>
            </g>
            <path d="M15.5,29.49 L11.93,29.49 L11.93,28.99 L12.61,28.99 L12.11,23.41 L10.14,23.41 L9.6,28.99 L10.28,28.99 L10.28,29.49 L8.22,29.49 L8.22,28.99 L8.9,28.99 L10.83,10.25 L13.03,10.25 L14.81,28.99 L15.49,28.99 L15.49,29.49 L15.5,29.49 Z M12.1,22.93 L11.19,12.54 L10.18,22.93 L12.1,22.93 Z M13.72,28.99 L11.99,10.75 L11.44,10.75 L13.17,28.99 L13.72,28.99 Z" id="形狀" fill="#1D4764"></path>
            <path d="M93.5,147.52 L97.07,147.52 L97.07,148.02 L96.39,148.02 L96.89,153.6 L98.86,153.6 L99.41,148.02 L98.73,148.02 L98.73,147.52 L100.8,147.52 L100.8,148.02 L100.12,148.02 L98.19,166.76 L95.99,166.76 L94.21,148.02 L93.5,148.02 L93.5,147.52 Z M95.28,148.01 L97.01,166.25 L97.56,166.25 L95.83,148.01 L95.28,148.01 Z M96.9,154.07 L97.81,164.46 L98.82,154.07 L96.9,154.07 Z" id="形狀" fill="#1D4764"></path>
            <path d="M16.07,40.4 C16.07,38.08 14.18,36.19 11.86,36.19 C9.54,36.19 7.65,38.08 7.65,40.4 C7.65,42.72 9.54,44.61 11.86,44.61 C14.18,44.61 16.07,42.72 16.07,40.4 Z" id="路徑" fill="#1D4764"></path>
            <circle id="橢圓形" fill="#1D4764" cx="97.14" cy="136.6" r="4.21"></circle>
        </g>
    </g>
</svg>